<svg width="90" height="73" viewBox="0 0 90 73" fill="none" xmlns="http://www.w3.org/2000/svg">
<rect x="19.8" width="50" height="50" rx="6" fill="url(#paint0_linear_703_654)"/>
<path d="M38.0361 14.3483H49.0174V12.8989H38.0361V14.3483ZM32.5454 17.2472V33.9157H38.0361V36.8146H31.1727C30.8087 36.8146 30.4595 36.6619 30.2021 36.39C29.9447 36.1182 29.8 35.7495 29.8 35.3651V15.7977C29.8 15.4133 29.9447 15.0447 30.2021 14.7728C30.4595 14.501 30.8087 14.3483 31.1727 14.3483H35.2907V11.4494C35.2907 11.065 35.4353 10.6964 35.6928 10.4245C35.9502 10.1527 36.2993 10 36.6634 10H50.3901C50.7542 10 51.1033 10.1527 51.3607 10.4245C51.6182 10.6964 51.7628 11.065 51.7628 11.4494V14.3483H55.1944C55.5585 14.3483 55.9076 14.501 56.1651 14.7728C56.4225 15.0447 56.5671 15.4133 56.5671 15.7977V27.3932H53.8218V17.2472H32.5454ZM43.5268 21.4592L49.1465 18.8213L50.2624 21.4708L44.0854 24.3697C43.9099 24.4525 43.7197 24.4953 43.5274 24.4953C43.3352 24.4953 43.145 24.4525 42.9694 24.3697L36.7924 21.4708L37.907 18.8213L43.5268 21.4592Z" fill="white"/>
<path d="M59.4662 29.5747C58.8581 28.589 57.576 28.3513 56.611 28.9398L52.1938 31.6329L45.896 27.9411L43.5185 29.3906L48.213 34.0607L44.7045 36.1986L41.6681 34.7028L39.8837 35.7898L45.5802 39.7613C45.7932 39.9093 46.0409 39.9917 46.2957 39.9994C46.5505 40.0071 46.8023 39.9397 47.0229 39.8048L49.2604 38.4423L58.7702 32.6446C59.0125 32.4969 59.2238 32.2987 59.3911 32.0619C59.5584 31.8252 59.6783 31.5549 59.7435 31.2677C59.8086 30.9804 59.8176 30.6821 59.7699 30.391C59.7222 30.0999 59.6189 29.8222 59.4662 29.5747Z" fill="white"/>
<path d="M27.9563 65.249V64.7432H24.3606V70.1025H28.3665V66.2061H29.5149V71.6338H28.3665V71.1416H18.0852V66.2061H19.2473V70.1025H23.1711V64.7432H18.4543V59.835H19.6165V63.7041H23.1711V58.5771H24.3606V63.7041H27.9563V59.835H29.1184V65.249H27.9563ZM33.1926 70.376H38.2786V68.0518H34.7649V67.6211C33.8717 68.6328 32.7916 69.5693 31.5247 70.4307C31.3424 70.139 31.1236 69.8154 30.8684 69.46C32.5911 68.3206 33.9241 67.0537 34.8674 65.6592H31.2375V64.7295H35.4348C35.6627 64.3148 35.8746 63.8636 36.0706 63.376H32.1946V62.46H36.4192C36.5605 62.0498 36.6926 61.6169 36.8157 61.1611H31.8665V60.2314H35.3391C34.9563 59.7484 34.5461 59.2699 34.1086 58.7959L34.8879 58.1943C35.4166 58.7048 35.9224 59.2334 36.4055 59.7803L35.7834 60.2314H40.0286L39.4954 59.7529C40.0331 59.2243 40.5116 58.7002 40.9309 58.1807L41.8606 58.7959C41.3958 59.3063 40.9264 59.7848 40.4524 60.2314H44.0344V61.1611H37.9983C37.8752 61.6123 37.7431 62.0452 37.6018 62.46H43.5149V63.376H37.2805C37.0982 63.8545 36.9045 64.3057 36.6995 64.7295H44.5676V65.6592H36.2004C35.8951 66.1696 35.551 66.6618 35.1682 67.1357H43.0774V68.0518H39.386V70.376H44.3899V71.3057H33.1926V70.376ZM46.2493 60.4639H51.2668V58.3857H52.3333V60.4639H57.3782V69.0908H56.3391V68.2568H52.3333V71.8662H51.2668V68.2568H47.2883V69.0908H46.2493V60.4639ZM52.3333 67.2998H56.3391V64.8115H52.3333V67.2998ZM47.2883 67.2998H51.2668V64.8115H47.2883V67.2998ZM56.3391 61.4209H52.3333V63.8818H56.3391V61.4209ZM47.2883 63.8818H51.2668V61.4209H47.2883V63.8818ZM64.8977 71.7295H63.8313V64.7979H71.4329V70.1162C71.4329 71.1006 70.927 71.5973 69.9153 71.6064C69.3775 71.6156 68.6894 71.6201 67.8508 71.6201C67.8053 71.3285 67.7369 70.9775 67.6458 70.5674C68.4387 70.6221 69.0859 70.6494 69.5872 70.6494C70.1067 70.6494 70.3665 70.4124 70.3665 69.9385V69.2549H64.8977V71.7295ZM62.6282 63.1025H67.0442V62.1592H63.5442V61.2979H67.0442V60.3818H63.0657V59.5205H67.0442V58.29H68.1516V59.5205H72.3215V60.3818H68.1516V61.2979H71.9661V62.1592H68.1516V63.1025H72.595V63.9639H62.6282V63.1025ZM63.2981 68.3525C63.3254 68.8083 63.3573 69.2048 63.3938 69.542C62.4094 70.1982 61.5754 70.7907 60.8918 71.3193L60.2629 70.417C60.5728 70.1253 60.7278 69.7288 60.7278 69.2275V64.0596H59.0598V63.0615H61.7668V69.4326C62.2773 69.0863 62.7877 68.7262 63.2981 68.3525ZM70.3665 65.6729H64.8977V66.6162H70.3665V65.6729ZM64.8977 68.4072H70.3665V67.4639H64.8977V68.4072ZM60.6047 58.7549C61.3521 59.4932 62.0129 60.1813 62.5872 60.8193L61.6301 61.6123C61.0012 60.8011 60.386 60.0811 59.7844 59.4521L60.6047 58.7549Z" fill="black" fill-opacity="0.85"/>
<defs>
<linearGradient id="paint0_linear_703_654" x1="19.8" y1="0" x2="74.0612" y2="44.844" gradientUnits="userSpaceOnUse">
<stop stop-color="#5956FF"/>
<stop offset="1" stop-color="#7E7CFA"/>
</linearGradient>
</defs>
</svg>
