<svg width="25" height="26" viewBox="0 0 25 26" fill="none" xmlns="http://www.w3.org/2000/svg">
<path d="M20.3082 2.06104H4.68602C2.96015 2.06104 1.56104 3.46015 1.56104 5.18603V20.8082C1.56104 22.5341 2.96015 23.9332 4.68602 23.9332H20.3082C22.0341 23.9332 23.4332 22.5341 23.4332 20.8082V5.18603C23.4332 3.46015 22.0341 2.06104 20.3082 2.06104ZM21.8722 20.8125C21.8723 21.0175 21.832 21.2206 21.7536 21.41C21.6751 21.5995 21.5601 21.7716 21.415 21.9165C21.2699 22.0614 21.0976 22.1762 20.9081 22.2544C20.7185 22.3326 20.5154 22.3726 20.3104 22.3722H4.68964C4.27186 22.3722 3.87737 22.2117 3.58192 21.9162C3.28647 21.6208 3.12207 21.2302 3.12207 20.8125V5.18753C3.12282 4.77221 3.28828 4.37414 3.58216 4.08067C3.87603 3.78719 4.27432 3.62226 4.68964 3.62208H20.3104C20.5157 3.62229 20.719 3.66295 20.9086 3.74174C21.0983 3.82053 21.2705 3.9359 21.4155 4.08127C21.5606 4.22664 21.6756 4.39916 21.7539 4.58898C21.8323 4.77879 21.8724 4.98218 21.8722 5.18753V20.8125Z" fill="black"/>
<path d="M19.3359 9.09013H13.0859C12.8789 9.09013 12.6804 9.17236 12.534 9.31873C12.3876 9.46511 12.3054 9.66364 12.3054 9.87064C12.3054 10.0777 12.3876 10.2762 12.534 10.4226C12.6804 10.5689 12.8789 10.6512 13.0859 10.6512H19.3359C19.5429 10.6512 19.7414 10.5689 19.8878 10.4226C20.0342 10.2762 20.1164 10.0777 20.1164 9.87064C20.1164 9.66364 20.0342 9.46511 19.8878 9.31873C19.7414 9.17236 19.5429 9.09013 19.3359 9.09013ZM19.3359 15.3431H13.0859C12.8789 15.3431 12.6804 15.4253 12.534 15.5717C12.3876 15.7181 12.3054 15.9166 12.3054 16.1236C12.3054 16.3306 12.3876 16.5292 12.534 16.6755C12.6804 16.8219 12.8789 16.9041 13.0859 16.9041H19.3359C19.5429 16.9041 19.7414 16.8219 19.8878 16.6755C20.0342 16.5292 20.1164 16.3306 20.1164 16.1236C20.1164 15.9166 20.0342 15.7181 19.8878 15.5717C19.7414 15.4253 19.5429 15.3431 19.3359 15.3431ZM8.39847 13.3906C6.88831 13.3906 5.66444 14.6148 5.66444 16.1246C5.66444 17.6344 6.88867 18.8586 8.39847 18.8586C9.90826 18.8586 11.1325 17.6344 11.1325 16.1246C11.1325 14.6148 9.90862 13.3906 8.39847 13.3906ZM9.22811 16.9546C9.03614 17.1464 8.78361 17.2657 8.51354 17.2921C8.24348 17.3186 7.97259 17.2507 7.74702 17.0998C7.52145 16.949 7.35517 16.7246 7.27649 16.4649C7.19781 16.2052 7.21161 15.9262 7.31553 15.6755C7.41945 15.4249 7.60707 15.218 7.84643 15.0901C8.08578 14.9623 8.36206 14.9214 8.62819 14.9744C8.89433 15.0274 9.13385 15.171 9.30596 15.3808C9.47807 15.5906 9.57211 15.8536 9.57207 16.1249C9.57246 16.2791 9.54226 16.4318 9.48322 16.5743C9.42418 16.7167 9.33747 16.846 9.22811 16.9547V16.9546ZM10.1903 7.7606L7.61715 10.3337L6.60662 9.32305C6.46024 9.17667 6.26171 9.09443 6.0547 9.09443C5.84769 9.09443 5.64916 9.17667 5.50278 9.32305C5.3564 9.46942 5.27417 9.66796 5.27417 9.87497C5.27417 10.082 5.3564 10.2805 5.50278 10.4269L7.06523 11.9894C7.13771 12.0619 7.22376 12.1194 7.31846 12.1586C7.41315 12.1979 7.51465 12.218 7.61715 12.218C7.71965 12.218 7.82115 12.1979 7.91585 12.1586C8.01055 12.1194 8.0966 12.0619 8.16907 11.9894L11.2941 8.86444C11.4388 8.71773 11.5196 8.51973 11.5189 8.31365C11.5183 8.10756 11.4361 7.91012 11.2904 7.76438C11.1446 7.61865 10.9472 7.53647 10.7411 7.53576C10.535 7.53505 10.337 7.61587 10.1903 7.7606Z" fill="black"/>
</svg>
