<svg width="89" height="73" viewBox="0 0 89 73" fill="none" xmlns="http://www.w3.org/2000/svg">
<rect x="19.4" width="50" height="50" rx="6" fill="url(#paint0_linear_736_1230)"/>
<path d="M55.9356 12.8795H51.7668V11.0163C51.7668 10.4517 51.2909 10 50.7389 10C50.1678 10 49.7109 10.4705 49.7109 11.0163V12.8795H39.1081V11.0163C39.1081 10.4517 38.6323 10 38.0802 10C37.5092 10 37.0523 10.4705 37.0523 11.0163V12.8795H32.8645C30.9609 12.8795 29.4 14.4228 29.4 16.3049V36.5747C29.4 38.4567 30.9609 40 32.8645 40H55.9356C57.8391 40 59.4 38.4755 59.4 36.5747V16.3049C59.4 14.4228 57.8391 12.8795 55.9356 12.8795ZM57.3442 36.5747C57.3442 37.3463 56.716 37.9674 55.9356 37.9674H32.8645C32.084 37.9674 31.4559 37.3463 31.4559 36.5747V16.3049C31.4559 15.5332 32.084 14.9122 32.8645 14.9122H37.0333V16.606C37.0333 17.1706 37.5092 17.6223 38.0612 17.6223C38.6323 17.6223 39.0891 17.1518 39.0891 16.606V14.9122H49.6919V16.606C49.6919 17.1706 50.1678 17.6223 50.7198 17.6223C51.2909 17.6223 51.7477 17.1518 51.7477 16.606V14.9122H55.9165C56.697 14.9122 57.3252 15.5332 57.3252 16.3049V36.5747H57.3442Z" fill="white"/>
<path d="M42.9345 32.8294C42.5919 32.8294 42.2492 32.6976 41.9827 32.4342L37.3571 27.8608C36.8241 27.3338 36.8241 26.4868 37.3571 25.9787C37.8901 25.4517 38.7467 25.4517 39.2606 25.9787L42.9345 29.6111L49.635 22.9862C50.168 22.4592 51.0246 22.4592 51.5386 22.9862C52.0715 23.5132 52.0715 24.3601 51.5386 24.8683L43.8672 32.453C43.6388 32.6976 43.2962 32.8294 42.9345 32.8294Z" fill="white"/>
<path d="M16.5778 66.1787C17.4209 65.9098 18.2412 65.641 19.0387 65.3721V62.1729H16.7965V61.1338H19.0387V58.5088H20.1324V61.1338H22.1696V62.1729H20.1324V64.9961C20.889 64.7363 21.6272 64.4743 22.3473 64.21C22.3746 64.6748 22.4111 65.0394 22.4567 65.3037C21.6728 65.5771 20.8981 65.8529 20.1324 66.1309V70.1572C20.1324 71.1507 19.6585 71.6475 18.7106 71.6475C18.3004 71.6475 17.7763 71.6429 17.1383 71.6338C17.0927 71.251 17.038 70.8682 16.9742 70.4854C17.43 70.5492 17.9176 70.5811 18.4371 70.5811C18.8382 70.5811 19.0387 70.3623 19.0387 69.9248V66.5205C18.3141 66.7848 17.5986 67.0492 16.8922 67.3135L16.5778 66.1787ZM22.3199 59.5342H30.2086V60.5732H27.8571V69.8291C27.8571 70.9867 27.2874 71.57 26.1481 71.5791C25.5556 71.5882 24.7627 71.5837 23.7692 71.5654C23.7236 71.1462 23.6507 70.7314 23.5504 70.3213C24.5804 70.3942 25.3505 70.4307 25.861 70.4307C26.4261 70.4307 26.7086 70.1117 26.7086 69.4736V60.5732H22.3199V59.5342ZM30.8239 63.6357H36.2789V58.4131H37.4274V60.4502H43.1696V61.4619H37.4274V63.6357H44.0309V64.6748H30.8239V63.6357ZM36.2653 65.167H37.4137V66.7393L37.9742 66.0146C40.1435 67.0081 41.9072 67.8877 43.2653 68.6533L42.5543 69.665C41.3147 68.9085 39.6012 68.0016 37.4137 66.9443V71.8799H36.2653V65.167ZM50.9078 64.6064V69.2549C50.9078 69.9385 51.236 70.2803 51.8922 70.2803H55.3785C56.208 70.2803 56.6774 69.9749 56.7867 69.3643C56.887 68.8721 56.9827 68.1611 57.0739 67.2314C57.4658 67.3864 57.8486 67.5186 58.2223 67.6279C58.1038 68.4756 57.9716 69.2139 57.8258 69.8428C57.6253 70.8271 56.887 71.3193 55.611 71.3193H51.5094C50.3974 71.3193 49.8414 70.736 49.8414 69.5693V63.5947H56.1578V60.0811H49.2672V59.0693H57.2242V65.2627H56.1578V64.6064H50.9078ZM49.2262 68.4346C49.2535 68.9085 49.2854 69.3005 49.3219 69.6104C48.137 70.4033 47.221 71.0596 46.5739 71.5791L45.9313 70.6631C46.2412 70.4261 46.3961 70.016 46.3961 69.4326V64.0869H44.6188V63.0752H47.4625V69.6787C48.0094 69.305 48.5973 68.8903 49.2262 68.4346ZM46.1637 58.5771C47.1572 59.598 47.8772 60.3545 48.3239 60.8467L47.3668 61.6533C46.7926 60.8968 46.1136 60.113 45.3297 59.3018L46.1637 58.5771ZM70.3219 65.249L71.1149 66.1514C70.3401 66.6618 69.3785 67.2633 68.2301 67.9561C69.2965 68.7855 70.6272 69.3825 72.2223 69.7471C71.9397 70.139 71.6891 70.5127 71.4703 70.8682C68.9912 70.1117 67.1683 68.8265 66.0016 67.0127V69.9795C66.0016 71.0824 65.4365 71.6338 64.3063 71.6338C63.7685 71.6338 63.1305 71.6247 62.3922 71.6064C62.3375 71.2692 62.2737 70.8773 62.2008 70.4307C62.8571 70.5036 63.4449 70.5446 63.9645 70.5537C64.6116 70.5537 64.9352 70.262 64.9352 69.6787V64.7842H58.7828V63.8682H68.9821V62.4053H60.5055V61.5303H68.9821V60.0811H60.2457V59.165H70.0074V63.8682H72.1266V64.7842H66.0016V65.0986C66.3753 65.9189 66.8584 66.639 67.4508 67.2588C68.5081 66.5752 69.4651 65.9053 70.3219 65.249ZM58.5914 69.4736C60.3779 68.9176 62.3147 68.2568 64.402 67.4912C64.4749 67.8923 64.5433 68.2386 64.6071 68.5303C62.7933 69.1592 60.9293 69.82 59.0153 70.5127L58.5914 69.4736ZM60.4918 65.1533C61.3668 65.682 62.2555 66.2562 63.1578 66.876L62.4879 67.7783C61.6585 67.1494 60.7835 66.5387 59.8629 65.9463L60.4918 65.1533Z" fill="black" fill-opacity="0.85"/>
<defs>
<linearGradient id="paint0_linear_736_1230" x1="19.4" y1="0" x2="73.6612" y2="44.844" gradientUnits="userSpaceOnUse">
<stop stop-color="#278ED2"/>
<stop offset="0.0001" stop-color="#23B6EB"/>
<stop offset="1" stop-color="#5ED3FC"/>
</linearGradient>
</defs>
</svg>
