<svg width="90" height="73" viewBox="0 0 90 73" fill="none" xmlns="http://www.w3.org/2000/svg">
<rect x="20" width="50" height="50" rx="6" fill="url(#paint0_linear_703_666)"/>
<path d="M34.3387 20.5896H40.1599C40.5423 20.595 40.922 20.5303 41.2765 20.3994C41.6309 20.2685 41.953 20.0741 42.2234 19.8276C42.4938 19.5812 42.7072 19.2878 42.8509 18.9647C42.9945 18.6417 43.0655 18.2957 43.0596 17.9472V12.6427C43.0655 12.2942 42.9945 11.9482 42.8509 11.6252C42.7072 11.3022 42.4938 11.0087 42.2234 10.7623C41.953 10.5158 41.6309 10.3214 41.2765 10.1905C40.922 10.0596 40.5423 9.99495 40.1599 10.0003H34.3387C33.9562 9.99495 33.5765 10.0596 33.2221 10.1905C32.8676 10.3214 32.5456 10.5158 32.2751 10.7623C32.0047 11.0087 31.7913 11.3022 31.6477 11.6252C31.5041 11.9482 31.4331 12.2942 31.439 12.6427V17.9472C31.4447 18.6464 31.752 19.3155 32.2946 19.8099C32.8371 20.3043 33.5714 20.5844 34.3387 20.5896ZM33.3794 12.6427C33.3731 12.5264 33.3937 12.4102 33.4397 12.3015C33.4857 12.1929 33.5561 12.0942 33.6465 12.0119C33.7368 11.9296 33.8451 11.8654 33.9643 11.8235C34.0835 11.7815 34.211 11.7628 34.3387 11.7685H40.1599C40.2875 11.7628 40.415 11.7815 40.5342 11.8235C40.6535 11.8654 40.7617 11.9296 40.8521 12.0119C40.9424 12.0942 41.0129 12.1929 41.0589 12.3015C41.1049 12.4102 41.1254 12.5264 41.1192 12.6427V17.9472C41.1254 18.0635 41.1049 18.1798 41.0589 18.2884C41.0129 18.397 40.9424 18.4957 40.8521 18.578C40.7617 18.6603 40.6535 18.7245 40.5342 18.7665C40.415 18.8084 40.2875 18.8271 40.1599 18.8214H34.3387C34.211 18.8271 34.0835 18.8084 33.9643 18.7665C33.8451 18.7245 33.7368 18.6603 33.6465 18.578C33.5561 18.4957 33.4857 18.397 33.4397 18.2884C33.3937 18.1798 33.3731 18.0635 33.3794 17.9472V12.6427ZM56.2282 29.4107H49.3605C48.7435 29.4159 48.1534 29.6415 47.7172 30.0391C47.2809 30.4366 47.0333 30.9743 47.0276 31.5365V37.8941C47.0389 38.4528 47.289 38.9855 47.7247 39.3787C48.1604 39.772 48.7472 39.9949 49.3605 40H56.3372C56.9542 39.9948 57.5442 39.7692 57.9805 39.3716C58.4168 38.9741 58.6644 38.4364 58.6701 37.8742V31.5166C58.6644 30.9544 58.4168 30.4167 57.9805 30.0192C57.5442 29.6217 56.9542 29.396 56.3372 29.3908L56.2282 29.4107ZM56.5116 23.7684H55.1599L57.5799 27.563L60 23.7684H58.452C58.1176 20.726 56.5572 17.9046 54.0726 15.8496C51.5879 13.7946 48.3554 12.652 45 12.6427V14.4109C47.8411 14.4298 50.5778 15.3896 52.6998 17.1112C54.8218 18.8329 56.1843 21.199 56.5334 23.7684H56.5116ZM33.4666 26.3313H34.8183L32.4201 22.5366L30 26.3313H31.548C31.9029 29.3575 33.4728 32.1574 35.956 34.1927C38.4391 36.2281 41.6601 37.3553 45 37.3576V35.5894C42.1702 35.5905 39.4371 34.6507 37.3137 32.9461C35.1902 31.2416 33.8223 28.8895 33.4666 26.3313Z" fill="white"/>
<path d="M51.7787 34.6667H49.9271L43.8412 25.2526C43.6693 24.987 43.5313 24.724 43.4271 24.4635H43.3802C43.4219 24.7344 43.4427 25.2995 43.4427 26.1589V34.6667H41.8959V22.5651H43.8568L49.7787 31.8151C50.0599 32.2526 50.2266 32.5312 50.2787 32.651H50.3099C50.2579 32.3073 50.2318 31.7187 50.2318 30.8854V22.5651H51.7787V34.6667Z" fill="white"/>
<path d="M23.5615 70H17.8672V59.4111H23.3223V60.6279H19.2344V64.0186H23.0215V65.2285H19.2344V68.79H23.5615V70ZM32.8105 69.5625C32.0312 69.9727 31.0537 70.1777 29.8779 70.1777C28.3604 70.1777 27.1481 69.6969 26.2412 68.7354C25.3343 67.7692 24.8809 66.4932 24.8809 64.9072C24.8809 63.2028 25.3913 61.8311 26.4121 60.792C27.4329 59.7529 28.7295 59.2334 30.3018 59.2334C31.3135 59.2334 32.1497 59.377 32.8105 59.6641V61.0928C32.054 60.6735 31.2223 60.4639 30.3154 60.4639C29.1351 60.4639 28.1735 60.8581 27.4307 61.6465C26.6878 62.4303 26.3164 63.4899 26.3164 64.8252C26.3164 66.0921 26.6628 67.0993 27.3555 67.8467C28.0482 68.5895 28.9551 68.9609 30.0762 68.9609C31.1243 68.9609 32.0358 68.724 32.8105 68.25V69.5625ZM43.5771 70H41.957L36.6318 61.7627C36.4814 61.5303 36.3607 61.3001 36.2695 61.0723H36.2285C36.265 61.3092 36.2832 61.8037 36.2832 62.5557V70H34.9297V59.4111H36.6455L41.8271 67.5049C42.0732 67.8877 42.2191 68.1315 42.2646 68.2363H42.292C42.2464 67.9355 42.2236 67.4206 42.2236 66.6914V59.4111H43.5771V70ZM46.4004 60.4639H51.418V58.3857H52.4844V60.4639H57.5293V69.0908H56.4902V68.2568H52.4844V71.8662H51.418V68.2568H47.4395V69.0908H46.4004V60.4639ZM52.4844 67.2998H56.4902V64.8115H52.4844V67.2998ZM47.4395 67.2998H51.418V64.8115H47.4395V67.2998ZM56.4902 61.4209H52.4844V63.8818H56.4902V61.4209ZM47.4395 63.8818H51.418V61.4209H47.4395V63.8818ZM65.0488 71.7295H63.9824V64.7979H71.584V70.1162C71.584 71.1006 71.0781 71.5973 70.0664 71.6064C69.5286 71.6156 68.8405 71.6201 68.002 71.6201C67.9564 71.3285 67.888 70.9775 67.7969 70.5674C68.5898 70.6221 69.237 70.6494 69.7383 70.6494C70.2578 70.6494 70.5176 70.4124 70.5176 69.9385V69.2549H65.0488V71.7295ZM62.7793 63.1025H67.1953V62.1592H63.6953V61.2979H67.1953V60.3818H63.2168V59.5205H67.1953V58.29H68.3027V59.5205H72.4727V60.3818H68.3027V61.2979H72.1172V62.1592H68.3027V63.1025H72.7461V63.9639H62.7793V63.1025ZM63.4492 68.3525C63.4766 68.8083 63.5085 69.2048 63.5449 69.542C62.5605 70.1982 61.7266 70.7907 61.043 71.3193L60.4141 70.417C60.724 70.1253 60.8789 69.7288 60.8789 69.2275V64.0596H59.2109V63.0615H61.918V69.4326C62.4284 69.0863 62.9388 68.7262 63.4492 68.3525ZM70.5176 65.6729H65.0488V66.6162H70.5176V65.6729ZM65.0488 68.4072H70.5176V67.4639H65.0488V68.4072ZM60.7559 58.7549C61.5033 59.4932 62.1641 60.1813 62.7383 60.8193L61.7812 61.6123C61.1523 60.8011 60.5371 60.0811 59.9355 59.4521L60.7559 58.7549Z" fill="black" fill-opacity="0.85"/>
<defs>
<linearGradient id="paint0_linear_703_666" x1="20" y1="0" x2="70" y2="50" gradientUnits="userSpaceOnUse">
<stop stop-color="#F8C21F"/>
<stop offset="1" stop-color="#FAD66B"/>
</linearGradient>
</defs>
</svg>
