<svg width="90" height="73" viewBox="0 0 90 73" fill="none" xmlns="http://www.w3.org/2000/svg">
<rect x="19.8" width="50" height="50" rx="6" fill="url(#paint0_linear_703_672)"/>
<path d="M34.1387 20.5896H39.9599C40.3424 20.595 40.7221 20.5303 41.0765 20.3994C41.431 20.2685 41.753 20.0741 42.0234 19.8276C42.2939 19.5812 42.5073 19.2878 42.6509 18.9647C42.7945 18.6417 42.8655 18.2957 42.8596 17.9472V12.6427C42.8655 12.2942 42.7945 11.9482 42.6509 11.6252C42.5073 11.3022 42.2939 11.0087 42.0234 10.7623C41.753 10.5158 41.431 10.3214 41.0765 10.1905C40.7221 10.0596 40.3424 9.99495 39.9599 10.0003H34.1387C33.7563 9.99495 33.3766 10.0596 33.0221 10.1905C32.6676 10.3214 32.3456 10.5158 32.0752 10.7623C31.8048 11.0087 31.5914 11.3022 31.4477 11.6252C31.3041 11.9482 31.2331 12.2942 31.239 12.6427V17.9472C31.2447 18.6464 31.552 19.3155 32.0946 19.8099C32.6372 20.3043 33.3714 20.5844 34.1387 20.5896ZM33.1794 12.6427C33.1732 12.5264 33.1937 12.4102 33.2397 12.3015C33.2857 12.1929 33.3562 12.0942 33.4465 12.0119C33.5369 11.9296 33.6451 11.8654 33.7644 11.8235C33.8836 11.7815 34.0111 11.7628 34.1387 11.7685H39.9599C40.0876 11.7628 40.2151 11.7815 40.3343 11.8235C40.4535 11.8654 40.5618 11.9296 40.6521 12.0119C40.7425 12.0942 40.8129 12.1929 40.8589 12.3015C40.9049 12.4102 40.9255 12.5264 40.9192 12.6427V17.9472C40.9255 18.0635 40.9049 18.1798 40.8589 18.2884C40.8129 18.397 40.7425 18.4957 40.6521 18.578C40.5618 18.6603 40.4535 18.7245 40.3343 18.7665C40.2151 18.8084 40.0876 18.8271 39.9599 18.8214H34.1387C34.0111 18.8271 33.8836 18.8084 33.7644 18.7665C33.6451 18.7245 33.5369 18.6603 33.4465 18.578C33.3562 18.4957 33.2857 18.397 33.2397 18.2884C33.1937 18.1798 33.1732 18.0635 33.1794 17.9472V12.6427ZM56.0282 29.4107H49.1605C48.5436 29.4159 47.9535 29.6415 47.5172 30.0391C47.081 30.4366 46.8334 30.9743 46.8277 31.5365V37.8941C46.839 38.4528 47.0891 38.9855 47.5248 39.3787C47.9604 39.772 48.5473 39.9949 49.1605 40H56.1373C56.7542 39.9948 57.3443 39.7692 57.7805 39.3716C58.2168 38.9741 58.4644 38.4364 58.4701 37.8742V31.5166C58.4644 30.9544 58.2168 30.4167 57.7805 30.0192C57.3443 29.6217 56.7542 29.396 56.1373 29.3908L56.0282 29.4107ZM56.3117 23.7684H54.9599L57.38 27.563L59.8 23.7684H58.2521C57.9176 20.726 56.3573 17.9046 53.8726 15.8496C51.388 13.7946 48.1555 12.652 44.8 12.6427V14.4109C47.6412 14.4298 50.3778 15.3896 52.4998 17.1112C54.6218 18.8329 55.9844 21.199 56.3335 23.7684H56.3117ZM33.2666 26.3313H34.6184L32.2201 22.5366L29.8 26.3313H31.348C31.703 29.3575 33.2729 32.1574 35.756 34.1927C38.2391 36.2281 41.4602 37.3553 44.8 37.3576V35.5894C41.9702 35.5905 39.2372 34.6507 37.1137 32.9461C34.9903 31.2416 33.6223 28.8895 33.2666 26.3313Z" fill="white"/>
<path d="M50.5319 34.6667H48.6881L46.6803 31.3073C46.2793 30.6354 45.9121 30.1797 45.5787 29.9401C45.2454 29.6953 44.847 29.5729 44.3834 29.5729H43.2584V34.6667H41.6959V22.5651H45.3834C46.5605 22.5651 47.4824 22.849 48.149 23.4167C48.8157 23.9844 49.149 24.7786 49.149 25.7995C49.149 27.4766 48.2532 28.5651 46.4615 29.0651V29.1042C46.7949 29.2448 47.0813 29.4453 47.3209 29.7057C47.5657 29.9661 47.8808 30.4115 48.2662 31.0417L50.5319 34.6667ZM43.2584 23.9323V28.2057H45.1022C45.8157 28.2057 46.3938 27.9974 46.8365 27.5807C47.2845 27.1641 47.5084 26.6172 47.5084 25.9401C47.5084 25.3099 47.3053 24.8177 46.899 24.4635C46.4928 24.1094 45.9017 23.9323 45.1256 23.9323H43.2584Z" fill="white"/>
<path d="M23.3616 70H17.6672V59.4111H23.1223V60.6279H19.0344V64.0186H22.8215V65.2285H19.0344V68.79H23.3616V70ZM34.012 70H32.3918L27.0667 61.7627C26.9163 61.5303 26.7955 61.3001 26.7043 61.0723H26.6633C26.6998 61.3092 26.718 61.8037 26.718 62.5557V70H25.3645V59.4111H27.0803L32.262 67.5049C32.5081 67.8877 32.6539 68.1315 32.6995 68.2363H32.7268C32.6812 67.9355 32.6584 67.4206 32.6584 66.6914V59.4111H34.012V70ZM44.4846 70H42.8713L41.1145 67.0605C40.7636 66.4727 40.4423 66.0739 40.1506 65.8643C39.859 65.6501 39.5103 65.543 39.1047 65.543H38.1204V70H36.7532V59.4111H39.9797C41.0097 59.4111 41.8163 59.6595 42.3997 60.1562C42.983 60.653 43.2747 61.348 43.2747 62.2412C43.2747 63.7087 42.4908 64.6611 40.9231 65.0986V65.1328C41.2148 65.2559 41.4654 65.4313 41.675 65.6592C41.8892 65.887 42.165 66.2767 42.5022 66.8281L44.4846 70ZM38.1204 60.6074V64.3467H39.7336C40.358 64.3467 40.8639 64.1644 41.2512 63.7998C41.6431 63.4352 41.8391 62.9567 41.8391 62.3643C41.8391 61.8128 41.6614 61.3822 41.3059 61.0723C40.9504 60.7624 40.4332 60.6074 39.7542 60.6074H38.1204ZM45.9817 60.4639H50.9993V58.3857H52.0657V60.4639H57.1106V69.0908H56.0715V68.2568H52.0657V71.8662H50.9993V68.2568H47.0208V69.0908H45.9817V60.4639ZM52.0657 67.2998H56.0715V64.8115H52.0657V67.2998ZM47.0208 67.2998H50.9993V64.8115H47.0208V67.2998ZM56.0715 61.4209H52.0657V63.8818H56.0715V61.4209ZM47.0208 63.8818H50.9993V61.4209H47.0208V63.8818ZM64.6301 71.7295H63.5637V64.7979H71.1653V70.1162C71.1653 71.1006 70.6594 71.5973 69.6477 71.6064C69.1099 71.6156 68.4218 71.6201 67.5833 71.6201C67.5377 71.3285 67.4693 70.9775 67.3782 70.5674C68.1711 70.6221 68.8183 70.6494 69.3196 70.6494C69.8391 70.6494 70.0989 70.4124 70.0989 69.9385V69.2549H64.6301V71.7295ZM62.3606 63.1025H66.7766V62.1592H63.2766V61.2979H66.7766V60.3818H62.7981V59.5205H66.7766V58.29H67.884V59.5205H72.054V60.3818H67.884V61.2979H71.6985V62.1592H67.884V63.1025H72.3274V63.9639H62.3606V63.1025ZM63.0305 68.3525C63.0579 68.8083 63.0898 69.2048 63.1262 69.542C62.1418 70.1982 61.3079 70.7907 60.6243 71.3193L59.9954 70.417C60.3053 70.1253 60.4602 69.7288 60.4602 69.2275V64.0596H58.7922V63.0615H61.4993V69.4326C62.0097 69.0863 62.5201 68.7262 63.0305 68.3525ZM70.0989 65.6729H64.6301V66.6162H70.0989V65.6729ZM64.6301 68.4072H70.0989V67.4639H64.6301V68.4072ZM60.3372 58.7549C61.0846 59.4932 61.7454 60.1813 62.3196 60.8193L61.3625 61.6123C60.7336 60.8011 60.1184 60.0811 59.5168 59.4521L60.3372 58.7549Z" fill="black" fill-opacity="0.85"/>
<defs>
<linearGradient id="paint0_linear_703_672" x1="19.8" y1="0" x2="74.0612" y2="44.844" gradientUnits="userSpaceOnUse">
<stop stop-color="#0565F4"/>
<stop offset="1" stop-color="#3DC1ED"/>
<stop offset="1" stop-color="#5395F8"/>
</linearGradient>
</defs>
</svg>
