<svg width="163" height="163" viewBox="0 0 163 163" fill="none" xmlns="http://www.w3.org/2000/svg">
<path d="M158.613 107.877C162.776 95.7082 163.999 82.7265 162.184 69.9937C160.368 57.261 155.564 45.1388 148.166 34.6182C140.768 24.0976 130.984 15.4774 119.616 9.46233C108.248 3.44724 95.6171 0.208081 82.7571 0.00969587C69.8971 -0.18869 57.1727 2.65933 45.6243 8.32089C34.0758 13.9825 24.0313 22.2968 16.3119 32.5842C8.59244 42.8715 3.41732 54.8398 1.20963 67.5105C-0.998061 80.1811 -0.175641 93.1944 3.60965 105.486L11.3987 103.088C7.99192 92.025 7.25175 80.313 9.23867 68.9094C11.2256 57.5058 15.8832 46.7344 22.8307 37.4758C29.7782 28.2171 38.8183 20.7342 49.2118 15.6388C59.6054 10.5434 71.0574 7.98018 82.6314 8.15873C94.2054 8.33727 105.573 11.2525 115.804 16.6661C126.036 22.0797 134.841 29.8379 141.499 39.3064C148.158 48.7749 152.481 59.6849 154.115 71.1444C155.75 82.6038 154.648 94.2874 150.902 105.24L158.613 107.877Z" fill="url(#paint0_linear_737_1542)"/>
<path d="M56.957 77.7812C56.957 76.9089 57.2174 76.1048 57.7383 75.3691C58.2591 74.6335 58.9297 74.1094 59.75 73.7969C59.0924 73.4258 58.5716 72.9505 58.1875 72.3711C57.8034 71.7917 57.6113 71.1634 57.6113 70.4863C57.6113 69.7702 57.7936 69.1159 58.1582 68.5234C58.5293 67.931 59.0404 67.4655 59.6914 67.127C60.349 66.7884 61.0716 66.6191 61.8594 66.6191C62.6536 66.6191 63.3796 66.7884 64.0371 67.127C64.6947 67.459 65.2057 67.9212 65.5703 68.5137C65.9349 69.1061 66.1172 69.7637 66.1172 70.4863C66.1172 71.1504 65.9284 71.7754 65.5508 72.3613C65.1797 72.9408 64.6621 73.4193 63.998 73.7969C64.8184 74.1159 65.4857 74.6432 66 75.3789C66.5143 76.1146 66.7715 76.9154 66.7715 77.7812C66.7715 78.6406 66.5664 79.4121 66.1562 80.0957C65.7461 80.7728 65.1634 81.3001 64.4082 81.6777C63.653 82.0553 62.8034 82.2441 61.8594 82.2441C60.9219 82.2441 60.0788 82.0553 59.3301 81.6777C58.5814 81.3001 57.9987 80.7695 57.582 80.0859C57.1654 79.4023 56.957 78.6341 56.957 77.7812ZM58.832 77.6934C58.832 78.5918 59.1087 79.3112 59.6621 79.8516C60.2155 80.3919 60.9512 80.6621 61.8691 80.6621C62.7676 80.6621 63.5 80.3887 64.0664 79.8418C64.6393 79.2884 64.9258 78.5723 64.9258 77.6934C64.9258 76.86 64.6361 76.1602 64.0566 75.5938C63.4837 75.0208 62.7546 74.7344 61.8691 74.7344C60.9902 74.7344 60.2643 75.0143 59.6914 75.5742C59.1185 76.1276 58.832 76.834 58.832 77.6934ZM59.3789 70.6426C59.3789 71.3197 59.6198 71.9023 60.1016 72.3906C60.5833 72.8724 61.1725 73.1133 61.8691 73.1133C62.5527 73.1133 63.1419 72.8691 63.6367 72.3809C64.138 71.8926 64.3887 71.3132 64.3887 70.6426C64.3887 69.959 64.1478 69.3796 63.666 68.9043C63.1908 68.429 62.5918 68.1914 61.8691 68.1914C61.153 68.1914 60.5573 68.4258 60.082 68.8945C59.6133 69.3568 59.3789 69.9395 59.3789 70.6426ZM78.5684 82H76.6641V75.7891C76.6641 73.6146 75.8568 72.5273 74.2422 72.5273C73.4154 72.5273 72.7285 72.8464 72.1816 73.4844C71.6348 74.1159 71.3613 74.9134 71.3613 75.877V82H69.4473V66.0137H71.3613V72.9766H71.4004C72.2272 71.6224 73.4023 70.9453 74.9258 70.9453C77.3542 70.9453 78.5684 72.4134 78.5684 75.3496V82ZM88.7832 66.873L81.5273 84.5098H79.7402L86.9961 66.873H88.7832ZM88.8906 83.1035C93.7669 81.0267 96.6055 78.1361 97.4062 74.4316H89.1445V72.9473H97.6113C97.6699 72.0228 97.6992 70.4277 97.6992 68.1621H90.2188V66.6777H107.094V68.1621H99.418C99.4049 69.5228 99.3789 71.1178 99.3398 72.9473H108.09V74.4316H99.6035C100.847 78.5592 103.767 81.3197 108.363 82.7129C107.829 83.3509 107.38 83.8913 107.016 84.334C102.771 82.6217 99.9779 79.793 98.6367 75.8477C97.6081 79.5195 94.763 82.4329 90.1016 84.5879C89.8281 84.2363 89.4245 83.7415 88.8906 83.1035Z" fill="black"/>
<path d="M22.3906 123.115H25.2617L26.1406 118.232H39.0508C38.9792 119.977 38.9108 121.605 38.8457 123.115H41.6875V124.521H38.7871C38.7285 125.798 38.6732 126.982 38.6211 128.076H40.9844V129.443H38.5137C38.3835 130.394 38.1198 131.084 37.7227 131.514C37.2148 132.074 36.3294 132.354 35.0664 132.354C34.3372 132.354 33.4062 132.327 32.2734 132.275C32.2083 131.833 32.1107 131.305 31.9805 130.693C33.3216 130.811 34.2852 130.869 34.8711 130.869C35.6914 130.869 36.2318 130.713 36.4922 130.4C36.668 130.218 36.8014 129.899 36.8926 129.443H24.3828V127.979L25.0078 124.521H22.3906V123.115ZM37.2051 124.521H26.5996L25.9844 128.076H37.0391C37.1042 126.917 37.1595 125.732 37.2051 124.521ZM37.3906 119.6H27.4688L26.8535 123.115H37.2734C37.3125 121.969 37.3516 120.798 37.3906 119.6ZM22.3125 118.994C24.2396 117.354 25.75 115.439 26.8438 113.252H28.6016C28.2956 113.857 27.9733 114.437 27.6348 114.99H41.2383V116.396H26.7168C25.7012 117.842 24.5586 119.111 23.2891 120.205C23.0156 119.827 22.6901 119.424 22.3125 118.994ZM30.1836 120.693L31.1016 119.678C32.0911 120.446 32.9635 121.156 33.7188 121.807L32.6641 122.979C31.8568 122.184 31.0299 121.423 30.1836 120.693ZM30.0273 125.654L30.9453 124.639C31.9349 125.407 32.8073 126.117 33.5625 126.768L32.5273 127.92C31.5247 126.982 30.6914 126.227 30.0273 125.654ZM45.0469 114.658H58.9727V132.393H57.3125V131.006H46.707V132.393H45.0469V114.658ZM46.707 123.428V129.58H57.3125V123.428H46.707ZM46.707 116.123V121.963H57.3125V116.123H46.707ZM62.5664 129.697H71.1211V116.67H63.6797V115.107H80.3203V116.67H72.8398V129.697H81.4141V131.221H62.5664V129.697ZM87.6445 121.299C89.3763 118.929 90.6523 116.286 91.4727 113.369L93.0742 113.662C92.7682 114.665 92.4232 115.635 92.0391 116.572H101.668V117.939H94.5586V121.357H100.887V122.725H94.5586V126.279H101.141V127.646H94.5586V132.568H93.0352V117.939H91.4434C90.7077 119.528 89.8516 121.019 88.875 122.412C88.5104 122.061 88.1003 121.689 87.6445 121.299ZM82.2148 123.096C84.0508 120.374 85.5026 117.152 86.5703 113.428L88.1719 113.896C87.6706 115.433 87.1367 116.875 86.5703 118.223V132.568H85.0469V121.406C84.3893 122.637 83.6927 123.76 82.957 124.775C82.7617 124.281 82.5143 123.721 82.2148 123.096ZM103.074 115.225H109.812V131.143H108.27V129.521H104.617V131.377H103.074V115.225ZM110.457 117.686H117.391V113.369H118.953V117.686H121.727V119.131H118.953V129.639C118.953 131.383 118.12 132.256 116.453 132.256C115.698 132.256 114.591 132.236 113.133 132.197C113.068 131.729 112.964 131.182 112.82 130.557C114.188 130.661 115.255 130.713 116.023 130.713C116.935 130.713 117.391 130.251 117.391 129.326V119.131H110.457V117.686ZM104.617 128.076H108.27V123.018H104.617V128.076ZM108.27 116.67H104.617V121.611H108.27V116.67ZM112.645 121.006C113.686 122.907 114.474 124.424 115.008 125.557C114.669 125.713 114.148 125.973 113.445 126.338C112.938 125.101 112.208 123.558 111.258 121.709L112.645 121.006ZM122.527 121.357H125.965V113.389H127.566V121.357H141.355V122.881H132.801C134.428 126.449 137.417 128.903 141.766 130.244C141.323 130.83 140.926 131.364 140.574 131.846C135.893 130.062 132.749 127.074 131.141 122.881H127.566V129.951C129.051 129.352 130.626 128.662 132.293 127.881C132.293 128.493 132.319 129.079 132.371 129.639C130.822 130.277 129.337 130.947 127.918 131.65C127.397 131.937 126.915 132.256 126.473 132.607L125.301 131.104C125.743 130.752 125.965 130.277 125.965 129.678V122.881H122.527V121.357ZM128.738 118.975C131.967 117.894 135.073 116.247 138.055 114.033L139.07 115.303C136.023 117.529 132.833 119.235 129.5 120.42C129.292 119.977 129.038 119.495 128.738 118.975Z" fill="black"/>
<defs>
<linearGradient id="paint0_linear_737_1542" x1="-0.278564" y1="81.0821" x2="162.721" y2="81.0821" gradientUnits="userSpaceOnUse">
<stop stop-color="#109AF9"/>
<stop offset="1" stop-color="#6ABCF4"/>
</linearGradient>
</defs>
</svg>
