<svg width="90" height="73" viewBox="0 0 90 73" fill="none" xmlns="http://www.w3.org/2000/svg">
<rect x="20.2001" width="50" height="50" rx="6" fill="url(#paint0_linear_703_640)"/>
<path d="M45.3328 24.1145V14.4275C45.3328 13.9244 44.9195 13.5152 44.4122 13.5152C43.9049 13.5152 43.4916 13.9244 43.4916 14.4275V23.2021H36.4359C35.9286 23.2021 35.5153 23.6114 35.5153 24.1145C35.5153 24.6176 35.9286 25.0268 36.4359 25.0268H44.4122C44.9195 25.0268 45.3328 24.6176 45.3328 24.1145ZM51.0244 18.57L52.2977 17.3021L51.0244 16.0342L49.751 17.3021L51.0244 18.57ZM43.8141 36.364L43.8041 36.3473H43.7839C37.1986 36.0219 32.0379 30.6384 32.0379 24.0944C32.0379 17.3289 37.5884 11.828 44.4088 11.828C51.1084 11.828 56.6554 17.2283 56.7764 23.8663V23.8864L56.7932 23.8965C57.4148 24.2453 57.996 24.6612 58.5235 25.1409L58.5773 25.1878L58.584 25.1174C58.6075 24.7786 58.6209 24.4331 58.6209 24.0944C58.6209 22.1925 58.2446 20.3444 57.5021 18.6069C56.7865 16.9298 55.7617 15.4204 54.4581 14.1257C53.1612 12.8377 51.6291 11.8113 49.9391 11.1069C48.1853 10.3723 46.3239 10 44.4055 10C42.487 10 40.6257 10.3723 38.8718 11.1069C37.1852 11.8146 35.6497 12.8377 34.3528 14.1257C33.0492 15.4204 32.0245 16.9264 31.3055 18.6069C30.5764 20.3444 30.2001 22.1925 30.2001 24.0944C30.2001 25.9962 30.5764 27.841 31.3155 29.5785C32.0312 31.2556 33.0559 32.765 34.3596 34.0597C35.6565 35.3477 37.1885 36.3741 38.8785 37.0785C40.6324 37.8131 42.4937 38.1854 44.4122 38.1854C44.6037 38.1854 44.7986 38.182 44.9867 38.1753L45.0573 38.172L45.0102 38.1183C44.5499 37.5816 44.1468 36.9946 43.8141 36.364ZM57.8482 26.4121C56.3329 24.9094 54.317 24.0809 52.1734 24.0809C50.0298 24.0809 48.0139 24.9094 46.4987 26.4121C44.9834 27.9148 44.1468 29.9139 44.1468 32.0405C44.1468 34.167 44.98 36.1628 46.4987 37.6688C48.0139 39.1715 50.0298 40 52.1734 40C54.317 40 56.3329 39.1715 57.8482 37.6688C59.3635 36.1661 60.2001 34.167 60.2001 32.0405C60.1967 29.9139 59.3635 27.9148 57.8482 26.4121ZM52.1734 38.1485C48.7766 38.1485 46.0148 35.4081 46.0148 32.0405C46.0148 28.6729 48.7766 25.9325 52.1734 25.9325C55.5702 25.9325 58.332 28.6729 58.332 32.0405C58.332 35.4081 55.5702 38.1485 52.1734 38.1485ZM38.8718 17.3491L37.5716 16.0577L36.2679 17.3491L37.5716 18.6404L38.8718 17.3491ZM37.4271 31.3663L38.7005 30.0984L37.4271 28.8305L36.1537 30.0984L37.4271 31.3663ZM53.1612 28.0188H51.3872V31.0879H48.1315V32.8455H51.3872V36.3305H53.1612V32.8455H56.2859V31.0879H53.1612V28.0188Z" fill="white"/>
<path d="M25.2118 60.1904H30.4071V71.4561H29.327V70.0752H26.2919V71.4561H25.2118V60.1904ZM17.7059 60.8604H19.6132C19.6223 60.1266 19.6246 59.3109 19.62 58.4131H20.7001C20.7001 59.32 20.6955 60.1357 20.6864 60.8604H23.8719C23.8264 64.3604 23.7671 67.1084 23.6942 69.1045C23.6578 70.7451 23.038 71.5335 21.8348 71.4697C21.4794 71.4697 20.9553 71.4561 20.2626 71.4287C20.1988 71.0459 20.1259 70.6494 20.0438 70.2393C20.6818 70.3213 21.2014 70.3623 21.6024 70.3623C22.2131 70.3805 22.5458 69.9476 22.6005 69.0635C22.7007 66.9033 22.76 64.5153 22.7782 61.8994H20.6727C20.6636 62.5967 20.6499 63.1891 20.6317 63.6768C20.5953 67.2406 19.7385 69.984 18.0614 71.9072C17.8335 71.6247 17.5647 71.3193 17.2548 70.9912C18.7678 69.3324 19.538 66.8577 19.5653 63.5674C19.5835 63.0889 19.5972 62.5329 19.6063 61.8994H17.7059V60.8604ZM29.327 61.2021H26.2919V69.0908H29.327V61.2021ZM39.1844 70.1025H41.5634V65.3174H39.704V64.333H41.5634V60.4229H39.6083V59.4385H44.5712V60.4229H42.5751V64.333H44.4891V65.3174H42.5751V70.1025H44.954V71.0869H39.1844V70.1025ZM31.4325 69.2822C32.0751 69.2093 32.7268 69.1296 33.3876 69.043V64.7295H31.6102V63.7178H33.3876V60.5049H31.4735V59.4932H36.2587V60.5049H34.3856V63.7178H36.0262V64.7295H34.3856V68.9062C35.0191 68.8151 35.6617 68.7171 36.3134 68.6123C36.2769 68.9769 36.2541 69.3232 36.245 69.6514C34.8596 69.861 33.301 70.1071 31.5692 70.3896L31.4325 69.2822ZM38.1591 58.7002H39.1434C39.1434 60.9059 39.1298 62.9339 39.1024 64.7842C39.066 67.8923 38.2775 70.2575 36.7372 71.8799C36.5002 71.6338 36.2085 71.3923 35.8622 71.1553C37.3387 69.7334 38.0907 67.5869 38.118 64.7158C38.1454 63.4762 38.1591 61.471 38.1591 58.7002ZM36.4091 61.0518H37.3251C37.316 62.8747 37.2476 64.7295 37.12 66.6162C36.801 66.6071 36.4956 66.6025 36.204 66.6025C36.3225 64.9984 36.3908 63.1481 36.4091 61.0518ZM46.6493 60.4639H51.6669V58.3857H52.7333V60.4639H57.7782V69.0908H56.7391V68.2568H52.7333V71.8662H51.6669V68.2568H47.6884V69.0908H46.6493V60.4639ZM52.7333 67.2998H56.7391V64.8115H52.7333V67.2998ZM47.6884 67.2998H51.6669V64.8115H47.6884V67.2998ZM56.7391 61.4209H52.7333V63.8818H56.7391V61.4209ZM47.6884 63.8818H51.6669V61.4209H47.6884V63.8818ZM65.2977 71.7295H64.2313V64.7979H71.8329V70.1162C71.8329 71.1006 71.327 71.5973 70.3153 71.6064C69.7775 71.6156 69.0894 71.6201 68.2509 71.6201C68.2053 71.3285 68.1369 70.9775 68.0458 70.5674C68.8387 70.6221 69.4859 70.6494 69.9872 70.6494C70.5067 70.6494 70.7665 70.4124 70.7665 69.9385V69.2549H65.2977V71.7295ZM63.0282 63.1025H67.4442V62.1592H63.9442V61.2979H67.4442V60.3818H63.4657V59.5205H67.4442V58.29H68.5516V59.5205H72.7216V60.3818H68.5516V61.2979H72.3661V62.1592H68.5516V63.1025H72.995V63.9639H63.0282V63.1025ZM63.6981 68.3525C63.7255 68.8083 63.7574 69.2048 63.7938 69.542C62.8094 70.1982 61.9755 70.7907 61.2919 71.3193L60.663 70.417C60.9729 70.1253 61.1278 69.7288 61.1278 69.2275V64.0596H59.4598V63.0615H62.1669V69.4326C62.6773 69.0863 63.1877 68.7262 63.6981 68.3525ZM70.7665 65.6729H65.2977V66.6162H70.7665V65.6729ZM65.2977 68.4072H70.7665V67.4639H65.2977V68.4072ZM61.0048 58.7549C61.7522 59.4932 62.413 60.1813 62.9872 60.8193L62.0302 61.6123C61.4012 60.8011 60.786 60.0811 60.1844 59.4521L61.0048 58.7549Z" fill="black" fill-opacity="0.85"/>
<defs>
<linearGradient id="paint0_linear_703_640" x1="20.2001" y1="0" x2="70.2001" y2="50" gradientUnits="userSpaceOnUse">
<stop stop-color="#04D194"/>
<stop offset="1" stop-color="#3AE2B0"/>
</linearGradient>
</defs>
</svg>
