<svg width="26" height="25" viewBox="0 0 26 25" fill="none" xmlns="http://www.w3.org/2000/svg">
<rect width="26" height="25" rx="6" fill="#109AF9"/>
<path d="M14.1562 7.78906H20.0938V20.6641H18.8594V19.0859H15.3906V20.6641H14.1562V7.78906ZM5.57812 8.55469H7.75781C7.76823 7.71615 7.77083 6.78385 7.76562 5.75781H9C9 6.79427 8.99479 7.72656 8.98438 8.55469H12.625C12.5729 12.5547 12.5052 15.6953 12.4219 17.9766C12.3802 19.8516 11.6719 20.7526 10.2969 20.6797C9.89062 20.6797 9.29167 20.6641 8.5 20.6328C8.42708 20.1953 8.34375 19.7422 8.25 19.2734C8.97917 19.3672 9.57292 19.4141 10.0312 19.4141C10.7292 19.4349 11.1094 18.9401 11.1719 17.9297C11.2865 15.4609 11.3542 12.7318 11.375 9.74219H8.96875C8.95833 10.5391 8.94271 11.2161 8.92188 11.7734C8.88021 15.8464 7.90104 18.9818 5.98438 21.1797C5.72396 20.8568 5.41667 20.5078 5.0625 20.1328C6.79167 18.237 7.67188 15.4089 7.70312 11.6484C7.72396 11.1016 7.73958 10.4661 7.75 9.74219H5.57812V8.55469ZM18.8594 8.94531H15.3906V17.9609H18.8594V8.94531Z" fill="white"/>
</svg>
