<svg width="90" height="73" viewBox="0 0 90 73" fill="none" xmlns="http://www.w3.org/2000/svg">
<rect x="20.2001" width="50" height="50" rx="6" fill="url(#paint0_linear_703_660)"/>
<path d="M57.7184 10H32.5053C31.2374 10 30.2001 10.9701 30.2001 12.1558V37.8441C30.2001 39.0299 31.2374 40 32.5053 40H42.1619L39.9756 37.8441H32.5089L32.5053 37.8408V12.1592L32.5089 12.1558H57.7148L57.7184 12.1592V24.0332L60.0236 26.307V12.1558C60.0236 10.9701 58.9862 10 57.7184 10Z" fill="white"/>
<path d="M54.0552 16.9728H36.1683C35.5308 16.9728 35.0157 17.4545 35.0157 18.0507C35.0157 18.647 35.5308 19.1287 36.1683 19.1287H54.0588C54.6964 19.1287 55.2114 18.647 55.2114 18.0507C55.2114 17.4545 54.6928 16.9728 54.0552 16.9728ZM43.97 21.2845H36.1683C35.5308 21.2845 35.0157 21.7662 35.0157 22.3624C35.0157 22.9587 35.5308 23.4404 36.1683 23.4404H43.97C44.6075 23.4404 45.1226 22.9587 45.1226 22.3624C45.1226 21.7662 44.6075 21.2845 43.97 21.2845ZM59.7966 29.369L56.4685 26.2565C56.0183 25.8354 55.2871 25.8354 54.8369 26.2565C54.3866 26.6775 54.3866 27.3613 54.8369 27.7824L56.5333 29.369H42.025C41.3875 29.369 40.8724 29.8507 40.8724 30.4469C40.8724 31.0431 41.3875 31.5248 42.025 31.5248H58.8421L58.8457 31.5282C60.0488 31.5248 60.6467 30.1639 59.7966 29.369ZM41.2722 35.8466L44.6003 38.9591C45.0506 39.3802 45.7817 39.3802 46.232 38.9591C46.6822 38.5381 46.6822 37.8543 46.232 37.4332L44.5355 35.8466H59.0474C59.685 35.8466 60.2 35.3649 60.2 34.7687C60.2 34.1725 59.685 33.6908 59.0474 33.6908H42.2267L42.2231 33.6874C41.0201 33.6908 40.4222 35.0516 41.2722 35.8466Z" fill="white"/>
<path d="M10.3778 68.79C10.7242 68.7354 11.0705 68.6784 11.4169 68.6191V60.3135H10.5282V59.3564H16.4344V60.3135H15.4091V67.915C15.8238 67.8376 16.2385 67.7601 16.6532 67.6826C16.6714 68.0563 16.7033 68.3753 16.7489 68.6396C16.316 68.7262 15.8693 68.8151 15.4091 68.9062V71.7979H14.411V69.1113C13.2398 69.3483 11.982 69.6058 10.6376 69.8838L10.3778 68.79ZM15.8876 64.7568H19.0458C19.0822 64.0915 19.0982 63.2666 19.0936 62.2822H16.2704V61.2705H19.9618C20.3719 60.6143 20.9097 59.6527 21.5751 58.3857L22.6415 58.8916C22.0764 59.7712 21.55 60.5641 21.0624 61.2705H23.3524V62.2822H20.1532C20.1532 63.2712 20.1372 64.096 20.1053 64.7568H23.8173V65.7686H20.2421C20.9393 67.9469 22.1949 69.5648 24.0087 70.6221C23.6805 70.9502 23.3889 71.292 23.1337 71.6475C21.5158 70.4215 20.3765 68.8857 19.7157 67.04C19.2144 68.9951 18.107 70.5765 16.3934 71.7842C16.1109 71.4287 15.8557 71.1325 15.6278 70.8955C17.5282 69.6969 18.6402 67.988 18.9637 65.7686H15.8876V64.7568ZM14.411 68.0996V66.165H12.4149V68.4482C13.0848 68.3343 13.7502 68.2181 14.411 68.0996ZM12.4149 65.2354H14.411V63.2393H12.4149V65.2354ZM12.4149 62.3096H14.411V60.3135H12.4149V62.3096ZM16.7899 58.9463L17.5829 58.3857C18.1298 59.0055 18.6447 59.6846 19.1278 60.4229L18.2391 61.0381C17.8563 60.4092 17.3733 59.7119 16.7899 58.9463ZM29.1083 62.9111C30.2294 61.3617 31.0679 59.8122 31.6239 58.2627L32.6493 58.6045C32.4716 59.0238 32.287 59.4294 32.0956 59.8213H36.9833V60.792C36.3225 61.9268 35.4839 62.9316 34.4677 63.8066C35.3472 64.3444 36.5275 64.8298 38.0087 65.2627C37.8264 65.5817 37.6441 65.9736 37.4618 66.4385C35.9533 65.9144 34.6636 65.2581 33.5927 64.4697C32.3667 65.3265 31.0087 66.0374 29.5184 66.6025C29.327 66.2926 29.1083 65.9736 28.8622 65.6455C30.2613 65.1715 31.5555 64.5426 32.745 63.7588C32.066 63.1208 31.5259 62.4212 31.1249 61.6602C30.7102 62.3665 30.2749 63.0251 29.8192 63.6357C29.646 63.4352 29.4091 63.1937 29.1083 62.9111ZM30.161 66.5342H36.9149V71.8525H35.8622V71.1689H31.2137V71.8525H30.161V66.5342ZM26.1688 66.4658C27.1167 66.3747 28.0145 66.2699 28.8622 66.1514C28.8257 66.5615 28.7938 66.8714 28.7665 67.0811C27.1532 67.2816 25.8863 67.4502 24.9657 67.5869L24.7469 66.5889C25.271 66.2061 26.0048 65.1989 26.9481 63.5674C26.0777 63.6266 25.3713 63.6813 24.829 63.7314L24.5555 62.8291C25.4305 61.4893 26.1734 60.0173 26.7841 58.4131L27.8505 58.7959C27.2398 60.0993 26.5288 61.4163 25.7177 62.7471C26.0777 62.7471 26.6473 62.738 27.4266 62.7197C27.7593 62.1182 28.1148 61.4482 28.493 60.71L29.5048 61.1475C28.411 63.0889 27.299 64.8617 26.1688 66.4658ZM35.8622 67.5186H31.2137V70.1846H35.8622V67.5186ZM35.7391 60.751H31.6786C32.1708 61.6898 32.802 62.4941 33.5721 63.1641C34.4517 62.4577 35.174 61.6533 35.7391 60.751ZM24.5555 69.665C26.0686 69.3734 27.6454 69.0361 29.286 68.6533C29.2496 69.0908 29.2313 69.4372 29.2313 69.6924C27.773 70.0205 26.3147 70.3714 24.8563 70.7451L24.5555 69.665ZM50.0809 71.7842V71.1279H39.2255V61.8584H40.3192V70.1162H50.0809V61.8584H51.1747V71.7842H50.0809ZM44.913 61.79L48.1532 60.0674H40.4149V59.0693H49.7802V60.2041L45.952 62.3232V67.71C45.952 68.8493 45.3915 69.4189 44.2704 69.4189C43.8147 69.4189 43.245 69.4098 42.5614 69.3916C42.5341 69.0817 42.4794 68.7126 42.3973 68.2842C42.9807 68.3571 43.5321 68.3936 44.0516 68.3936C44.6259 68.3936 44.913 68.1201 44.913 67.5732V61.79ZM44.0653 64.8115L44.6259 65.6729C43.5048 66.3109 42.3108 67.0127 41.0438 67.7783L40.4286 66.835C41.5588 66.2881 42.771 65.6136 44.0653 64.8115ZM46.1571 65.6318L46.8134 64.8389C47.8251 65.4678 48.8733 66.1605 49.9579 66.917L49.2196 67.833C48.217 67.0492 47.1962 66.3154 46.1571 65.6318ZM40.8661 62.3779L41.536 61.6396C42.4475 62.2686 43.327 62.9157 44.1747 63.5811L43.4364 64.4287C42.5523 63.6722 41.6955 62.9886 40.8661 62.3779ZM48.9052 61.79L49.6981 62.5283C48.9781 63.139 48.1714 63.7907 47.2782 64.4834L46.5673 63.7041C47.3693 63.1117 48.1486 62.4736 48.9052 61.79ZM53.6493 60.4639H58.6669V58.3857H59.7333V60.4639H64.7782V69.0908H63.7391V68.2568H59.7333V71.8662H58.6669V68.2568H54.6884V69.0908H53.6493V60.4639ZM59.7333 67.2998H63.7391V64.8115H59.7333V67.2998ZM54.6884 67.2998H58.6669V64.8115H54.6884V67.2998ZM63.7391 61.4209H59.7333V63.8818H63.7391V61.4209ZM54.6884 63.8818H58.6669V61.4209H54.6884V63.8818ZM72.2977 71.7295H71.2313V64.7979H78.8329V70.1162C78.8329 71.1006 78.327 71.5973 77.3153 71.6064C76.7775 71.6156 76.0894 71.6201 75.2509 71.6201C75.2053 71.3285 75.1369 70.9775 75.0458 70.5674C75.8387 70.6221 76.4859 70.6494 76.9872 70.6494C77.5067 70.6494 77.7665 70.4124 77.7665 69.9385V69.2549H72.2977V71.7295ZM70.0282 63.1025H74.4442V62.1592H70.9442V61.2979H74.4442V60.3818H70.4657V59.5205H74.4442V58.29H75.5516V59.5205H79.7216V60.3818H75.5516V61.2979H79.3661V62.1592H75.5516V63.1025H79.995V63.9639H70.0282V63.1025ZM70.6981 68.3525C70.7255 68.8083 70.7574 69.2048 70.7938 69.542C69.8094 70.1982 68.9755 70.7907 68.2919 71.3193L67.663 70.417C67.9729 70.1253 68.1278 69.7288 68.1278 69.2275V64.0596H66.4598V63.0615H69.1669V69.4326C69.6773 69.0863 70.1877 68.7262 70.6981 68.3525ZM77.7665 65.6729H72.2977V66.6162H77.7665V65.6729ZM72.2977 68.4072H77.7665V67.4639H72.2977V68.4072ZM68.0048 58.7549C68.7522 59.4932 69.413 60.1813 69.9872 60.8193L69.0302 61.6123C68.4012 60.8011 67.786 60.0811 67.1844 59.4521L68.0048 58.7549Z" fill="black" fill-opacity="0.85"/>
<defs>
<linearGradient id="paint0_linear_703_660" x1="20.2001" y1="0" x2="74.4613" y2="44.844" gradientUnits="userSpaceOnUse">
<stop stop-color="#FC713F"/>
<stop offset="1" stop-color="#F89672"/>
</linearGradient>
</defs>
</svg>
