<svg width="90" height="73" viewBox="0 0 90 73" fill="none" xmlns="http://www.w3.org/2000/svg">
<rect x="20" width="50" height="50" rx="6" fill="url(#paint0_linear_703_645)"/>
<path d="M59.9337 23.8729C59.8953 23.276 59.5947 22.7131 59.0916 22.2957C58.5884 21.8782 57.9192 21.6366 57.2165 21.6187H57.0729C56.8887 21.6658 56.708 21.7222 56.5317 21.7877C56.4654 20.5761 55.7806 19.4208 54.422 19.4208H54.2895C53.9065 19.524 53.5365 19.6593 53.1849 19.8247V19.1296C53.1849 17.8053 52.3786 16.8754 50.9758 16.8754H50.7549C50.0936 16.9288 49.4792 17.1889 49.0303 17.6053C48.5815 18.0217 48.3301 18.5648 48.3249 19.1296C48.0706 19.0376 47.7941 18.999 47.5186 19.0169H47.2204C46.9191 18.9746 46.6102 18.994 46.3195 19.0735C46.0288 19.1529 45.7645 19.2902 45.5485 19.4738C45.3326 19.6574 45.1712 19.8822 45.0778 20.1294C44.9844 20.3766 44.9616 20.6392 45.0113 20.8954V30.8704C44.2007 30.5075 43.3288 30.254 42.4266 30.119C41.3898 30.1341 40.3604 30.2699 39.367 30.5229C38.8343 30.6643 38.3631 30.9371 38.013 31.3067C37.663 31.6763 37.4499 32.1259 37.4009 32.5986C37.4009 34.1014 40.2506 34.6838 41.068 34.7965C45.0113 35.2567 47.2535 40 47.2535 40H56.9404C56.9404 40 59.7901 35.2567 60 33.35C59.9337 33.2937 59.9337 23.8729 59.9337 23.8729ZM58.5751 33.2655C58.0802 35.269 57.1594 37.1788 55.8579 38.9011H48.2365C47.4192 37.6894 44.5694 33.9324 40.5047 33.4627C39.8861 33.4064 38.5938 32.8334 38.5938 32.5986C38.5938 32.3638 39.6984 31.556 39.9635 31.4997C39.9635 31.4997 41.3221 31.4433 42.4708 31.4433C43.3784 31.6715 44.2364 32.0237 45.0113 32.4859L46.3036 33.6412V20.9236C46.3056 20.7045 46.4044 20.4941 46.5804 20.334C46.7563 20.174 46.9966 20.076 47.2535 20.0595H47.386C47.6449 20.0737 47.8879 20.1707 48.0662 20.331C48.2444 20.4913 48.3447 20.703 48.347 20.9236V27.9211H49.7056V18.8478C49.721 18.6314 49.824 18.4261 49.9972 18.2669C50.1703 18.1077 50.4029 18.0043 50.6555 17.9743H50.7881C51.039 17.9957 51.2707 18.0984 51.4351 18.2609C51.5996 18.4235 51.6843 18.6336 51.6717 18.8478V27.9211H53.0303V21.7877C53.0323 21.5686 53.1311 21.3582 53.3071 21.1981C53.483 21.0381 53.7233 20.9401 53.9802 20.9236H54.1238C54.3866 20.9409 54.6334 21.0375 54.8197 21.1959C55.0061 21.3544 55.1197 21.5643 55.14 21.7877V27.9211H56.4986V23.8165C56.5645 23.6212 56.6956 23.4463 56.8759 23.3129C57.0562 23.1796 57.2781 23.0935 57.5148 23.0651H57.6584C57.8897 23.0892 58.1061 23.1748 58.2767 23.3097C58.4473 23.4447 58.5634 23.6221 58.6083 23.8165L58.5751 33.2655ZM46.0606 12.1415H46.2042V10H37.8427V12.0758H46.0606M50.7549 11.7376C51.2377 11.7994 51.6772 12.0093 51.9906 12.3276C52.3039 12.646 52.4694 13.0509 52.4559 13.4659V15.7765H53.8477V13.4659C53.8477 11.8503 52.8977 10.6481 50.7881 10.6481H49.0539V11.7376H50.7549ZM31.3811 29.7714V13.1183C31.4095 12.7287 31.6185 12.3645 31.9623 12.1057C32.306 11.8469 32.7564 11.7145 33.2147 11.7376H35.2581V10.6951H33.2147C32.7753 10.6628 32.333 10.7145 31.9202 10.8462C31.5073 10.978 31.1342 11.1865 30.8283 11.4566C30.5224 11.7266 30.2912 12.0514 30.1518 12.4072C30.0124 12.7629 29.9682 13.1407 30.0225 13.5128V29.4239C30.0225 31.1522 31.1271 32.0257 33.3362 32.0257H35.8656V30.9831H33.6565C32.7066 30.9267 31.4474 30.5792 31.4474 29.7714M47.0436 15.9455V13.4189H42.8022V14.6963H45.0113V15.7577C45.0113 16.077 44.8787 16.2179 44.5032 16.1897H42.8022V17.5141H45.3316C46.5134 17.5141 47.0768 16.9975 47.0436 15.9455ZM42.3824 19.2423H44.5915C44.8544 18.9559 45.1891 18.7229 45.5713 18.5604C45.9534 18.3979 46.3734 18.31 46.8006 18.3031H47.1541V17.9555H42.3824V19.2423Z" fill="white"/>
<path d="M42.2168 20.576H40.0739V19.6368H42.0953V18.3876H40.0739V17.4483H40.7477C41.9517 17.5141 42.515 17.0069 42.4377 15.9173V13.4189H38.0195L38.1299 13.1371H35.9208C35.8942 14.268 35.3516 15.3458 34.4076 16.1427V17.3826C34.7377 17.291 35.0589 17.178 35.3686 17.0444V24.0889H37.3899V15.2317C37.6375 14.7753 37.8228 14.2963 37.9422 13.804C37.9701 13.7034 38.0108 13.6058 38.0637 13.5128V24.0889H40.0739V21.8722H42.2168V20.576ZM40.0739 14.6963H40.814V15.8046C40.814 16.124 40.6814 16.2648 40.3059 16.2367H40.0739V14.6963Z" fill="white"/>
<path d="M43.9066 20.7733C43.9101 20.4119 44.0082 20.0558 44.1938 19.7307L44.1165 19.5804H42.1614C42.4281 20.4084 42.8415 21.1971 43.3875 21.9192C42.9099 22.3052 42.3614 22.6224 41.7638 22.8584V24.0889C42.4996 23.8593 43.2157 23.5863 43.9066 23.2717V20.7733Z" fill="white"/>
<path d="M35.0813 28.1559H38.7043C39.2418 28.1559 39.5106 28.3845 39.5106 28.8416V29.1328C39.5106 29.5899 39.2418 29.8184 38.7043 29.8184H35.0813C34.5438 29.8184 34.275 29.5899 34.275 29.1328V28.8416C34.275 28.3845 34.5438 28.1559 35.0813 28.1559Z" fill="white"/>
<path d="M35.0813 25.8453H42.7469C43.2845 25.8453 43.5532 26.0739 43.5532 26.531V26.8221C43.5532 27.2792 43.2845 27.5078 42.7469 27.5078H35.0813C34.5438 27.5078 34.275 27.2792 34.275 26.8221V26.531C34.275 26.0739 34.5438 25.8453 35.0813 25.8453Z" fill="white"/>
<path d="M23.0977 71.7295H22.0312V64.7979H29.6328V70.1162C29.6328 71.1006 29.127 71.5973 28.1152 71.6064C27.5775 71.6156 26.8893 71.6201 26.0508 71.6201C26.0052 71.3285 25.9368 70.9775 25.8457 70.5674C26.6387 70.6221 27.2858 70.6494 27.7871 70.6494C28.3066 70.6494 28.5664 70.4124 28.5664 69.9385V69.2549H23.0977V71.7295ZM20.8281 63.1025H25.2441V62.1592H21.7441V61.2979H25.2441V60.3818H21.2656V59.5205H25.2441V58.29H26.3516V59.5205H30.5215V60.3818H26.3516V61.2979H30.166V62.1592H26.3516V63.1025H30.7949V63.9639H20.8281V63.1025ZM21.498 68.3525C21.5254 68.8083 21.5573 69.2048 21.5938 69.542C20.6094 70.1982 19.7754 70.7907 19.0918 71.3193L18.4629 70.417C18.7728 70.1253 18.9277 69.7288 18.9277 69.2275V64.0596H17.2598V63.0615H19.9668V69.4326C20.4772 69.0863 20.9876 68.7262 21.498 68.3525ZM28.5664 65.6729H23.0977V66.6162H28.5664V65.6729ZM23.0977 68.4072H28.5664V67.4639H23.0977V68.4072ZM18.8047 58.7549C19.5521 59.4932 20.2129 60.1813 20.7871 60.8193L19.8301 61.6123C19.2012 60.8011 18.5859 60.0811 17.9844 59.4521L18.8047 58.7549ZM39.2305 59.165V63.7861H38.2734V63.3623H36.0723V65.085H38.9297V65.96H36.0723V67.71H39.1074V68.585H36.0723V71.8525H35.0605V59.165H39.2305ZM39.2168 65.3857V64.5381H44.043V65.3584C43.7513 66.8577 43.1885 68.1361 42.3545 69.1934C43.0426 69.8861 43.9108 70.4307 44.959 70.8271C44.6035 71.2373 44.3483 71.5563 44.1934 71.7842C43.1999 71.2692 42.3659 70.6494 41.6914 69.9248C40.8483 70.7497 39.8001 71.4105 38.5469 71.9072C38.3646 71.6338 38.1504 71.3421 37.9043 71.0322C39.1986 70.5765 40.2559 69.959 41.0762 69.1797C40.3105 68.1087 39.8252 66.8441 39.6201 65.3857H39.2168ZM31.1367 65.085C32.3034 63.016 33.1146 60.7783 33.5703 58.3721L34.582 58.5635C34.3496 59.5843 34.0716 60.5664 33.748 61.5098V71.8799H32.791V63.9023C32.4219 64.6953 32.0163 65.4587 31.5742 66.1924C31.4557 65.8369 31.3099 65.4678 31.1367 65.085ZM39.6816 62.46H42.9766V60.0264H39.7637V59.1514H43.9336V63.8545H42.9766V63.335H39.6816V62.46ZM38.2734 60.04H36.0723V62.4873H38.2734V60.04ZM43.0586 65.3857H40.5156C40.7116 66.5843 41.1149 67.6097 41.7256 68.4619C42.4001 67.596 42.8444 66.5706 43.0586 65.3857ZM46.4492 60.4639H51.4668V58.3857H52.5332V60.4639H57.5781V69.0908H56.5391V68.2568H52.5332V71.8662H51.4668V68.2568H47.4883V69.0908H46.4492V60.4639ZM52.5332 67.2998H56.5391V64.8115H52.5332V67.2998ZM47.4883 67.2998H51.4668V64.8115H47.4883V67.2998ZM56.5391 61.4209H52.5332V63.8818H56.5391V61.4209ZM47.4883 63.8818H51.4668V61.4209H47.4883V63.8818ZM65.0977 71.7295H64.0312V64.7979H71.6328V70.1162C71.6328 71.1006 71.127 71.5973 70.1152 71.6064C69.5775 71.6156 68.8893 71.6201 68.0508 71.6201C68.0052 71.3285 67.9368 70.9775 67.8457 70.5674C68.6387 70.6221 69.2858 70.6494 69.7871 70.6494C70.3066 70.6494 70.5664 70.4124 70.5664 69.9385V69.2549H65.0977V71.7295ZM62.8281 63.1025H67.2441V62.1592H63.7441V61.2979H67.2441V60.3818H63.2656V59.5205H67.2441V58.29H68.3516V59.5205H72.5215V60.3818H68.3516V61.2979H72.166V62.1592H68.3516V63.1025H72.7949V63.9639H62.8281V63.1025ZM63.498 68.3525C63.5254 68.8083 63.5573 69.2048 63.5938 69.542C62.6094 70.1982 61.7754 70.7907 61.0918 71.3193L60.4629 70.417C60.7728 70.1253 60.9277 69.7288 60.9277 69.2275V64.0596H59.2598V63.0615H61.9668V69.4326C62.4772 69.0863 62.9876 68.7262 63.498 68.3525ZM70.5664 65.6729H65.0977V66.6162H70.5664V65.6729ZM65.0977 68.4072H70.5664V67.4639H65.0977V68.4072ZM60.8047 58.7549C61.5521 59.4932 62.2129 60.1813 62.7871 60.8193L61.8301 61.6123C61.2012 60.8011 60.5859 60.0811 59.9844 59.4521L60.8047 58.7549Z" fill="black" fill-opacity="0.85"/>
<defs>
<linearGradient id="paint0_linear_703_645" x1="20" y1="0" x2="74.2612" y2="44.844" gradientUnits="userSpaceOnUse">
<stop stop-color="#00D2DF"/>
<stop offset="1" stop-color="#63E4EC"/>
</linearGradient>
</defs>
</svg>
