<svg width="89" height="73" viewBox="0 0 89 73" fill="none" xmlns="http://www.w3.org/2000/svg">
<rect x="19.6" width="50" height="50" rx="6" fill="black" fill-opacity="0.15"/>
<rect x="42.6" y="40" width="30" height="5" transform="rotate(-90 42.6 40)" fill="white"/>
<rect x="29.6" y="22" width="30" height="5" fill="white"/>
<path d="M19.8676 66.165C21.4899 65.2262 22.6293 64.2419 23.2855 63.2119H20.4828V62.2549H23.7504C23.9965 61.6169 24.1742 60.9196 24.2836 60.1631H21.1937V59.2061H29.3969V60.1631H25.35C25.2452 60.9561 25.0948 61.6533 24.8988 62.2549H30.0531V63.2119H26.7992C27.697 64.4743 28.9183 65.3402 30.4633 65.8096C30.1534 66.1559 29.8799 66.5068 29.6429 66.8623C27.8474 65.9873 26.5121 64.7705 25.6371 63.2119H24.5092C23.8073 64.611 22.5017 65.887 20.5922 67.04C20.4008 66.7848 20.1592 66.4932 19.8676 66.165ZM24.2152 65.0166H25.2543V70.1299C25.2543 71.1416 24.7211 71.6475 23.6547 71.6475C23.1078 71.6475 22.6156 71.6429 22.1781 71.6338C22.1234 71.2965 22.0505 70.9274 21.9594 70.5264C22.4242 70.5993 22.8845 70.6357 23.3402 70.6357C23.9235 70.6357 24.2152 70.3577 24.2152 69.8018V65.0166ZM18.432 66.042C18.7875 66.1787 19.1521 66.3109 19.5258 66.4385C19.0609 68.3708 18.6462 70.1299 18.2816 71.7158L17.1058 71.3604C17.5889 69.8018 18.031 68.029 18.432 66.042ZM27.3871 66.7666L28.2484 66.3564C28.9229 67.4229 29.5381 68.512 30.0941 69.624L29.1508 70.0889C28.7041 69.1501 28.1163 68.0426 27.3871 66.7666ZM22.1644 66.4932L23.1215 66.8896C22.6202 68.1475 22.0778 69.2549 21.4945 70.2119C21.1755 70.0479 20.8519 69.902 20.5238 69.7744C21.1892 68.7809 21.736 67.6872 22.1644 66.4932ZM25.6508 67.0674L26.5531 66.7393C26.9541 67.7601 27.337 68.8766 27.7015 70.0889L26.6761 70.4307C26.3845 69.2822 26.0427 68.1611 25.6508 67.0674ZM17.4613 62.0908C18.1176 62.5465 18.9242 63.1663 19.8812 63.9502C19.544 64.333 19.2751 64.6292 19.0746 64.8389C18.1176 63.9639 17.3519 63.3076 16.7777 62.8701L17.4613 62.0908ZM17.9945 58.5361C18.8057 59.1742 19.5941 59.8395 20.3597 60.5322C20.0498 60.8421 19.7764 61.1201 19.5394 61.3662C18.6827 60.5186 17.9353 59.8258 17.2972 59.2881L17.9945 58.5361ZM38.6117 60.1904H43.807V71.4561H42.7269V70.0752H39.6918V71.4561H38.6117V60.1904ZM31.1058 60.8604H33.0131C33.0222 60.1266 33.0245 59.3109 33.0199 58.4131H34.1C34.1 59.32 34.0954 60.1357 34.0863 60.8604H37.2719C37.2263 64.3604 37.167 67.1084 37.0941 69.1045C37.0577 70.7451 36.4379 71.5335 35.2347 71.4697C34.8793 71.4697 34.3552 71.4561 33.6625 71.4287C33.5987 71.0459 33.5258 70.6494 33.4437 70.2393C34.0817 70.3213 34.6013 70.3623 35.0023 70.3623C35.613 70.3805 35.9457 69.9476 36.0004 69.0635C36.1006 66.9033 36.1599 64.5153 36.1781 61.8994H34.0726C34.0635 62.5967 34.0498 63.1891 34.0316 63.6768C33.9952 67.2406 33.1384 69.984 31.4613 71.9072C31.2334 71.6247 30.9646 71.3193 30.6547 70.9912C32.1677 69.3324 32.9379 66.8577 32.9652 63.5674C32.9834 63.0889 32.9971 62.5329 33.0062 61.8994H31.1058V60.8604ZM42.7269 61.2021H39.6918V69.0908H42.7269V61.2021ZM50.0687 61.2979H52.2015C52.2198 60.4821 52.2334 59.5342 52.2426 58.4541H53.35C53.3363 59.5433 53.3181 60.4912 53.2953 61.2979H57.6566C57.5746 64.488 57.4834 67.1768 57.3832 69.3643C57.2829 70.7952 56.6358 71.5244 55.4418 71.5518C54.6488 71.5609 53.7738 71.5426 52.8168 71.4971C52.753 71.0778 52.6801 70.6676 52.598 70.2666C53.5459 70.376 54.4118 70.4261 55.1957 70.417C55.8793 70.3988 56.2439 69.984 56.2894 69.1729C56.4079 67.0309 56.4854 64.7568 56.5219 62.3506H53.2679C53.2497 63.0706 53.2269 63.6266 53.1996 64.0186C53.0264 67.6188 51.5726 70.2301 48.8383 71.8525C48.6377 71.57 48.3734 71.2601 48.0453 70.9229C50.5974 69.501 51.9509 67.1722 52.1058 63.9365C52.1332 63.5127 52.156 62.984 52.1742 62.3506H50.0687V61.2979ZM44.7777 68.2021C45.5616 68.029 46.3181 67.8581 47.0472 67.6895V60.9561H44.9691V59.8896H50.4515V60.9561H48.1547V67.4229C48.9431 67.2269 49.695 67.0309 50.4105 66.835C50.4288 67.3089 50.4607 67.6735 50.5062 67.9287C48.8929 68.3298 47.0883 68.8083 45.0922 69.3643L44.7777 68.2021ZM60.6781 71.6611H59.6117V63.5947H65.1625V70.0615C65.1625 71.0459 64.7067 71.5381 63.7953 71.5381C63.3942 71.5472 62.8793 71.5518 62.2504 71.5518C62.2048 71.2692 62.1364 70.9229 62.0453 70.5127C62.6195 70.5583 63.0798 70.5811 63.4261 70.5811C63.8728 70.5811 64.0961 70.3486 64.0961 69.8838V68.749H60.6781V71.6611ZM66.4886 65.0713H67.5551V67.3271C68.8493 66.8441 70.2028 66.2106 71.6156 65.4268L72.2308 66.3701C70.7406 67.154 69.182 67.849 67.5551 68.4551V69.6377C67.5551 70.2119 67.7784 70.499 68.225 70.499H70.2347C70.6996 70.499 70.9685 70.2757 71.0414 69.8291C71.1052 69.4281 71.1599 68.8311 71.2054 68.0381C71.5518 68.1748 71.9073 68.3024 72.2719 68.4209C72.1989 69.223 72.1215 69.8291 72.0394 70.2393C71.9209 71.0413 71.3513 71.4424 70.3304 71.4424H68.0472C67.0082 71.4424 66.4886 70.9092 66.4886 69.8428V65.0713ZM66.516 58.3994H67.5824V60.7441C68.8357 60.2474 70.0798 59.6481 71.3148 58.9463L71.9301 59.8896C70.5082 60.6097 69.059 61.2682 67.5824 61.8652V62.6514C67.5824 63.262 67.8239 63.5674 68.307 63.5674H70.0433C70.6176 63.5674 70.9411 63.3304 71.014 62.8564C71.0778 62.4645 71.1325 61.8949 71.1781 61.1475C71.5245 61.2842 71.8799 61.4163 72.2445 61.5439C72.1716 62.2731 72.0941 62.8656 72.0121 63.3213C71.8754 64.1143 71.2601 64.5107 70.1664 64.5107H68.1703C67.0674 64.5107 66.516 63.9639 66.516 62.8701V58.3994ZM63.9867 59.5615C64.8161 60.637 65.5362 61.6715 66.1469 62.665C65.8005 62.902 65.486 63.1117 65.2035 63.2939C65.0258 62.9795 64.8366 62.6582 64.6361 62.3301C62.4076 62.4941 60.6234 62.6423 59.2836 62.7744L58.8461 61.626C59.2471 61.4072 59.6892 60.9971 60.1722 60.3955C60.6735 59.7393 61.1657 59.0055 61.6488 58.1943L62.7289 58.5908C61.9724 59.6846 61.1748 60.7191 60.3363 61.6943C61.7035 61.6077 62.9454 61.5189 64.0619 61.4277C63.7748 60.9948 63.4672 60.5505 63.139 60.0947L63.9867 59.5615ZM60.6781 67.9287H64.0961V66.6025H60.6781V67.9287ZM64.0961 64.4697H60.6781V65.7822H64.0961V64.4697Z" fill="black" fill-opacity="0.85"/>
</svg>
