<svg width="25" height="26" viewBox="0 0 25 26" fill="none" xmlns="http://www.w3.org/2000/svg">
<path d="M13.6874 4.46672C13.348 4.29993 12.9859 4.3333 12.6941 4.55845C11.6284 5.38081 8.82383 7.85855 8.35232 8.27598H4.77104C3.89849 8.27598 3.1886 8.98586 3.1886 9.85842V15.55C3.1886 16.4225 3.89849 17.1325 4.77104 17.1325H7.84111C8.47356 17.7024 11.5035 20.426 12.689 21.3652C12.8588 21.4997 13.0534 21.5678 13.2541 21.5678C13.395 21.5678 13.5388 21.5342 13.6792 21.4663C14.1863 21.221 14.5989 20.5168 14.5989 19.8967V6.03105C14.5989 5.4155 14.19 4.71375 13.6874 4.46672H13.6874ZM13.5438 19.8967C13.5438 20.1109 13.3824 20.379 13.2714 20.4804C11.9409 19.4122 8.47139 16.2803 8.43584 16.2482C8.4356 16.248 8.43535 16.2478 8.43511 16.2476C8.33877 16.1433 8.20122 16.0775 8.04795 16.0775H4.77104C4.4802 16.0775 4.24355 15.8409 4.24355 15.55V9.85845C4.24355 9.5676 4.4802 9.33096 4.77104 9.33096H8.447C8.55327 9.33096 8.65205 9.29922 8.73484 9.24517C8.82912 9.22799 8.91688 9.18529 8.9886 9.12173C9.02021 9.0937 12.1011 6.36306 13.2703 5.44683C13.3807 5.54546 13.5438 5.81501 13.5438 6.03105V19.8967L13.5438 19.8967ZM19.5287 13.0158C19.3928 10.9256 17.8371 9.58027 17.7709 9.52402C17.549 9.33535 17.2161 9.36226 17.0274 9.58425C16.8387 9.80618 16.8656 10.1391 17.0876 10.3278C17.1004 10.3387 18.3687 11.435 18.4759 13.0843C18.5471 14.1798 18.0845 15.2855 17.1009 16.3706C16.9053 16.5864 16.9216 16.92 17.1375 17.1157C17.2344 17.2037 17.3606 17.2525 17.4916 17.2523C17.6353 17.2523 17.7784 17.1939 17.8826 17.0791C19.0653 15.7744 19.6191 14.4073 19.5287 13.0158Z" fill="black"/>
<path d="M22.3764 10.4685C21.566 8.18767 20.0445 6.80911 19.9802 6.75154C19.763 6.55737 19.4296 6.57593 19.2354 6.79312C19.0412 7.01025 19.0598 7.34373 19.2769 7.53794C19.2907 7.55024 20.6611 8.7918 21.3823 10.8218C21.8021 12.0032 21.9165 13.2136 21.7223 14.4193C21.4766 15.9441 20.7331 17.4762 19.5123 18.9729C19.3282 19.1987 19.362 19.531 19.5877 19.7151C19.6817 19.792 19.7994 19.8339 19.9208 19.8338C20.0738 19.8338 20.2257 19.7675 20.3299 19.6397C21.6694 17.9974 22.4883 16.2974 22.7638 14.5871C22.9865 13.2045 22.8562 11.8188 22.3764 10.4685Z" fill="black"/>
</svg>
