<svg width="89" height="73" viewBox="0 0 89 73" fill="none" xmlns="http://www.w3.org/2000/svg">
<rect x="19.6" width="50" height="50" rx="6" fill="url(#paint0_linear_703_689)"/>
<path d="M55.622 10C57.7934 10 59.6 12.2656 59.6 14.9887V35.0088C59.6 37.7319 57.7934 39.9975 55.622 39.9975H33.578C31.4066 40.0847 29.6 37.8409 29.6 35.1178V14.9887C29.6 12.2656 31.4066 10 33.578 10H55.622ZM57.8629 35.1396V14.858C57.8629 13.4638 56.9074 12.2874 55.8131 12.2874H33.4737C32.362 12.2874 31.4239 13.4856 31.4239 14.858V35.2485C31.4239 36.6427 32.3794 37.8191 33.4737 37.8191H55.7957C56.9074 37.7101 57.8629 36.6209 57.8629 35.1396Z" fill="white"/>
<path d="M45.6312 19.2002C45.6312 18.5134 46.1402 17.9688 46.7551 17.9688H53.4136C54.0285 17.9688 54.5375 18.5371 54.5375 19.2239C54.5375 19.9107 54.0285 20.4554 53.4136 20.4554H46.7551C46.1189 20.4554 45.6312 19.887 45.6312 19.2002ZM45.6312 30.3073C45.6312 29.6205 46.1402 29.0758 46.7551 29.0758H53.4136C54.0285 29.0758 54.5375 29.6442 54.5375 30.331C54.5375 31.0178 54.0285 31.5625 53.4136 31.5625H46.7551C46.1189 31.5625 45.6312 30.9941 45.6312 30.3073ZM45.6312 24.3393C45.6312 23.6525 46.1402 23.1079 46.7551 23.1079H53.4136C54.0285 23.1079 54.5375 23.6762 54.5375 24.363C54.5375 25.0498 54.0285 25.5945 53.4136 25.5945H46.7551C46.1189 25.5945 45.6312 25.0261 45.6312 24.3393Z" fill="white"/>
<path d="M38.3544 31.5625C37.7071 31.5625 37.1937 31.0502 37.1937 30.4312V20.9751C37.1937 20.356 37.7294 19.8438 38.3768 19.8438C39.0241 19.8438 39.5375 20.356 39.5375 20.9751V30.4312C39.5152 31.0715 39.0018 31.5625 38.3544 31.5625Z" fill="white"/>
<path d="M34.2134 22.8108C33.8122 22.392 33.8122 21.7337 34.2134 21.3348L37.2831 18.2829C37.7044 17.864 38.3665 17.864 38.7678 18.2829C39.169 18.7018 39.169 19.36 38.7678 19.759L35.6981 22.8108C35.2968 23.2297 34.6348 23.2297 34.2134 22.8108Z" fill="white"/>
<path d="M37.5484 18.2697C38.0448 17.8684 38.825 17.8684 39.2979 18.2697L42.9151 21.3394C43.4116 21.7607 43.4116 22.4228 42.9151 22.8241C42.4186 23.2253 41.6384 23.2253 41.1656 22.8241L37.5484 19.7544C37.0755 19.333 37.0755 18.671 37.5484 18.2697Z" fill="white"/>
<path d="M23.3539 71.6064V67.2588H19.3754C19.2204 69.1546 18.669 70.7269 17.7211 71.9756C17.4841 71.6748 17.2152 71.3604 16.9144 71.0322C17.5069 70.1937 17.9079 69.264 18.1176 68.2432C18.3181 67.2588 18.4183 65.8643 18.4183 64.0596V59.1787H29.5609V70.0479C29.5609 71.1325 29.0459 71.6748 28.016 71.6748C27.3871 71.6748 26.6807 71.6611 25.8969 71.6338C25.8513 71.333 25.7829 70.9548 25.6918 70.499C26.4847 70.5537 27.1273 70.5811 27.6195 70.5811C28.1846 70.5811 28.4672 70.3122 28.4672 69.7744V67.2588H24.4476V71.6064H23.3539ZM24.4476 66.2744H28.4672V63.7178H24.4476V66.2744ZM28.4672 60.1904H24.4476V62.7334H28.4672V60.1904ZM19.4506 66.2744H23.3539V63.7178H19.5121C19.5394 64.6019 19.5189 65.4541 19.4506 66.2744ZM19.5121 60.1904V62.7334H23.3539V60.1904H19.5121ZM32.8832 58.96H42.3168V64.374H41.223V63.9365H33.9769V64.374H32.8832V58.96ZM38.4476 65.4951H43.6703V71.8115H42.6312V70.8818H39.4867V71.8115H38.4476V65.4951ZM31.5433 65.4951H36.7523V71.8115H35.7133V70.8955H32.5824V71.8115H31.5433V65.4951ZM41.223 59.917H33.9769V62.9795H41.223V59.917ZM42.6312 66.4521H39.4867V69.9932H42.6312V66.4521ZM35.7133 66.4521H32.5824V69.9658H35.7133V66.4521ZM49.9594 69.4053H56.4535V65.1396H50.725V64.1826H56.4535V60.4912H50.3969V59.5068H57.5199V71.292H56.4535V70.3623H49.9594V69.4053ZM48.5375 58.4404H49.6176V64.0049C49.6267 67.8512 48.8428 70.4808 47.266 71.8936C47.0472 71.611 46.7738 71.3057 46.4457 70.9775C47.8402 69.665 48.5375 67.4867 48.5375 64.4424V58.4404ZM45.7211 59.7803H46.7875V68.5986H45.7211V59.7803ZM62.8656 59.4932H72.1078V60.5049H68.3754C68.1748 61.0335 67.9561 61.5485 67.7191 62.0498V63.54L68.2113 62.9658C69.7061 64.1051 71.0596 65.1943 72.2719 66.2334L71.4926 67.1631C70.2439 66.0146 68.986 64.9437 67.7191 63.9502V69.7744H66.6254V63.8955C65.5954 65.3812 64.2966 66.6618 62.7289 67.7373C62.5101 67.473 62.2595 67.1995 61.9769 66.917C64.5199 65.1852 66.2471 63.0479 67.1586 60.5049H62.8656V59.4932ZM64.4379 70.4717C67.0538 70.5264 69.7015 70.5081 72.3812 70.417C72.281 70.7178 72.1534 71.0778 71.9984 71.4971C69.264 71.5244 66.6664 71.5062 64.2054 71.4424C62.6924 71.4242 61.6123 70.8955 60.9652 69.8564C60.5824 70.2301 60.0355 70.8408 59.3246 71.6885L58.764 70.5537C59.4476 69.8883 60.031 69.3324 60.514 68.8857V64.2783H58.8871V63.2666H61.5668V69.0908C62.141 69.984 63.098 70.4443 64.4379 70.4717ZM60.473 58.6729C61.111 59.484 61.7491 60.3454 62.3871 61.2568L61.4164 61.9404C60.7966 60.9561 60.1905 60.0628 59.598 59.2607L60.473 58.6729Z" fill="black" fill-opacity="0.85"/>
<defs>
<linearGradient id="paint0_linear_703_689" x1="19.6" y1="0" x2="73.8612" y2="44.844" gradientUnits="userSpaceOnUse">
<stop stop-color="#FE4C79"/>
<stop offset="1" stop-color="#F57897"/>
</linearGradient>
</defs>
</svg>
