<svg width="89" height="73" viewBox="0 0 89 73" fill="none" xmlns="http://www.w3.org/2000/svg">
<rect x="19.4" width="50" height="50" rx="6" fill="url(#paint0_linear_703_678)"/>
<path d="M55.9 27.5001V38C55.9 38.1313 55.8742 38.2614 55.8239 38.3827C55.7736 38.504 55.7 38.6143 55.6071 38.7071C55.5143 38.8 55.404 38.8736 55.2827 38.9239C55.1614 38.9741 55.0313 39 54.9 39H33.9C33.7687 39 33.6387 38.9741 33.5173 38.9239C33.396 38.8736 33.2858 38.8 33.1929 38.7071C33.1001 38.6143 33.0264 38.504 32.9761 38.3827C32.9259 38.2614 32.9 38.1313 32.9 38V27.5001H55.9ZM56.9 26.5001H31.9V38C31.9 38.5304 32.1107 39.0391 32.4858 39.4142C32.6715 39.5999 32.892 39.7472 33.1347 39.8478C33.3773 39.9483 33.6374 40 33.9 40H54.9C55.4305 40 55.9392 39.7893 56.3142 39.4142C56.6893 39.0391 56.9 38.5304 56.9 38V26.5001Z" fill="white"/>
<path d="M51.745 12.3152L51.485 13.2852L53.9 13.9302L54.16 12.9652L51.745 12.3152Z" fill="white"/>
<path d="M52.615 11.0002L54.55 11.5002L51.8516 20.7268H49.5916L52.615 11.0002ZM52.615 10.0002C52.3952 10.0004 52.1815 10.0729 52.0071 10.2067C51.8326 10.3405 51.7071 10.528 51.65 10.7402L48.9516 19.9518C48.886 20.207 48.6003 20.7725 48.7333 21C48.8662 21.2275 49.4071 21.0987 49.6616 21.1668L51.7333 21.3333C51.9892 21.4021 52.1702 21.4655 52.3999 21.3333C52.6296 21.2011 52.7476 21.2176 52.8166 20.9618L55.515 11.7752C55.549 11.6482 55.5575 11.5157 55.5402 11.3853C55.5229 11.2549 55.4801 11.1292 55.4141 11.0154C55.3482 10.9017 55.2604 10.802 55.1559 10.7222C55.0514 10.6423 54.9321 10.5839 54.805 10.5502L52.9 10.0352C52.8072 10.0099 52.7112 9.99813 52.615 10.0002Z" fill="white"/>
<path d="M41.6351 14.1802L35.8651 15.7102L36.1201 16.6652L41.8901 15.1352L41.6351 14.1802ZM42.4051 17.0402L36.6351 18.5702L36.8951 19.5252L42.6651 17.9902L42.4051 17.0402ZM43.1801 19.9002L37.4101 21.4301L38.4 21.3333L43.4351 20.8502L43.1801 19.9002Z" fill="white"/>
<path d="M42.0801 11.0452C42.2962 11.0466 42.5061 11.118 42.6783 11.2487C42.8504 11.3794 42.9756 11.5624 43.0351 11.7702L45.4 20C45.4333 20.1219 45.6359 20.6712 45.6195 20.7965C45.6032 20.9218 44.8117 20.6872 44.7484 20.7965C44.6151 21.0235 44.321 20.9323 44.0667 21L36.2795 20.965C36.1947 20.988 36.1073 20.9998 36.0195 21C35.8033 20.9986 35.5934 20.9272 35.4213 20.7965C35.2491 20.6658 35.1239 20.4828 35.0645 20.275L33.4301 14.3102C33.3968 14.1883 33.3881 14.061 33.4044 13.9357C33.4207 13.8104 33.4617 13.6896 33.5251 13.5802C33.6583 13.3532 33.8757 13.188 34.1301 13.1202L41.8201 11.0802C41.9048 11.0572 41.9922 11.0454 42.0801 11.0452ZM42.0801 10.0452C41.9111 10.0474 41.7431 10.0709 41.5801 10.1152L33.8701 12.1552C33.6184 12.2203 33.3821 12.3346 33.1748 12.4915C32.9675 12.6483 32.7933 12.8446 32.6622 13.0691C32.5312 13.2936 32.4458 13.5418 32.4111 13.7995C32.3764 14.0571 32.3931 14.319 32.4601 14.5702L34.0089 20.221C34.1321 20.6354 34.3863 20.9987 34.7333 21.2565C35.0804 21.5143 35.4677 21.405 35.9 21.4033C36.069 21.4012 36.237 21.3777 36.4 21.3333L44.7484 21.4033C45.2529 21.2747 46.4663 21.4469 46.7333 21C46.7333 21 46.4 20 46.1734 19.266L44.0051 11.5002C43.8864 11.0812 43.6342 10.7123 43.2867 10.4497C42.9393 10.1871 42.5156 10.0451 42.0801 10.0452Z" fill="white"/>
<path d="M57.4 21.5001C57.5313 21.5001 57.6614 21.526 57.7827 21.5763C57.904 21.6265 58.0143 21.7002 58.1071 21.793C58.2 21.8859 58.2736 21.9961 58.3239 22.1175C58.3742 22.2388 58.4 22.3688 58.4 22.5001V26.5001H30.4V22.5001C30.4 22.3688 30.4259 22.2388 30.4761 22.1175C30.5264 21.9961 30.6001 21.8859 30.6929 21.793C30.7858 21.7002 30.896 21.6265 31.0173 21.5763C31.1387 21.526 31.2687 21.5001 31.4 21.5001H57.4ZM57.4 20.5002H31.4C30.8696 20.5002 30.3609 20.7109 29.9858 21.0859C29.6107 21.461 29.4 21.9697 29.4 22.5001V27.5001H59.4V22.5001C59.4 21.9697 59.1893 21.461 58.8142 21.0859C58.4392 20.7109 57.9305 20.5002 57.4 20.5002Z" fill="white"/>
<path d="M23.1539 71.6064V67.2588H19.1754C19.0205 69.1546 18.469 70.7269 17.5211 71.9756C17.2841 71.6748 17.0153 71.3604 16.7145 71.0322C17.3069 70.1937 17.708 69.264 17.9176 68.2432C18.1181 67.2588 18.2184 65.8643 18.2184 64.0596V59.1787H29.361V70.0479C29.361 71.1325 28.846 71.6748 27.816 71.6748C27.1871 71.6748 26.4808 71.6611 25.6969 71.6338C25.6513 71.333 25.583 70.9548 25.4918 70.499C26.2848 70.5537 26.9274 70.5811 27.4196 70.5811C27.9847 70.5811 28.2672 70.3122 28.2672 69.7744V67.2588H24.2477V71.6064H23.1539ZM24.2477 66.2744H28.2672V63.7178H24.2477V66.2744ZM28.2672 60.1904H24.2477V62.7334H28.2672V60.1904ZM19.2506 66.2744H23.1539V63.7178H19.3121C19.3395 64.6019 19.319 65.4541 19.2506 66.2744ZM19.3121 60.1904V62.7334H23.1539V60.1904H19.3121ZM32.6832 58.96H42.1168V64.374H41.0231V63.9365H33.777V64.374H32.6832V58.96ZM38.2477 65.4951H43.4703V71.8115H42.4313V70.8818H39.2867V71.8115H38.2477V65.4951ZM31.3434 65.4951H36.5524V71.8115H35.5133V70.8955H32.3824V71.8115H31.3434V65.4951ZM41.0231 59.917H33.777V62.9795H41.0231V59.917ZM42.4313 66.4521H39.2867V69.9932H42.4313V66.4521ZM35.5133 66.4521H32.3824V69.9658H35.5133V66.4521ZM45.8492 60.4639H50.8668V58.3857H51.9332V60.4639H56.9781V69.0908H55.9391V68.2568H51.9332V71.8662H50.8668V68.2568H46.8883V69.0908H45.8492V60.4639ZM51.9332 67.2998H55.9391V64.8115H51.9332V67.2998ZM46.8883 67.2998H50.8668V64.8115H46.8883V67.2998ZM55.9391 61.4209H51.9332V63.8818H55.9391V61.4209ZM46.8883 63.8818H50.8668V61.4209H46.8883V63.8818ZM64.9625 61.8721H67.3824L67.7242 59.999H64.3063V59.042H72.1676V59.999H68.8317L68.4352 61.8721H71.525V68.4072H70.5406V62.8154H65.9469V68.4619H64.9625V61.8721ZM67.7242 63.376H68.7086V65.4268C68.7086 66.4385 68.5992 67.3089 68.3805 68.0381C69.7021 69.0042 70.9599 70.0023 72.1539 71.0322L71.3336 71.8936C70.2946 70.891 69.178 69.9202 67.984 68.9814C67.9384 69.0635 67.8929 69.141 67.8473 69.2139C67.2275 70.2074 66.1337 71.1051 64.566 71.9072C64.2653 71.5244 64.0101 71.2236 63.8004 71.0049C65.3134 70.3486 66.3525 69.5876 66.9176 68.7217C67.4554 67.9561 67.7242 66.8486 67.7242 65.3994V63.376ZM59.5895 68.0518L60.3961 67.4502C60.8154 67.9515 61.2255 68.4482 61.6266 68.9404C62.1005 68.0928 62.5791 67.0811 63.0621 65.9053H59.0426V64.9619H64.1696V65.9053C63.4768 67.4548 62.8479 68.7399 62.2828 69.7607C62.6383 70.1982 62.9847 70.6403 63.3219 71.0869L62.3785 71.7432C61.4671 70.4033 60.5374 69.1729 59.5895 68.0518ZM62.4469 58.6455L62.2828 59.0146C63.1214 59.9899 63.9371 61.0244 64.7301 62.1182L63.9098 62.8564C63.1989 61.7809 62.5061 60.8148 61.8317 59.958C61.1207 61.471 60.2503 62.9567 59.2203 64.415C59.038 64.1051 58.8147 63.7861 58.5504 63.458C59.6442 62.0999 60.5875 60.4958 61.3805 58.6455H62.4469ZM60.9703 62.3232L61.818 61.8994C62.2281 62.5465 62.611 63.2301 62.9664 63.9502L62.0231 64.4424C61.7861 63.859 61.4352 63.1527 60.9703 62.3232Z" fill="black" fill-opacity="0.85"/>
<defs>
<linearGradient id="paint0_linear_703_678" x1="19.4" y1="0" x2="69.4" y2="50" gradientUnits="userSpaceOnUse">
<stop stop-color="#FF1733"/>
<stop offset="1" stop-color="#F26072"/>
</linearGradient>
</defs>
</svg>
