<svg width="48" height="48" viewBox="0 0 48 48" fill="none" xmlns="http://www.w3.org/2000/svg">
<path d="M41.34 47.73H6.66003C5.50081 47.7222 4.3913 47.2582 3.57159 46.4385C2.75188 45.6188 2.28789 44.5093 2.28003 43.35V8.67004C2.28789 7.51082 2.75188 6.40131 3.57159 5.5816C4.3913 4.76189 5.50081 4.2979 6.66003 4.29004H41.34C42.4992 4.2979 43.6088 4.76189 44.4285 5.5816C45.2482 6.40131 45.7122 7.51082 45.72 8.67004V43.35C45.7122 44.5093 45.2482 45.6188 44.4285 46.4385C43.6088 47.2582 42.4992 47.7222 41.34 47.73ZM6.66003 7.05004C6.23038 7.05004 5.81833 7.22072 5.51452 7.52453C5.21071 7.82834 5.04003 8.24039 5.04003 8.67004V43.35C5.04003 43.7797 5.21071 44.1917 5.51452 44.4956C5.81833 44.7994 6.23038 44.97 6.66003 44.97H41.34C41.7697 44.97 42.1817 44.7994 42.4855 44.4956C42.7893 44.1917 42.96 43.7797 42.96 43.35V8.67004C42.96 8.24039 42.7893 7.82834 42.4855 7.52453C42.1817 7.22072 41.7697 7.05004 41.34 7.05004H6.66003Z" fill="#109AF9"/>
<path d="M43.8 14.7904H4.19995C3.83395 14.7904 3.48295 14.645 3.22415 14.3862C2.96535 14.1274 2.81995 13.7764 2.81995 13.4104C2.81168 13.2255 2.84149 13.041 2.90752 12.8682C2.97355 12.6953 3.0744 12.5379 3.2038 12.4057C3.33321 12.2735 3.48841 12.1693 3.65977 12.0996C3.83113 12.0298 4.015 11.9961 4.19995 12.0004H43.8C43.9823 11.9963 44.1636 12.0292 44.3329 12.0971C44.5021 12.165 44.6559 12.2665 44.7849 12.3954C44.9139 12.5244 45.0154 12.6782 45.0833 12.8475C45.1512 13.0167 45.1841 13.198 45.18 13.3804C45.1839 13.5641 45.1512 13.7468 45.0836 13.9177C45.0161 14.0886 44.9151 14.2443 44.7865 14.3756C44.658 14.507 44.5045 14.6113 44.3351 14.6825C44.1657 14.7537 43.9837 14.7904 43.8 14.7904Z" fill="#109AF9"/>
<path d="M15.99 12.5703C15.624 12.5703 15.273 12.4249 15.0142 12.1661C14.7554 11.9073 14.61 11.5563 14.61 11.1903V1.5903C14.61 1.2243 14.7554 0.873295 15.0142 0.614495C15.273 0.355694 15.624 0.210302 15.99 0.210302C16.1723 0.206203 16.3536 0.239096 16.5229 0.306996C16.6922 0.374897 16.8459 0.476396 16.9749 0.605367C17.1039 0.734338 17.2054 0.888105 17.2733 1.05739C17.3412 1.22667 17.3741 1.40796 17.37 1.5903V11.1903C17.3741 11.3726 17.3412 11.5539 17.2733 11.7232C17.2054 11.8925 17.1039 12.0463 16.9749 12.1752C16.8459 12.3042 16.6922 12.4057 16.5229 12.4736C16.3536 12.5415 16.1723 12.5744 15.99 12.5703ZM31.98 12.5703C31.7987 12.5703 31.6193 12.5346 31.4519 12.4653C31.2844 12.3959 31.1323 12.2943 31.0042 12.1661C30.876 12.038 30.7744 11.8858 30.705 11.7184C30.6357 11.551 30.6 11.3715 30.6 11.1903V1.5903C30.6 1.40908 30.6357 1.22963 30.705 1.0622C30.7744 0.894769 30.876 0.742639 31.0042 0.614495C31.1323 0.48635 31.2844 0.3847 31.4519 0.315348C31.6193 0.245997 31.7987 0.210302 31.98 0.210302C32.1623 0.206203 32.3436 0.239096 32.5129 0.306996C32.6822 0.374897 32.8359 0.476396 32.9649 0.605367C33.0939 0.734338 33.1954 0.888105 33.2633 1.05739C33.3312 1.22667 33.3641 1.40796 33.36 1.5903V11.1903C33.3641 11.3726 33.3312 11.5539 33.2633 11.7232C33.1954 11.8925 33.0939 12.0463 32.9649 12.1752C32.8359 12.3042 32.6822 12.4057 32.5129 12.4736C32.3436 12.5415 32.1623 12.5744 31.98 12.5703ZM15 34.5603C14.9324 35.2788 15.1489 35.9951 15.6031 36.5559C16.0574 37.1166 16.7131 37.4772 17.43 37.5603C18.99 37.5603 19.83 36.4203 19.98 34.5603C20.13 32.7003 18.33 31.2903 15.24 31.3803V28.6203C18.45 28.6203 20.04 27.5103 19.98 25.6203C19.92 23.7303 19.08 23.0403 17.55 22.9503C16.9136 23.0553 16.3342 23.3799 15.9122 23.8676C15.4902 24.3554 15.2524 24.9755 15.24 25.6203H10.92C11.16 22.0803 13.35 20.2503 17.55 20.1003C21.66 20.4603 23.88 22.1103 24.15 25.0503C24.2189 26.167 23.8749 27.27 23.1835 28.1495C22.492 29.0291 21.5013 29.6237 20.4 29.8203C21.5797 30.0848 22.6229 30.7695 23.3349 31.7465C24.047 32.7235 24.3794 33.9263 24.27 35.1303C23.91 38.1303 21.6 39.9003 17.34 40.2003C13.08 40.5003 10.71 38.3103 10.71 34.5603H15ZM28.35 23.3103C30.0908 22.5092 31.7573 21.5554 33.33 20.4603H37.29V39.9603H33V24.6303C31.5741 25.6894 30.0095 26.5474 28.35 27.1803V23.3103Z" fill="#109AF9"/>
</svg>
