<svg width="48" height="48" viewBox="0 0 48 48" fill="none" xmlns="http://www.w3.org/2000/svg">
<path d="M31.284 15.0702C31.2835 14.9717 31.2442 14.8774 31.1745 14.8078C31.1049 14.7381 31.0105 14.6988 30.912 14.6982H28.376C28.236 14.6982 28.106 14.7782 28.046 14.9022L24.106 22.7542H23.954L20.014 14.9022C19.9831 14.8412 19.936 14.7898 19.8777 14.7538C19.8195 14.7178 19.7525 14.6986 19.684 14.6982H17.094C17.0296 14.698 16.9663 14.7145 16.9102 14.7462C16.8542 14.7779 16.8074 14.8237 16.7744 14.8791C16.7415 14.9344 16.7236 14.9974 16.7225 15.0618C16.7213 15.1262 16.7371 15.1898 16.768 15.2462L21.6 24.1602H18.948C18.8495 24.1608 18.7552 24.2001 18.6856 24.2698C18.6159 24.3394 18.5766 24.4337 18.576 24.5322V25.7922C18.576 25.9982 18.744 26.1642 18.948 26.1642H22.484V27.9782H18.948C18.8495 27.9788 18.7552 28.0181 18.6856 28.0878C18.6159 28.1574 18.5766 28.2517 18.576 28.3502V29.6102C18.576 29.8162 18.744 29.9842 18.948 29.9842H22.484V32.9322C22.484 33.1362 22.652 33.3042 22.856 33.3042H25.176C25.2745 33.3037 25.3689 33.2644 25.4385 33.1947C25.5082 33.1251 25.5475 33.0307 25.548 32.9322V29.9782H29.098C29.1965 29.9777 29.2909 29.9384 29.3605 29.8687C29.4302 29.7991 29.4695 29.7047 29.47 29.6062V28.3462C29.4695 28.2477 29.4302 28.1534 29.3605 28.0838C29.2909 28.0141 29.1965 27.9748 29.098 27.9742H25.548V26.1602H29.098C29.1965 26.1597 29.2909 26.1204 29.3605 26.0507C29.4302 25.9811 29.4695 25.8867 29.47 25.7882V24.5282C29.4695 24.4297 29.4302 24.3354 29.3605 24.2658C29.2909 24.1961 29.1965 24.1568 29.098 24.1562H26.418L31.242 15.2442C31.2672 15.1903 31.2808 15.1317 31.282 15.0722L31.284 15.0702Z" fill="#FFA728"/>
<path d="M7.53009 23.638C7.61357 19.3971 9.33935 15.354 12.3441 12.36C13.8692 10.83 15.6815 9.61643 17.677 8.78893C19.6725 7.96142 21.8118 7.53631 23.9721 7.53801C26.1326 7.53672 28.2722 7.96241 30.2677 8.79062C32.2632 9.61883 34.0754 10.8332 35.6001 12.364C36.0641 12.828 36.4981 13.316 36.8981 13.824L34.5721 15.642C34.5166 15.6849 34.4743 15.7425 34.4502 15.8084C34.4261 15.8742 34.421 15.9455 34.4357 16.0141C34.4503 16.0826 34.484 16.1457 34.5329 16.1959C34.5818 16.2461 34.6439 16.2815 34.7121 16.298L42.0041 18.078C42.2381 18.134 42.4641 17.958 42.4641 17.72L42.5041 10.21C42.5049 10.1401 42.4858 10.0714 42.4492 10.0118C42.4125 9.95227 42.3597 9.90433 42.2969 9.87356C42.2341 9.84279 42.1639 9.83045 42.0944 9.83796C42.0248 9.84547 41.9589 9.87254 41.9041 9.91601L39.6781 11.656C37.817 9.26905 35.4354 7.33858 32.7149 6.01178C29.9944 4.68499 27.0069 3.99691 23.9801 4.00001C13.0681 4.00001 4.20009 12.748 4.00009 23.62C3.99902 23.6695 4.00786 23.7188 4.02607 23.7648C4.04429 23.8109 4.07152 23.8528 4.10617 23.8882C4.14082 23.9236 4.18219 23.9518 4.22786 23.9709C4.27352 23.9901 4.32255 24 4.37209 24H7.16209C7.36209 24 7.52609 23.838 7.53009 23.638ZM43.6281 24H40.8381C40.6381 24 40.4701 24.162 40.4661 24.362C40.3787 28.6009 38.6534 32.6413 35.6521 35.636C34.1272 37.1664 32.3149 38.3803 30.3194 39.2082C28.3239 40.036 26.1845 40.4614 24.0241 40.46C21.8637 40.4616 19.7242 40.0362 17.7287 39.2083C15.7332 38.3805 13.9209 37.1664 12.3961 35.636C11.9345 35.1753 11.5004 34.6877 11.0961 34.176L13.4181 32.358C13.4736 32.3152 13.5158 32.2575 13.54 32.1917C13.5641 32.1258 13.5691 32.0545 13.5545 31.986C13.5399 31.9174 13.5062 31.8544 13.4572 31.8041C13.4083 31.7539 13.3462 31.7185 13.2781 31.702L5.98609 29.922C5.93182 29.9092 5.87537 29.9086 5.82087 29.9204C5.76637 29.9322 5.7152 29.9561 5.6711 29.9902C5.627 30.0243 5.59109 30.0679 5.566 30.1177C5.54091 30.1675 5.52727 30.2223 5.52609 30.278L5.48809 37.798C5.48809 38.112 5.84809 38.288 6.08809 38.092L8.31209 36.352C10.178 38.7366 12.5627 40.6646 15.2852 41.9898C18.0076 43.315 20.9962 44.0025 24.0241 44C34.9301 44 43.8001 35.25 44.0001 24.38C44.0011 24.3305 43.9923 24.2813 43.9741 24.2352C43.9559 24.1891 43.9286 24.1472 43.894 24.1118C43.8593 24.0764 43.818 24.0483 43.7723 24.0291C43.7267 24.0099 43.6776 24 43.6281 24Z" fill="#FFA728"/>
</svg>
