<svg width="48" height="48" viewBox="0 0 48 48" fill="none" xmlns="http://www.w3.org/2000/svg">
<path d="M42.8616 47.6195C42.6426 47.6195 42.4226 47.5885 42.2056 47.526C41.5852 47.3473 41.0774 46.9351 40.7757 46.3642L33.9812 33.5191C33.8459 33.2949 33.6119 33.141 33.352 33.1069L28.0602 32.41C27.8525 32.3827 27.6579 32.2928 27.5024 32.1523C27.347 32.0118 27.2379 31.8272 27.1898 31.6233L25.3074 23.6613C25.2026 23.2171 25.4009 22.7568 25.7961 22.529L28.1667 21.1601C28.404 21.0231 28.6861 20.986 28.9508 21.0568C29.2153 21.1275 29.4411 21.3006 29.5779 21.5382L30.9722 23.9532C31.1561 24.2714 31.5642 24.3809 31.8824 24.197C32.2006 24.0131 32.3101 23.605 32.1262 23.2868L30.732 20.8718C30.5951 20.6347 30.5579 20.3527 30.6287 20.0877C30.6994 19.8227 30.8725 19.5974 31.1101 19.4605L33.4807 18.0916C33.6731 17.9805 33.8963 17.9344 34.117 17.9602C34.3378 17.9859 34.5443 18.0822 34.706 18.2347L40.66 23.8463C40.972 24.1407 41.0702 24.5974 40.9059 24.9936L38.8634 29.9248C38.7631 30.1671 38.7792 30.447 38.9057 30.6759L46.6326 42.9827C46.9756 43.5293 47.0795 44.1755 46.924 44.8021C46.7685 45.4287 46.3749 45.9515 45.8159 46.2738L44.0348 47.3023C43.6711 47.5121 43.2692 47.619 42.8622 47.619L42.8616 47.6195ZM29.0361 30.4543L33.6212 31.0581C34.519 31.1764 35.3253 31.7152 35.7779 32.4994C35.7841 32.5102 35.7903 32.5216 35.7965 32.533L42.6018 45.3982C42.6493 45.4876 42.7232 45.5248 42.7769 45.5403C42.8307 45.5558 42.9133 45.5635 43.0006 45.5129L44.7818 44.4844C44.8696 44.4338 44.9042 44.3584 44.9176 44.3041C44.931 44.2499 44.9357 44.1672 44.882 44.0815L37.1427 31.755C37.1359 31.7442 37.1292 31.7333 37.123 31.7225C36.67 30.9383 36.607 29.9702 36.9536 29.1339L38.7234 24.8613L33.8474 20.2659L33.0374 20.7334L33.9151 22.2537C34.6683 23.5585 34.2199 25.2327 32.915 25.9864C31.6096 26.7396 29.9354 26.2912 29.1822 24.9863L28.3046 23.4661L27.4946 23.9336L29.0361 30.4538V30.4543ZM3.49147 14.0515V5.86895C3.49147 5.13232 4.09069 4.53309 4.82733 4.53309H12.9784C13.5492 4.53309 14.0115 4.07076 14.0115 3.49995C14.0115 2.92913 13.5492 2.4668 12.9784 2.4668H4.82733C2.95113 2.4668 1.42517 3.99327 1.42517 5.86895V14.0515C1.42517 14.6223 1.8875 15.0846 2.45832 15.0846C3.02913 15.0846 3.49147 14.6223 3.49147 14.0515ZM14.0435 42.9507C14.0435 42.3799 13.5812 41.9176 13.0104 41.9176H4.82733C4.09069 41.9176 3.49147 41.3183 3.49147 40.5817V32.4307C3.49147 31.8599 3.02913 31.3975 2.45832 31.3975C1.8875 31.3975 1.42517 31.8599 1.42517 32.4307V40.5817C1.42517 42.4579 2.95165 43.9839 4.82733 43.9839H13.0099C13.5807 43.9839 14.043 43.5215 14.043 42.9507H14.0435ZM42.9427 14.02V5.86895C42.9427 3.99276 41.4163 2.4668 39.5406 2.4668H31.3581C30.7872 2.4668 30.3249 2.92913 30.3249 3.49995C30.3249 4.07076 30.7872 4.53309 31.3581 4.53309H39.5406C40.2772 4.53309 40.8765 5.13232 40.8765 5.86895V14.02C40.8765 14.5908 41.3388 15.0531 41.9096 15.0531C42.4804 15.0531 42.9427 14.5908 42.9427 14.02ZM32.3907 11.6474C32.3907 11.0765 31.9284 10.6142 31.3575 10.6142H10.1088C9.53797 10.6142 9.07563 11.0765 9.07563 11.6474C9.07563 12.2182 9.53797 12.6805 10.1088 12.6805H31.3575C31.9284 12.6805 32.3907 12.2182 32.3907 11.6474ZM22.0329 20.3186C22.0329 19.7478 21.5705 19.2854 20.9997 19.2854H10.1088C9.53797 19.2854 9.07563 19.7478 9.07563 20.3186C9.07563 20.8894 9.53797 21.3517 10.1088 21.3517H20.9997C21.5705 21.3517 22.0329 20.8894 22.0329 20.3186ZM22.0329 28.9898C22.0329 28.419 21.5705 27.9566 20.9997 27.9566H10.1088C9.53797 27.9566 9.07563 28.419 9.07563 28.9898C9.07563 29.5606 9.53797 30.0229 10.1088 30.0229H20.9997C21.5705 30.0229 22.0329 29.5606 22.0329 28.9898Z" fill="#F05C27"/>
</svg>
