<svg width="30" height="25" viewBox="0 0 30 25" fill="none" xmlns="http://www.w3.org/2000/svg">
<path d="M24.9689 24.66H4.84472C2.23602 24.66 0 22.6021 0 19.796V5.20397C0 2.58489 2.04969 0.339966 4.84472 0.339966H25.1553C27.764 0.339966 30 2.39781 30 5.20397V19.983C29.8137 22.6021 27.764 24.66 24.9689 24.66ZM4.84472 2.21074C3.1677 2.21074 1.86335 3.52027 1.86335 5.20397V19.983C1.86335 21.6667 3.1677 22.9763 4.84472 22.9763H25.1553C26.8323 22.9763 28.1366 21.6667 28.1366 19.983V5.20397C28.1366 3.52027 26.8323 2.21074 25.1553 2.21074H4.84472Z" fill="#109AF9"/>
<path d="M10.9995 14.5266C8.81769 14.5266 6.99951 12.6842 6.99951 10.4733C6.99951 8.26235 8.81769 6.41992 10.9995 6.41992C13.1813 6.41992 14.9995 8.26235 14.9995 10.4733C14.9995 12.8684 13.1813 14.5266 10.9995 14.5266ZM10.9995 8.26235C9.72678 8.26235 8.63588 9.3678 8.63588 10.4733C8.63588 11.5787 9.72678 12.6842 10.9995 12.6842C12.2722 12.6842 13.1813 11.763 13.1813 10.4733C13.1813 9.18356 12.0904 8.26235 10.9995 8.26235Z" fill="#109AF9"/>
<path d="M17.1999 19.5933C16.8242 19.5933 16.4484 19.1993 16.2606 18.8052C15.5091 15.0615 12.6911 14.4704 11.0002 14.4704C9.30943 14.4704 6.4914 15.0615 5.9278 18.8052C5.73993 19.3963 5.36419 19.5933 4.80059 19.5933C4.23698 19.3963 3.86125 19.0022 4.04911 18.4111C4.80059 14.8644 7.43074 12.5 11.0002 12.5C14.5697 12.5 17.3878 14.6674 17.9514 18.4111C18.1392 19.0022 17.7635 19.3963 17.1999 19.5933Z" fill="#109AF9"/>
<path d="M25.125 10.4733H19.875C19.35 10.4733 19 10.068 19 9.45999C19 8.85199 19.35 8.44666 19.875 8.44666H25.125C25.65 8.44666 26 8.85199 26 9.45999C26 10.068 25.65 10.4733 25.125 10.4733Z" fill="#109AF9"/>
<path d="M21.25 15.54H19.75C19.3 15.54 19 15.1346 19 14.5266C19 13.9186 19.3 13.5133 19.75 13.5133H21.25C21.7 13.5133 22 13.9186 22 14.5266C22 15.1346 21.7 15.54 21.25 15.54Z" fill="#109AF9"/>
</svg>
