<svg width="622" height="82" viewBox="0 0 622 82" fill="none" xmlns="http://www.w3.org/2000/svg">
<path d="M71.5 4.5H59.5L62.5 0.5H73.5L71.5 4.5Z" fill="#F05C27"/>
<path d="M38.5 41.5H50.5L47.5 45.5H36.5L38.5 41.5Z" fill="#1C3A89"/>
<path d="M46.5 6.5H69.5L66.5 12.5H47.5L40.5 20.5V23.5H60.5L57.5 31.5H34.5L25.5 21.5V18.5L28.5 13.5H36.5L46.5 6.5Z" fill="#F05C27"/>
<path d="M61.5 39.5H38.5L41.5 33.5H60.5L67.5 25.5V22.5H47.5L50.5 14.5H73.5L82.5 24.5V27.5L79.5 32.5H71.5L61.5 39.5Z" fill="#083975"/>
<path d="M18.4971 59.884L18.7581 55.331C17.0374 54.983 15.5004 54.809 14.1471 54.809C11.6917 54.809 9.7584 55.2827 8.34706 56.23C6.93573 57.1773 6.14306 58.0473 5.96906 58.84C5.79506 59.6327 5.6984 60.145 5.67906 60.377C5.65973 60.609 5.65006 60.8217 5.65006 61.015C5.65006 62.6197 6.55873 64.1857 8.37606 65.713C10.2127 67.221 11.1311 68.2263 11.1311 68.729C11.1311 68.8643 11.0924 69.0963 11.0151 69.425C10.9571 69.7343 10.6767 70.0243 10.1741 70.295C9.6714 70.5657 9.01406 70.701 8.20206 70.701C7.44806 70.701 6.6264 70.5947 5.73706 70.382C4.84773 70.15 4.0164 69.8503 3.24306 69.483L2.92406 74.268C4.93473 74.674 6.70373 74.877 8.23106 74.877C10.8217 74.877 12.8324 74.413 14.2631 73.485C15.7131 72.557 16.5347 71.6773 16.7281 70.846C16.9214 70.0147 17.0277 69.4927 17.0471 69.28C17.0664 69.0673 17.0761 68.8353 17.0761 68.584C17.0761 66.9793 16.1674 65.4617 14.3501 64.031C12.5521 62.581 11.6531 61.5467 11.6531 60.928C11.6531 60.754 11.6821 60.5413 11.7401 60.29C11.7981 60.0193 12.0687 59.7487 12.5521 59.478C13.0354 59.2073 13.6927 59.072 14.5241 59.072C15.1234 59.072 15.7324 59.1397 16.3511 59.275C16.9697 59.391 17.6851 59.594 18.4971 59.884ZM29.8134 55.099L16.7924 74.5H23.1724L26.6814 68.787H33.7284L34.5694 74.5H40.9494L37.0924 55.099H29.8134ZM28.8564 64.901L32.5394 59.42L33.3804 64.901H28.8564ZM52.0995 61.943L49.8955 55.099H43.2835L47.6625 66.728L46.0095 74.5H52.1285L53.7815 66.728L63.5545 55.099H57.1745L52.0995 61.943ZM64.9329 55.099L60.8149 74.5H76.3009L77.1709 70.382H67.6299L68.3549 66.96H76.3009L77.1709 62.842H69.2249L69.9789 59.42H79.5199L80.4189 55.099H64.9329ZM84.304 55.099L80.186 74.5H90.887C93.6903 74.5 96.0586 73.5527 97.992 71.658C99.9253 69.7633 101.076 67.946 101.443 66.206C101.81 64.466 101.994 63.1803 101.994 62.349C101.994 60.261 101.443 58.5307 100.341 57.158C99.239 55.7853 97.615 55.099 95.469 55.099H84.304ZM92.308 59.42C93.526 59.42 94.425 59.768 95.005 60.464C95.6043 61.16 95.904 62.059 95.904 63.161C95.904 63.5863 95.7976 64.321 95.585 65.365C95.3723 66.3897 94.715 67.482 93.613 68.642C92.511 69.802 91.2156 70.382 89.727 70.382H86.769L89.118 59.42H92.308Z" fill="#083975"/>
<path d="M151.375 33.3906H142.234C144.297 37.7031 147.344 40.375 151.375 41.4062C151.938 41.5938 152.219 41.7812 152.219 41.9688C152.219 42.25 151.984 42.4844 151.516 42.6719C149.922 43.6094 148.844 44.6406 148.281 45.7656C148 46.4219 147.578 46.5625 147.016 46.1875C144.016 43.9375 142.094 39.9062 141.25 34.0938V40.5625C141.156 43.1875 141.203 45.1562 141.391 46.4688C141.484 47.3125 141.016 47.875 139.984 48.1562C138.859 48.5312 137.828 48.7656 136.891 48.8594C135.766 49.0469 135.25 48.5312 135.344 47.3125C135.438 46.0938 135.531 44.8281 135.625 43.5156C135.625 42.0156 135.672 40.5625 135.766 39.1562C133.609 42.1562 130.234 44.2656 125.641 45.4844C125.078 47.0781 123.812 47.875 121.844 47.875C119.781 47.3125 119.078 46 119.734 43.9375C120.203 42.1562 120.438 40.375 120.438 38.5938C120.156 37.4688 119.406 36.6719 118.188 36.2031C117.625 36.1094 117.391 35.875 117.484 35.5C117.484 35.2188 117.719 35.0781 118.188 35.0781C120.062 35.3594 121.375 34.6562 122.125 32.9688C123.625 30.1562 125.406 25.6094 127.469 19.3281C127.562 18.9531 127.75 18.8125 128.031 18.9062C128.219 19 128.312 19.2812 128.312 19.75C128.219 19.9375 128.172 20.0781 128.172 20.1719C128.078 20.2656 128.031 20.3594 128.031 20.4531C128.969 19.4219 129.578 18.0625 129.859 16.375C129.859 16.0938 129.953 15.9531 130.141 15.9531C130.234 15.9531 130.422 16.0469 130.703 16.2344C130.797 16.4219 130.938 16.6562 131.125 16.9375C131.312 17.2188 131.5 17.4062 131.688 17.5H144.062C144.906 16.1875 145.609 15.4844 146.172 15.3906C147.391 15.6719 148.984 16.7031 150.953 18.4844C151.422 19.0469 151.609 19.6094 151.516 20.1719C151.328 20.7344 150.859 20.9688 150.109 20.875C148.141 20.875 146.594 21.3438 145.469 22.2812C145.562 22.375 145.75 22.4688 146.031 22.5625C146.312 22.75 146.547 22.8438 146.734 22.8438C148.797 24.5312 149.172 26.3125 147.859 28.1875C146.078 29.6875 144.625 29.3594 143.5 27.2031C142.562 24.9531 141.016 23.0781 138.859 21.5781C138.484 21.3906 138.344 21.2031 138.438 21.0156C138.531 20.8281 138.859 20.6875 139.422 20.5938C140.828 20.7812 142.281 21.1094 143.781 21.5781L144.484 18.625H132.109C132.578 19.8438 132.672 21.1562 132.391 22.5625C131.359 24.4375 129.906 24.9531 128.031 24.1094C127.656 23.8281 127.422 23.5469 127.328 23.2656C125.734 30.2969 124.891 34.6094 124.797 36.2031C124.609 38.6406 124.844 41.0781 125.5 43.5156C125.5 43.7031 125.5 43.8906 125.5 44.0781C125.594 44.2656 125.688 44.4062 125.781 44.5C129.625 41.5 132.156 37.7969 133.375 33.3906H129.578C128.734 33.4844 127.984 33.5781 127.328 33.6719C126.953 33.8594 126.719 33.8125 126.625 33.5312C126.531 33.5312 126.438 33.4375 126.344 33.25C126.156 32.9688 126.062 32.6875 126.062 32.4062C125.969 32.3125 125.922 32.2188 125.922 32.125C125.922 32.0312 126.062 31.9844 126.344 31.9844C128.219 32.3594 129.484 32.5 130.141 32.4062H135.766V31.9844C135.672 30.6719 135.578 29.2188 135.484 27.625C135.203 26.6875 135.625 26.3125 136.75 26.5C138.344 26.5938 139.938 26.8281 141.531 27.2031C142.188 27.4844 142.281 27.9062 141.812 28.4688C141.344 28.75 141.156 29.1719 141.25 29.7344V32.4062H144.906C146.031 30.4375 146.875 29.4062 147.438 29.3125C148.469 29.6875 149.828 30.6719 151.516 32.2656C151.984 32.9219 151.938 33.2969 151.375 33.3906ZM134.781 20.5938C135.812 21.0625 137.125 21.7656 138.719 22.7031C139 22.9844 139.141 23.3125 139.141 23.6875C139.047 23.9688 138.812 24.1094 138.438 24.1094C137.875 24.2031 137.406 24.4375 137.031 24.8125C134.031 27.3438 131.312 29.0781 128.875 30.0156C128.312 30.2969 127.938 30.3438 127.75 30.1562C127.656 29.9688 127.844 29.5938 128.312 29.0312C130.75 26.5 132.438 23.9688 133.375 21.4375C133.562 20.5938 134.031 20.3125 134.781 20.5938ZM121.984 20.4531C121.516 18.7656 120.859 17.4531 120.016 16.5156C119.734 16.3281 119.641 16.1406 119.734 15.9531C119.734 15.8594 119.922 15.7656 120.297 15.6719C123.484 15.4844 125.594 16.1406 126.625 17.6406C127.469 19.6094 126.906 21.0156 124.938 21.8594C123.531 22.3281 122.547 21.8594 121.984 20.4531ZM119.172 29.3125C118.609 27.4375 117.953 26.0312 117.203 25.0938C116.922 24.8125 116.828 24.625 116.922 24.5312C116.922 24.4375 117.109 24.3438 117.484 24.25C120.766 24.1562 122.875 24.9531 123.812 26.6406C124.375 28.6094 123.766 29.9688 121.984 30.7188C120.578 31.2812 119.641 30.8125 119.172 29.3125ZM157.984 41.8281C157.516 42.0156 156.953 42.3906 156.297 42.9531C155.641 43.6094 155.125 43.4688 154.75 42.5312C154.188 41.0312 153.719 39.5312 153.344 38.0312C152.969 37.375 153.25 37 154.188 36.9062C154.375 36.9062 154.797 36.9062 155.453 36.9062C157.047 36.7188 158.312 36.5312 159.25 36.3438V26.3594H157C156.062 26.3594 155.359 26.4062 154.891 26.5C154.609 26.6875 154.422 26.6406 154.328 26.3594C154.141 26.2656 153.953 26.0312 153.766 25.6562C153.766 25.5625 153.766 25.4688 153.766 25.375C153.672 25.2812 153.625 25.1875 153.625 25.0938C153.625 25 153.719 24.9531 153.906 24.9531C155.125 25.1406 156.391 25.2344 157.703 25.2344H159.25V21.4375C159.156 20.6875 159.109 19.7969 159.109 18.7656C159.016 17.7344 158.922 16.6562 158.828 15.5312C158.547 14.6875 158.875 14.2656 159.812 14.2656C160.375 14.3594 161.453 14.5938 163.047 14.9688C163.703 15.0625 164.219 15.1094 164.594 15.1094C165.531 15.5781 165.672 16.1406 165.016 16.7969C164.359 17.0781 164.078 17.4531 164.172 17.9219V25.2344H164.312C164.312 25.2344 164.312 25.1875 164.312 25.0938C165.25 23.5 165.859 22.7031 166.141 22.7031C166.797 22.8906 167.594 23.3594 168.531 24.1094V22.4219C168.438 21.2969 168.391 20.2188 168.391 19.1875C168.297 18.1562 168.203 17.4062 168.109 16.9375C167.922 16.375 167.875 16.0469 167.969 15.9531C168.156 15.7656 168.531 15.6719 169.094 15.6719C170.688 15.8594 172.281 16.1406 173.875 16.5156C174.344 16.7031 174.578 16.9844 174.578 17.3594C174.672 17.6406 174.531 17.9219 174.156 18.2031C173.688 18.3906 173.5 18.7188 173.594 19.1875V27.0625C173.594 34.1875 172.609 39.2031 170.641 42.1094C168.953 44.9219 165.203 47.3125 159.391 49.2812C158.828 49.375 158.5 49.3281 158.406 49.1406C158.312 48.9531 158.5 48.7188 158.969 48.4375C164.406 44.7812 167.359 41.0312 167.828 37.1875C165.672 38.3125 162.391 39.8594 157.984 41.8281ZM181.328 34.0938V22.1406C181.234 20.9219 181.188 19.75 181.188 18.625C181.094 17.5 181 16.7031 180.906 16.2344C180.719 15.8594 180.719 15.5781 180.906 15.3906C181 15.2031 181.328 15.1094 181.891 15.1094C181.891 15.2031 181.984 15.25 182.172 15.25C184.328 15.3437 185.875 15.4844 186.812 15.6719C187.469 16.1406 187.562 16.7031 187.094 17.3594C186.531 17.7344 186.297 18.1094 186.391 18.4844V36.4844C186.391 39.2969 186.531 42.5312 186.812 46.1875C186.812 47.4062 186.344 48.2031 185.406 48.5781C184.656 48.8594 183.766 49.0938 182.734 49.2812C181.328 49.75 180.766 48.9062 181.047 46.75C181.141 42.3438 181.234 38.125 181.328 34.0938ZM174.859 33.8125V23.4062C174.766 22.0938 174.719 21.0156 174.719 20.1719C174.625 19.6094 174.625 19.2344 174.719 19.0469C174.531 18.2969 174.812 17.9688 175.562 18.0625C176.688 18.0625 178.188 18.25 180.062 18.625C180.906 19.0938 181 19.6094 180.344 20.1719C179.969 20.4531 179.781 20.875 179.781 21.4375V41.9688C179.875 43.4688 179.406 44.2656 178.375 44.3594C178.094 44.4531 177.812 44.5 177.531 44.5C176.781 44.5938 176.172 44.6406 175.703 44.6406C174.578 44.7344 174.156 44.2656 174.438 43.2344C174.531 42.0156 174.625 40.75 174.719 39.4375C174.812 38.3125 174.859 36.4375 174.859 33.8125ZM168.531 26.9219V26.3594H164.172V35.6406C165.578 35.3594 166.938 35.125 168.25 34.9375C168.344 34.1875 168.391 33.2031 168.391 31.9844C168.484 30.9531 168.531 29.2656 168.531 26.9219ZM193.281 36.2031V32.125C193.281 30.9062 193.234 29.9688 193.141 29.3125C193.141 28.5625 193.141 27.8594 193.141 27.2031C192.953 26.4531 193.328 26.125 194.266 26.2188C195.203 26.5938 196.938 27.1562 199.469 27.9062C199.469 28 199.469 28.0938 199.469 28.1875C199.562 28.1875 199.656 28.1875 199.75 28.1875H203.406V23.125H195.672C194.641 23.2188 193.562 23.2656 192.438 23.2656C191.406 23.3594 190.703 23.4531 190.328 23.5469C189.953 23.5469 189.719 23.4062 189.625 23.125C189.438 23.0312 189.25 22.8438 189.062 22.5625C188.969 22.375 188.922 22.2344 188.922 22.1406C188.828 22.0469 188.781 21.9531 188.781 21.8594C188.875 21.7656 189.016 21.7188 189.203 21.7188C189.953 21.8125 191.266 21.9531 193.141 22.1406C194.734 22.1406 195.953 22.1406 196.797 22.1406H216.766C218.078 20.0781 219.016 18.9531 219.578 18.7656C220.891 19.3281 222.297 20.4062 223.797 22C224.078 22.4688 224.172 22.7969 224.078 22.9844C223.984 23.1719 223.75 23.2656 223.375 23.2656C222.438 23.2656 220.797 23.2656 218.453 23.2656C216.109 23.1719 214.562 23.125 213.812 23.125H210.156C210.25 23.6875 210.109 24.0625 209.734 24.25C209.266 24.4375 209.078 24.7656 209.172 25.2344V28.1875H213.672C214.703 26.9688 215.406 26.3125 215.781 26.2188C217.844 26.9688 219.578 28.0469 220.984 29.4531C221.078 29.9219 220.891 30.25 220.422 30.4375C219.672 30.9062 219.344 31.2812 219.438 31.5625V33.1094C219.344 32.9219 219.484 35.4531 219.859 40.7031C220.047 42.5781 219.438 43.7969 218.031 44.3594C216.344 44.8281 214.844 45.2031 213.531 45.4844C212.594 45.5781 212.031 45.25 211.844 44.5C211.562 43 210.672 42.0625 209.172 41.6875C209.172 42.5312 209.172 43.6562 209.172 45.0625C209.266 46 209.312 46.6562 209.312 47.0312C209.312 47.875 208.891 48.4844 208.047 48.8594C207.953 48.8594 207.859 48.8594 207.766 48.8594C205.984 49.1406 204.672 49.2812 203.828 49.2812C202.984 49.1875 202.656 48.6719 202.844 47.7344C203.125 44.8281 203.312 40.7969 203.406 35.6406V29.3125H199.75C199.656 29.3125 199.609 29.3594 199.609 29.4531C199.516 29.5469 199.469 29.5469 199.469 29.4531C199 29.6406 198.812 29.9688 198.906 30.4375V42.5312C198.906 43.375 198.484 43.8906 197.641 44.0781C197.172 44.2656 196.469 44.4062 195.531 44.5C195.062 44.5 194.781 44.5 194.688 44.5C193.375 44.5 192.859 44.0781 193.141 43.2344C193.047 43.0469 193.047 42.5312 193.141 41.6875C193.141 40.0938 193.188 38.2656 193.281 36.2031ZM213.812 29.3125H209.172V38.1719V40.2812C212.734 40.5625 214.281 39.7656 213.812 37.8906V29.3125ZM203.547 19.0469C203.453 19.0469 203.406 18.9531 203.406 18.7656C203.219 17.2656 202.891 16.0469 202.422 15.1094C202.234 14.9219 202.188 14.7812 202.281 14.6875C202.375 14.5 202.609 14.4062 202.984 14.4062C206.547 14.5938 208.75 15.7656 209.594 17.9219C209.781 19.8906 208.938 21.1094 207.062 21.5781C205 22.1406 203.828 21.2969 203.547 19.0469ZM240.25 17.9219C240.062 16.7969 239.641 15.7656 238.984 14.8281C238.797 14.5469 238.703 14.3594 238.703 14.2656C238.797 14.1719 239.031 14.0781 239.406 13.9844C242.688 13.7969 244.75 14.5469 245.594 16.2344C245.969 17.4531 245.641 18.4375 244.609 19.1875H253.047C253.891 17.9688 254.641 17.3125 255.297 17.2188C256.516 17.7812 257.969 18.8125 259.656 20.3125C260.031 20.875 260.172 21.2969 260.078 21.5781C259.891 21.8594 259.516 22 258.953 22C257.641 22 256.328 22.2344 255.016 22.7031C255.109 23.0781 255.344 23.3125 255.719 23.4062C256.094 24.25 255.906 24.6719 255.156 24.6719H249.672V26.9219H250.234C251.266 25.3281 251.922 24.5781 252.203 24.6719C252.859 24.6719 253.938 25.375 255.438 26.7812C255.906 27.5312 255.766 27.9531 255.016 28.0469H249.672V30.2969H253.609C254.734 28.6094 255.438 27.8125 255.719 27.9062C256.562 28 257.781 28.7969 259.375 30.2969C259.656 30.6719 259.75 31 259.656 31.2812C259.562 31.5625 259.328 31.7031 258.953 31.7031C257.641 31.6094 256.188 31.5625 254.594 31.5625C253.281 31.4688 251.359 31.4219 248.828 31.4219H247.844C250.75 33.4844 254.641 34.5625 259.516 34.6562C259.984 34.75 260.219 34.8906 260.219 35.0781C260.312 35.3594 260.172 35.6406 259.797 35.9219C259.047 36.4844 258.297 37.6094 257.547 39.2969C257.266 39.9531 256.75 40.1406 256 39.8594C254.5 39.4844 253.141 38.8281 251.922 37.8906C251.828 39.4844 251.875 40.7031 252.062 41.5469C252.062 42.2969 251.828 42.8125 251.359 43.0938C251.547 43.1875 251.828 43.3281 252.203 43.5156C252.672 43.6094 253.047 43.7031 253.328 43.7969C255.109 44.5469 255.766 45.8125 255.297 47.5938C253.984 49.4688 252.531 49.6562 250.938 48.1562C249.156 46.2812 246.719 44.6406 243.625 43.2344C242.219 46.7031 237.438 48.7188 229.281 49.2812C228.812 49.2812 228.578 49.1875 228.578 49C228.578 48.7188 228.766 48.5312 229.141 48.4375C235.234 46.5625 238.656 43.9844 239.406 40.7031C239.5 40.1406 239.547 39.5781 239.547 39.0156C239.641 38.4531 239.688 37.7031 239.688 36.7656C239.594 36.2031 239.969 35.9219 240.812 35.9219C242.594 36.1094 244.188 36.2969 245.594 36.4844C246.344 36.7656 246.438 37.2344 245.875 37.8906C245.406 38.0781 245.125 38.3594 245.031 38.7344C244.75 40.1406 244.375 41.4062 243.906 42.5312C244.75 42.4375 245.688 42.4375 246.719 42.5312V35.5H238.422C238.141 35.6875 238.047 36.0156 238.141 36.4844V41.9688C238.141 42.9062 237.859 43.4219 237.297 43.5156C236.922 43.7031 236.031 43.9375 234.625 44.2188C234.25 44.2188 234.016 44.2188 233.922 44.2188C232.891 44.3125 232.469 43.7031 232.656 42.3906C232.75 41.3594 232.844 39.9531 232.938 38.1719V37.8906C231.156 38.8281 228.812 39.6719 225.906 40.4219C225.438 40.5156 225.203 40.5156 225.203 40.4219C225.203 40.3281 225.391 40.0938 225.766 39.7188C229.609 37.0938 232.516 34.3281 234.484 31.4219H232.234C231.391 31.5156 230.547 31.5625 229.703 31.5625C228.953 31.6562 228.344 31.75 227.875 31.8438C227.594 32.0312 227.312 31.9375 227.031 31.5625C226.844 31.4688 226.703 31.2812 226.609 31C226.516 30.7188 226.422 30.4844 226.328 30.2969C226.234 30.2031 226.188 30.1094 226.188 30.0156C226.281 29.9219 226.422 29.875 226.609 29.875C229.328 30.1562 231.625 30.2969 233.5 30.2969H235.469V28.0469H235.188C233.969 28.0469 233.172 28.0938 232.797 28.1875C232.328 28.375 232.047 28.3281 231.953 28.0469C231.578 27.8594 231.344 27.5312 231.25 27.0625C231.062 26.9688 231.016 26.875 231.109 26.7812C231.109 26.7812 231.25 26.7344 231.531 26.6406C232.562 26.8281 233.875 26.9219 235.469 26.9219V24.9531V24.6719H234.766C233.547 24.6719 232.75 24.7188 232.375 24.8125C232 25 231.766 25 231.672 24.8125C230.266 26.2188 228.766 26.3594 227.172 25.2344C226.141 23.8281 226.234 22.5156 227.453 21.2969C228.672 20.6406 229.562 19.4219 230.125 17.6406C230.125 17.3594 230.219 17.2188 230.406 17.2188C230.5 17.2188 230.688 17.3594 230.969 17.6406C231.344 18.3906 231.625 18.9062 231.812 19.1875H240.672C240.484 18.9062 240.344 18.4844 240.25 17.9219ZM253.328 20.3125H232.234C232.422 21.625 232.469 22.6562 232.375 23.4062C233.031 23.5938 234.062 23.6406 235.469 23.5469C235.188 22.3281 235.047 21.625 235.047 21.4375C234.859 20.9688 234.812 20.6875 234.906 20.5938C235 20.4062 235.328 20.3125 235.891 20.3125C236.453 20.4062 237.203 20.5 238.141 20.5938C239.078 20.6875 240.016 20.7812 240.953 20.875C241.703 21.1562 241.797 21.625 241.234 22.2812C240.766 22.5625 240.578 22.9375 240.672 23.4062V23.5469H244.469C244.375 23.3594 244.328 22.9844 244.328 22.4219C244.234 21.9531 244.188 21.5781 244.188 21.2969C244 20.9219 243.953 20.6875 244.047 20.5938C244.141 20.4062 244.516 20.3125 245.172 20.3125C245.453 20.4062 245.969 20.5 246.719 20.5938C248.219 20.7812 249.297 20.875 249.953 20.875C250.609 21.1562 250.703 21.625 250.234 22.2812C249.766 22.4688 249.578 22.8438 249.672 23.4062V23.5469H250.375C251.312 21.9531 252.016 21.1562 252.484 21.1562C252.484 21.1562 252.531 21.2031 252.625 21.2969C252.719 21.2969 252.859 21.2969 253.047 21.2969C253.047 21.2031 253.047 21.0625 253.047 20.875C253.141 20.6875 253.234 20.5 253.328 20.3125ZM239.688 32.9688C239.125 33.4375 238.656 33.8594 238.281 34.2344C238.375 34.3281 238.469 34.375 238.562 34.375H246.438C246.719 33.8125 247.047 33.3438 247.422 32.9688C247.234 32.7812 247.094 32.5469 247 32.2656C246.906 31.9844 246.812 31.7031 246.719 31.4219H241.516C241.609 32.0781 241.375 32.4062 240.812 32.4062C240.438 32.5 240.062 32.6875 239.688 32.9688ZM240.672 28.0469V30.2969H244.469V28.0469H240.672ZM240.672 24.6719V26.9219H244.469V24.6719H240.672ZM295.094 43.0938C295.656 43.375 295.938 43.6094 295.938 43.7969C295.938 44.0781 295.656 44.3125 295.094 44.5C292.938 44.7812 291.438 45.9062 290.594 47.875C290.125 48.7188 289.516 48.9062 288.766 48.4375C284.547 46.4688 281.031 44.0781 278.219 41.2656C274.094 44.3594 268.938 46.6562 262.75 48.1562C262.188 48.1562 261.812 48.0625 261.625 47.875C261.531 47.6875 261.766 47.5 262.328 47.3125C267.953 44.2188 272.219 40.9375 275.125 37.4688C271.844 32.5 270.016 26.6875 269.641 20.0312C269.453 19.5625 269.594 19.2812 270.062 19.1875C270.25 19.1875 270.438 19.5156 270.625 20.1719C272.406 25.7969 274.938 30.25 278.219 33.5312C279.812 31.0938 281.266 28.2344 282.578 24.9531C283.234 22.8906 283.797 20.5469 284.266 17.9219C284.359 16.8906 284.875 16.5156 285.812 16.7969C286.844 17.1719 288.484 17.7344 290.734 18.4844C291.672 19.2344 291.719 19.8438 290.875 20.3125C290.125 20.5 289.75 20.9219 289.75 21.5781C288.156 27.7656 285.672 32.9688 282.297 37.1875C285.766 39.7188 290.031 41.6875 295.094 43.0938ZM275.406 20.5938C275.125 18.8125 274.562 17.3125 273.719 16.0938C273.438 15.8125 273.391 15.5781 273.578 15.3906C273.672 15.2969 273.953 15.25 274.422 15.25C277.047 15.4375 279.109 16.5156 280.609 18.4844C281.734 20.8281 281.266 22.5625 279.203 23.6875C276.953 24.25 275.688 23.2188 275.406 20.5938ZM322.797 36.2031H310.141C309.297 36.2031 308.594 36.25 308.031 36.3438C307.75 36.5312 307.562 36.4844 307.469 36.2031C307.188 36.0156 306.906 35.6875 306.625 35.2188C306.438 35.125 306.391 35.0312 306.484 34.9375C306.484 34.9375 306.625 34.8906 306.906 34.7969C307.656 35.0781 308.969 35.1719 310.844 35.0781H324.906C325.188 34.5156 325.609 33.9531 326.172 33.3906C325.984 33.3906 325.797 33.3906 325.609 33.3906C324.672 33.4844 324.25 33.1562 324.344 32.4062V32.2656H313.375C313.375 32.9219 313 33.3906 312.25 33.6719C311.219 34.1406 310.375 34.3281 309.719 34.2344C308.594 34.3281 308.172 33.625 308.453 32.125C308.453 31.6562 308.453 30.9062 308.453 29.875C308.547 28.75 308.641 27.9531 308.734 27.4844V26.5C308.547 26.5938 308.5 26.6406 308.594 26.6406C308.312 27.0156 307.844 27.5312 307.188 28.1875C306.625 28.8438 306.203 29.3125 305.922 29.5938C306.016 29.5938 306.156 29.5938 306.344 29.5938C306.719 29.7812 306.953 30.0156 307.047 30.2969C307.047 30.5781 306.906 30.8125 306.625 31C306.156 31.2812 305.969 31.6562 306.062 32.125V40.8438C305.969 43.2812 306.016 45.0156 306.203 46.0469C306.297 47.4531 305.875 48.25 304.938 48.4375C304.188 48.8125 303.344 49.0469 302.406 49.1406C300.906 49.4219 300.297 48.5312 300.578 46.4688C300.672 45.7188 300.766 44.9688 300.859 44.2188C300.859 43.1875 300.906 42.2031 301 41.2656V33.5312C299.781 34.375 298.562 35.0781 297.344 35.6406C297.062 35.8281 296.875 35.875 296.781 35.7812C296.688 35.5938 296.734 35.3594 296.922 35.0781C300.297 31.4219 302.781 27.4375 304.375 23.125C304.375 22.4688 304.703 22.2344 305.359 22.4219C306.297 22.7031 307.281 23.0312 308.312 23.4062C308.219 22.9375 308.266 22.6562 308.453 22.5625C308.641 22.4688 308.969 22.4688 309.438 22.5625C310.188 22.75 311.172 23.125 312.391 23.6875C312.672 23.7812 313 23.875 313.375 23.9688H315.203C315.297 23.5938 315.391 22.9844 315.484 22.1406C315.578 21.5781 315.719 21.0156 315.906 20.4531H311.688C310.844 20.5469 310.141 20.6406 309.578 20.7344C309.203 20.8281 308.969 20.7812 308.875 20.5938C308.781 20.5 308.641 20.3594 308.453 20.1719C308.266 19.9844 308.172 19.7969 308.172 19.6094C307.984 19.5156 307.891 19.4219 307.891 19.3281C307.984 19.2344 308.125 19.1875 308.312 19.1875C309.719 19.375 311.078 19.4688 312.391 19.4688H316.047C316.047 19.375 316.047 19.2344 316.047 19.0469C316.422 16.9844 316.609 15.5781 316.609 14.8281C316.609 14.1719 316.938 13.9375 317.594 14.125C318.719 14.2187 320.359 14.5938 322.516 15.25C323.172 15.5312 323.219 15.9531 322.656 16.5156C322 16.8906 321.625 17.3594 321.531 17.9219C321.344 18.3906 321.25 18.9062 321.25 19.4688H324.203C325.234 17.5938 326.125 16.5156 326.875 16.2344C328.469 16.9844 329.969 18.0625 331.375 19.4688C331.562 20.3125 331.375 20.6875 330.812 20.5938C330.156 20.5938 328.938 20.5938 327.156 20.5938C325.094 20.5 323.641 20.4531 322.797 20.4531H320.969C320.688 21.7656 320.406 22.9375 320.125 23.9688H323.781C324.25 22.9375 324.812 22.3281 325.469 22.1406C327.719 22.8906 329.359 23.875 330.391 25.0938C330.391 25.4688 330.156 25.75 329.688 25.9375C329.312 26.125 329.125 26.4531 329.125 26.9219C329.125 27.2969 329.125 28 329.125 29.0312C329.219 29.875 329.312 30.5312 329.406 31C329.5 32.0312 329.312 32.6406 328.844 32.8281C329.594 33.4844 330.391 34.2812 331.234 35.2188C331.422 35.5938 331.469 35.875 331.375 36.0625C331.281 36.25 331.047 36.3438 330.672 36.3438C329.922 36.3438 328.891 36.3438 327.578 36.3438C326.453 36.25 324.859 36.2031 322.797 36.2031ZM316.469 40.9844V42.8125C316.375 43.9375 316.984 44.5 318.297 44.5H321.25C322.281 44.5938 323.312 43.1875 324.344 40.2812C324.625 39.4375 324.906 39.0625 325.188 39.1562C325.469 39.25 325.609 39.625 325.609 40.2812C325.234 42.5312 325.562 43.8906 326.594 44.3594C327.25 44.7344 327.578 45.2969 327.578 46.0469C327.578 46.7969 327.156 47.4062 326.312 47.875C325.094 48.5312 323.594 48.8594 321.812 48.8594H315.906C312.906 49.0469 311.547 47.6406 311.828 44.6406V42.25C311.734 40.75 311.641 39.2969 311.547 37.8906C311.453 37.5156 311.5 37.2344 311.688 37.0469C311.781 36.9531 312.109 36.9531 312.672 37.0469C313.984 37.3281 315.344 37.75 316.75 38.3125C317.5 38.7812 317.547 39.25 316.891 39.7188C316.516 40.1875 316.375 40.6094 316.469 40.9844ZM305.359 14.125C306.766 14.5938 308.312 15.1094 310 15.6719C310.375 15.9531 310.516 16.2812 310.422 16.6562C310.328 17.0312 310.094 17.2188 309.719 17.2188C309.531 17.2188 309.203 17.5 308.734 18.0625C308.641 18.25 308.594 18.3438 308.594 18.3438C305.781 21.7188 302.219 24.4375 297.906 26.5C297.531 26.6875 297.297 26.7344 297.203 26.6406C297.109 26.4531 297.203 26.2188 297.484 25.9375C300.672 22.5625 302.969 18.8594 304.375 14.8281C304.375 14.1719 304.703 13.9375 305.359 14.125ZM327.578 43.6562C327.484 41.5938 326.781 39.8594 325.469 38.4531C325.188 38.1719 325.047 37.9844 325.047 37.8906C325.141 37.7969 325.422 37.75 325.891 37.75C328.797 38.5 330.719 39.8125 331.656 41.6875C332.125 43.5625 331.75 44.6875 330.531 45.0625C328.938 45.8125 327.953 45.3438 327.578 43.6562ZM318.438 41.5469C318.156 40.1406 317.641 38.8281 316.891 37.6094C316.609 37.3281 316.516 37.1406 316.609 37.0469C316.703 36.8594 316.938 36.7656 317.312 36.7656C320.125 36.9531 321.859 37.7031 322.516 39.0156C323.172 40.9844 322.75 42.2969 321.25 42.9531C319.656 43.6094 318.719 43.1406 318.438 41.5469ZM307.047 42.6719C308.266 41.4531 309.109 40.1875 309.578 38.875C309.672 38.5938 309.812 38.4531 310 38.4531C310.094 38.4531 310.234 38.5938 310.422 38.875C311.547 41.3125 311.734 43.2812 310.984 44.7812C310.047 46.1875 308.734 46.4219 307.047 45.4844C305.922 44.6406 305.922 43.7031 307.047 42.6719ZM324.344 24.9531H323.219C323.031 25.2344 322.984 25.5156 323.078 25.7969V31.1406H324.344V24.9531ZM313.375 26.0781V31.1406H314.5V24.9531H313.797L313.656 25.0938C313.469 25.2812 313.375 25.6094 313.375 26.0781ZM318.297 25.7969V31.1406H319.422V24.9531H318.297C318.297 25.2344 318.297 25.5156 318.297 25.7969ZM360.062 23.2656H347.125C346.469 23.3594 345.766 23.4531 345.016 23.5469C344.641 23.6406 344.406 23.5938 344.312 23.4062C344.219 23.4062 344.125 23.4062 344.031 23.4062C344.031 23.3125 344.031 23.2188 344.031 23.125C343.75 23.5 343.469 23.9219 343.188 24.3906C342.906 24.9531 342.672 25.375 342.484 25.6562C342.578 25.6562 342.719 25.7031 342.906 25.7969C343.094 25.7969 343.234 25.7969 343.328 25.7969C343.703 25.9844 343.938 26.2188 344.031 26.5C344.031 26.7812 343.891 27.0156 343.609 27.2031C343.141 27.3906 342.953 27.8125 343.047 28.4688V34.9375C343.047 36.5312 343.047 38.4062 343.047 40.5625C343.141 42.625 343.281 44.4531 343.469 46.0469C343.469 47.3594 342.953 48.2031 341.922 48.5781C341.078 48.8594 340.141 49.0938 339.109 49.2812C337.516 49.75 336.906 48.9062 337.281 46.75C337.375 45.25 337.469 43.5625 337.562 41.6875C337.562 39.5312 337.609 37.375 337.703 35.2188V31.9844C336.391 33.2969 335.125 34.4219 333.906 35.3594C333.531 35.6406 333.297 35.6875 333.203 35.5C333.109 35.3125 333.203 35.0312 333.484 34.6562C336.672 28.2812 338.734 22.0938 339.672 16.0938C339.578 15.5312 339.953 15.25 340.797 15.25C343.234 15.7188 345.297 16.3281 346.984 17.0781C347.828 17.7344 347.875 18.2969 347.125 18.7656C346.281 19.0469 345.812 19.3281 345.719 19.6094C345.25 20.4531 344.875 21.2969 344.594 22.1406C345.438 22.1406 346.516 22.1406 347.828 22.1406H361.188C362.406 20.2656 363.25 19.2812 363.719 19.1875C364.844 19.6562 366.062 20.6406 367.375 22.1406C367.656 22.8906 367.516 23.3125 366.953 23.4062C366.297 23.4062 365.406 23.4062 364.281 23.4062C363.344 23.3125 361.938 23.2656 360.062 23.2656ZM351.766 36.2031C351.859 36.2969 352 36.4375 352.188 36.625C352.188 36.7188 352.234 36.7656 352.328 36.7656H357.812C358.656 35.3594 359.359 34.6094 359.922 34.5156C362.266 35.3594 364 36.4375 365.125 37.75C365.125 38.2188 364.891 38.5469 364.422 38.7344C364.141 39.1094 364 39.5312 364 40C364 41.0312 364 42.1562 364 43.375C364.094 44.4062 364.188 45.2031 364.281 45.7656C364.375 46.8906 364 47.5938 363.156 47.875C362.969 47.875 362.734 47.875 362.453 47.875C361.328 48.1562 360.531 48.2969 360.062 48.2969C358.938 48.4844 358.469 48.2031 358.656 47.4531V45.9062H351.203V47.3125C351.203 48.25 350.781 48.8125 349.938 49C349.562 49 349.094 49.0469 348.531 49.1406C347.969 49.1406 347.547 49.1875 347.266 49.2812C345.859 49.4688 345.391 48.8125 345.859 47.3125C345.859 46.75 345.859 45.8125 345.859 44.5C345.859 44.0312 345.859 43.375 345.859 42.5312C345.953 41.6875 346 40.75 346 39.7188C346 37.9375 345.906 36.625 345.719 35.7812C345.531 34.75 345.953 34.375 346.984 34.6562C348.953 35.2188 350.547 35.7344 351.766 36.2031ZM358.656 37.6094H351.906C351.812 37.7031 351.766 37.75 351.766 37.75C351.297 37.9375 351.109 38.2656 351.203 38.7344V45.0625H358.656V37.6094ZM357.672 28.0469H348.109C347.453 28.1406 346.75 28.2344 346 28.3281C345.625 28.5156 345.391 28.4688 345.297 28.1875C344.922 27.9062 344.688 27.5781 344.594 27.2031C344.406 27.1094 344.312 27.0156 344.312 26.9219C344.312 26.8281 344.453 26.7812 344.734 26.7812C345.859 26.9688 347.219 27.0625 348.812 27.0625H358.797C359.922 25.1875 360.766 24.1562 361.328 23.9688C362.453 24.4375 363.672 25.4219 364.984 26.9219C365.453 27.5781 365.359 28 364.703 28.1875C364.141 28.1875 363.109 28.1875 361.609 28.1875C359.828 28.0938 358.516 28.0469 357.672 28.0469ZM356.969 33.3906H348.25C347.219 33.3906 346.516 33.4375 346.141 33.5312C345.766 33.7188 345.531 33.7188 345.438 33.5312C345.156 33.3438 344.922 33.0625 344.734 32.6875C344.641 32.5938 344.594 32.5 344.594 32.4062C344.312 32.2188 344.406 32.125 344.875 32.125C345.906 32.3125 347.266 32.3594 348.953 32.2656H358.094C359.219 30.3906 360.062 29.3594 360.625 29.1719C361.656 29.4531 362.922 30.4375 364.422 32.125C364.703 32.875 364.562 33.2969 364 33.3906C361.938 33.3906 359.594 33.3906 356.969 33.3906ZM352.469 20.5938C352.281 18.7188 351.766 17.3594 350.922 16.5156C350.641 16.2344 350.547 16 350.641 15.8125C350.734 15.7188 350.969 15.625 351.344 15.5312C354.344 15.625 356.312 16.2812 357.25 17.5C358.188 19.5625 357.672 21.0156 355.703 21.8594C353.734 22.4219 352.656 22 352.469 20.5938ZM387.062 17.0781C386.594 17.7344 386.125 18.25 385.656 18.625H391C391.75 17.2188 392.312 16.5156 392.688 16.5156C394.75 17.1719 396.625 18.2031 398.312 19.6094C398.5 20.0781 398.359 20.5 397.891 20.875C397.422 21.1562 397.188 21.4844 397.188 21.8594C397.188 23.9219 397.188 26.3125 397.188 29.0312C397.281 31.1875 397.375 32.4062 397.469 32.6875C397.562 33.9062 397.188 34.6094 396.344 34.7969C395.312 35.0781 394.234 35.2188 393.109 35.2188C391.984 35.4062 391.516 35.125 391.703 34.375V32.125H381.016V33.6719C381.016 34.6094 380.641 35.125 379.891 35.2188C378.578 35.4062 377.5 35.5 376.656 35.5C375.25 35.7812 374.781 34.9375 375.25 32.9688C375.344 31.9375 375.391 28.375 375.391 22.2812C375.391 21.1562 375.344 20.3594 375.25 19.8906C375.25 19.2344 375.25 18.6719 375.25 18.2031C375.062 17.6406 375.062 17.3125 375.25 17.2188C375.344 17.0312 375.719 16.9375 376.375 16.9375C377.969 17.3125 379.609 17.7812 381.297 18.3438C381.391 18.5312 381.531 18.625 381.719 18.625H382.281C382.281 17.5938 382.281 16.2812 382.281 14.6875C382.188 14.5 382.188 14.3594 382.281 14.2656C382.375 14.1719 382.609 14.125 382.984 14.125C385.141 14.4062 386.922 14.6875 388.328 14.9688C388.703 15.1563 388.891 15.4375 388.891 15.8125C388.797 16.2812 388.562 16.5156 388.188 16.5156C387.625 16.5156 387.25 16.7031 387.062 17.0781ZM384.672 43.9375H388.75C390.531 44.3125 391.938 42.4844 392.969 38.4531C393.25 37.7031 393.531 37.375 393.812 37.4688C394.188 37.4688 394.375 37.8438 394.375 38.5938C394.375 41.0312 394.844 42.5781 395.781 43.2344C396.625 43.8906 397.047 44.5 397.047 45.0625C397.047 45.7188 396.625 46.375 395.781 47.0312C394.375 47.875 392.172 48.2969 389.172 48.2969H382.281C378.812 48.2031 377.078 46.6562 377.078 43.6562V41.9688C376.984 40.9375 376.938 40 376.938 39.1562C376.844 38.2188 376.75 37.5156 376.656 37.0469C376.469 36.5781 376.422 36.25 376.516 36.0625C376.703 35.875 377.078 35.7812 377.641 35.7812C378.109 35.9688 378.625 36.0625 379.188 36.0625C380.688 36.3438 381.766 36.5312 382.422 36.625C382.797 36.8125 383.031 37.0469 383.125 37.3281C383.125 37.7031 382.984 37.9844 382.703 38.1719C382.422 38.3594 382.281 38.6406 382.281 39.0156V40.9844C382.188 43.0469 382.984 44.0312 384.672 43.9375ZM397.891 44.0781C397.609 41.8281 396.766 39.6719 395.359 37.6094C395.172 37.4219 395.125 37.2812 395.219 37.1875C395.312 37.0938 395.547 37 395.922 36.9062C399.578 37.5625 402.016 39.0156 403.234 41.2656C403.797 43.2344 403.234 44.5938 401.547 45.3438C399.578 46 398.359 45.5781 397.891 44.0781ZM370.188 42.5312C371.688 41.0312 372.766 39.0625 373.422 36.625C373.422 36.4375 373.516 36.2969 373.703 36.2031C373.797 36.2969 373.938 36.4375 374.125 36.625C376 39.8125 376.422 42.4375 375.391 44.5C374.359 46.0938 373 46.6094 371.312 46.0469C369.438 45.0156 369.062 43.8438 370.188 42.5312ZM385.375 40.8438C384.906 38.7812 384.062 37 382.844 35.5C382.469 35.2188 382.328 35.0312 382.422 34.9375C382.516 34.8438 382.797 34.7969 383.266 34.7969C386.734 35.3594 389.125 36.5312 390.438 38.3125C391 40.0938 390.578 41.5 389.172 42.5312C387.016 43.4688 385.75 42.9062 385.375 40.8438ZM381.016 23.8281V26.9219H391.703V23.8281H381.016ZM391.703 19.75H381.578C381.203 19.9375 381.016 20.3125 381.016 20.875V22.8438H391.703V19.75ZM381.016 28.0469V31H391.703V28.0469H381.016ZM439.234 23.4062H430.094V29.5938C430.938 28.375 431.547 27.7656 431.922 27.7656C433.797 28.4219 435.484 29.4062 436.984 30.7188C437.734 31.6562 437.641 32.2656 436.703 32.5469C436.047 32.6406 435.578 33.1562 435.297 34.0938C434.453 36.5312 433.047 38.7344 431.078 40.7031C433.328 42.1094 436 42.9531 439.094 43.2344C439.656 43.3281 439.938 43.5156 439.938 43.7969C439.938 44.0781 439.703 44.3125 439.234 44.5C438.109 44.875 437.266 46.0469 436.703 48.0156C436.422 48.6719 435.953 48.8594 435.297 48.5781C431.547 47.2656 428.734 45.7656 426.859 44.0781C423.672 45.9531 419.969 47.4531 415.75 48.5781C414.906 48.6719 414.531 48.625 414.625 48.4375C414.344 48.1562 414.625 47.875 415.469 47.5938C419.219 45.625 422.312 43.4688 424.75 41.125C423.531 38.9688 422.641 35.5938 422.078 31C421.797 31.0938 421.422 31.1406 420.953 31.1406C420.578 31.1406 420.344 31.1406 420.25 31.1406C419.875 31.3281 419.594 31.2344 419.406 30.8594C419.219 30.7656 419.078 30.5312 418.984 30.1562C418.141 30.7188 417.25 31.2812 416.312 31.8438C416.312 33.5312 416.312 35.5469 416.312 37.8906C416.406 40.2344 416.5 42.2031 416.594 43.7969C416.781 45.6719 416.219 46.8906 414.906 47.4531C413.969 47.9219 412.891 48.25 411.672 48.4375C410.359 48.7188 409.656 48.4375 409.562 47.5938C409.188 45.9062 408.391 44.875 407.172 44.5C406.234 44.5 405.859 44.2656 406.047 43.7969C405.953 43.4219 406.422 43.2812 407.453 43.375C410.078 44.125 411.25 43.2812 410.969 40.8438V35.2188C410.406 35.4062 409.938 35.6406 409.562 35.9219C409.375 36.0156 409.234 36.1094 409.141 36.2031C408.766 36.3906 408.625 36.5312 408.719 36.625C408.438 37.0938 408.156 37.3281 407.875 37.3281C407.594 37.2344 407.359 36.9531 407.172 36.4844C406.703 35.4531 406.281 34.1406 405.906 32.5469C405.625 31.8906 405.953 31.5156 406.891 31.4219C407.172 31.4219 407.688 31.3281 408.438 31.1406C409.562 30.8594 410.406 30.625 410.969 30.4375V24.25H409.281C408.156 24.25 407.406 24.2969 407.031 24.3906C406.656 24.5781 406.422 24.5312 406.328 24.25C406.234 24.1562 406.141 24.0156 406.047 23.8281C405.859 23.6406 405.766 23.4531 405.766 23.2656C405.672 23.0781 405.625 22.9844 405.625 22.9844C405.625 22.8906 405.766 22.8438 406.047 22.8438C406.234 22.9375 406.75 23.0312 407.594 23.125C408.438 23.125 409.188 23.125 409.844 23.125H410.969V22.5625C410.875 21.1562 410.781 19.8906 410.688 18.7656C410.594 17.7344 410.5 16.9844 410.406 16.5156C410.031 15.5781 410.406 15.1563 411.531 15.25C413.406 15.5312 415.141 15.8594 416.734 16.2344C417.766 16.7031 417.906 17.2656 417.156 17.9219C416.594 18.2031 416.312 18.625 416.312 19.1875V21.7188C417.062 20.9688 417.531 20.5938 417.719 20.5938C418.094 20.6875 418.891 21.2031 420.109 22.1406C420.766 22.3281 421.844 22.375 423.344 22.2812H424.75V19.8906C424.656 18.3906 424.562 17.2188 424.469 16.375C424.188 15.3437 424.562 14.875 425.594 14.9688C427.75 15.25 429.391 15.5312 430.516 15.8125C431.172 16.0938 431.172 16.5625 430.516 17.2188C430.234 17.4062 430.094 17.8281 430.094 18.4844V22.2812H432.625C433.656 20.2188 434.453 19.1406 435.016 19.0469C436.141 19.5156 437.688 20.6406 439.656 22.4219C439.844 23.0781 439.703 23.4062 439.234 23.4062ZM420.672 24.25H416.312V28.8906C417.438 28.6094 418.422 28.3281 419.266 28.0469C419.734 27.9531 420.062 28.0938 420.25 28.4688C420.344 28.9375 420.203 29.3125 419.828 29.5938C419.734 29.6875 419.688 29.7344 419.688 29.7344C420.25 29.9219 421.375 29.9688 423.062 29.875H424.75V23.4062H422.641C422.172 23.4062 421.703 23.4062 421.234 23.4062C421.328 23.9688 421.141 24.25 420.672 24.25ZM429.812 31H423.344C424.281 33.7188 425.641 35.9688 427.422 37.75C428.734 35.5 429.531 33.25 429.812 31ZM465.672 25.6562H462.578C465.766 32.6875 470.031 37.1875 475.375 39.1562C476.031 39.4375 476.359 39.6719 476.359 39.8594C476.359 40.1406 476.125 40.4219 475.656 40.7031C474.25 41.5469 472.984 42.8125 471.859 44.5C471.297 45.0625 470.688 45.1094 470.031 44.6406C465.906 41.7344 463.047 35.4062 461.453 25.6562H461.312V35.2188C461.219 36.4375 461.266 38.8281 461.453 42.3906C461.547 44.1719 461.641 45.5312 461.734 46.4688C461.922 47.5 461.453 48.2031 460.328 48.5781C459.484 48.9531 458.453 49.2344 457.234 49.4219C455.734 49.7969 455.125 49.0469 455.406 47.1719C455.5 45.6719 455.594 43.9844 455.688 42.1094C455.688 39.9531 455.734 37.7969 455.828 35.6406V32.6875C452.922 37.5625 448.609 41.5 442.891 44.5C442.328 44.7812 442 44.7812 441.906 44.5C441.719 44.5 441.859 44.2656 442.328 43.7969C447.766 37.3281 451.328 31.2812 453.016 25.6562H448.516C446.734 25.75 444.906 25.8438 443.031 25.9375C442.656 26.0312 442.422 25.9844 442.328 25.7969C442.234 25.7969 442.141 25.75 442.047 25.6562C441.766 25.2812 441.625 24.9531 441.625 24.6719C441.531 24.5781 441.484 24.4844 441.484 24.3906C441.484 24.2969 441.625 24.25 441.906 24.25C442.656 24.5312 445.328 24.625 449.922 24.5312H455.828V21.4375C455.734 20.2188 455.688 19.0469 455.688 17.9219C455.594 16.7969 455.5 15.9531 455.406 15.3906C455.219 14.9219 455.172 14.5938 455.266 14.4062C455.453 14.3125 455.828 14.2656 456.391 14.2656C456.953 14.3594 457.703 14.4531 458.641 14.5469C459.578 14.6406 460.656 14.7812 461.875 14.9688C462.344 15.1563 462.625 15.4375 462.719 15.8125C462.812 16.1875 462.625 16.5156 462.156 16.7969C461.594 17.0781 461.312 17.4531 461.312 17.9219V24.5312H468.344C468.531 24.25 468.719 23.9688 468.906 23.6875C467.5 23.9688 466.562 23.3594 466.094 21.8594C465.625 20.2656 464.688 18.9062 463.281 17.7812C462.906 17.5938 462.766 17.4062 462.859 17.2188C462.953 17.0312 463.234 16.8906 463.703 16.7969C467.172 16.6094 469.469 17.125 470.594 18.3438C471.25 19.2812 471.531 20.2188 471.438 21.1562C472.469 21.5312 473.922 22.6562 475.797 24.5312C475.984 24.9062 476.031 25.2344 475.938 25.5156C475.844 25.7969 475.656 25.8906 475.375 25.7969C473.781 25.7969 472.375 25.7969 471.156 25.7969C470.219 25.7031 468.391 25.6562 465.672 25.6562ZM491.406 14.2656C494.312 15.0156 496.375 15.5312 497.594 15.8125C497.969 16 498.156 16.2812 498.156 16.6562C498.062 17.125 497.828 17.3594 497.453 17.3594C497.359 17.4531 497.266 17.5 497.172 17.5C496.516 17.7812 496.094 18.2031 495.906 18.7656C495.719 19.0469 495.531 19.4219 495.344 19.8906C495.156 20.3594 495.016 20.6875 494.922 20.875H504.062C505.562 18.625 506.5 17.4531 506.875 17.3594C508.562 18.0156 510.203 19.2344 511.797 21.0156C511.984 21.2969 512.078 21.5781 512.078 21.8594C511.984 22.0469 511.797 22.1406 511.516 22.1406C510.203 22.1406 508.844 22.1406 507.438 22.1406C506.219 22.0469 504.391 22 501.953 22H494.359C493.516 23.9688 492.531 25.7031 491.406 27.2031H499.844C500.594 25.8906 501.203 25.1875 501.672 25.0938C504.016 25.9375 505.891 27.0625 507.297 28.4688C507.203 28.8438 506.969 29.2188 506.594 29.5938C506.125 29.7812 505.938 30.1562 506.031 30.7188V45.0625C506.125 46.6562 505.281 47.7344 503.5 48.2969C502.469 48.6719 501.344 49 500.125 49.2812C498.906 49.5625 498.344 49.3281 498.438 48.5781C498.25 47.0781 497.312 46 495.625 45.3438C495.062 45.0625 494.828 44.8281 494.922 44.6406C494.828 44.5469 495.156 44.5 495.906 44.5C496 44.5 496.141 44.5 496.328 44.5C497.359 44.5938 498.25 44.6875 499 44.7812C499.938 44.7812 500.406 44.2188 500.406 43.0938V38.875H491.969V47.0312C491.969 47.9688 491.594 48.5312 490.844 48.7188C490.281 48.8125 489.672 48.9062 489.016 49C488.359 49 487.75 49.0469 487.188 49.1406C486.344 49.1406 486.016 48.7188 486.203 47.875C486.484 46.1875 486.672 43.6094 486.766 40.1406V32.8281C484.234 34.9844 481.469 36.7188 478.469 38.0312C478.094 38.2188 477.812 38.2188 477.625 38.0312C477.438 37.75 477.531 37.4219 477.906 37.0469C482.594 32.8281 486.016 27.8125 488.172 22H484.094C483.156 22.0938 482.172 22.1406 481.141 22.1406C480.297 22.2344 479.641 22.3281 479.172 22.4219C478.891 22.5156 478.656 22.4219 478.469 22.1406C478.281 22.0469 478.141 21.8594 478.047 21.5781C477.859 21.3906 477.719 21.2031 477.625 21.0156C477.531 20.8281 477.484 20.7344 477.484 20.7344C477.484 20.6406 477.625 20.5938 477.906 20.5938C479.781 20.7812 482.266 20.875 485.359 20.875H488.594C489.344 18.5312 489.859 16.6094 490.141 15.1094C490.141 14.3594 490.562 14.0781 491.406 14.2656ZM491.969 33.5312V37.8906H500.406V33.5312H491.969ZM491.969 29.1719V32.5469H500.406V28.3281H492.109C491.922 28.5156 491.875 28.7969 491.969 29.1719ZM528.953 41.2656V22.5625C528.859 22.375 528.812 21.9531 528.812 21.2969C528.812 20.5469 528.812 19.9844 528.812 19.6094C528.438 19.7031 528.156 19.9375 527.969 20.3125C527.219 21.5312 525.812 23.2656 523.75 25.5156C523.375 25.9844 523.047 26.4062 522.766 26.7812C526.422 28.9375 528.25 31.7969 528.25 35.3594C528.156 38.5469 526.656 40.5156 523.75 41.2656C523 41.4531 522.578 41.1719 522.484 40.4219C522.297 39.2969 521.734 38.5469 520.797 38.1719V45.7656C520.797 47.1719 520.375 47.9688 519.531 48.1562C519.156 48.25 518.453 48.3906 517.422 48.5781C517.141 48.5781 516.953 48.625 516.859 48.7188C515.359 49 514.797 48.1562 515.172 46.1875C515.266 44.9688 515.359 42.8125 515.453 39.7188C515.453 36.4375 515.5 33.0156 515.594 29.4531V23.125C515.594 21.3438 515.547 20.0312 515.453 19.1875C515.453 18.1562 515.406 17.2188 515.312 16.375C515.219 15.8125 515.266 15.4844 515.453 15.3906C515.547 15.2031 515.875 15.1563 516.438 15.25C517.656 15.5312 519.297 16.0938 521.359 16.9375C521.547 17.125 521.734 17.2656 521.922 17.3594H522.906C523.75 15.9531 524.453 15.2031 525.016 15.1094C525.578 15.2969 526.797 16.0469 528.672 17.3594C528.672 16.9844 528.625 16.6094 528.531 16.2344C528.344 15.2969 528.719 14.875 529.656 14.9688C531.531 15.5312 533.078 16.0938 534.297 16.6562H538.938C539.594 15.3437 540.156 14.6406 540.625 14.5469C542.781 15.3906 544.562 16.5156 545.969 17.9219C545.969 18.2969 545.734 18.625 545.266 18.9062C544.797 19.1875 544.609 19.4688 544.703 19.75V25.9375C544.703 27.25 544.703 28.4688 544.703 29.5938C544.703 30.625 544.234 31.3281 543.297 31.7031C544.891 32.7344 546.062 33.5781 546.812 34.2344C547.094 34.5156 547.188 34.7969 547.094 35.0781C547 35.4531 546.812 35.5938 546.531 35.5C545.781 35.5 545.172 35.6406 544.703 35.9219C542.453 36.7656 540.766 37.2812 539.641 37.4688C541.609 40.375 544.328 42.4375 547.797 43.6562C548.172 43.8438 548.359 44.0781 548.359 44.3594C548.359 44.4531 548.172 44.5938 547.797 44.7812C546.391 45.25 545.172 46.3281 544.141 48.0156C543.672 48.6719 543.109 48.7656 542.453 48.2969C540.297 46.7969 538.75 45.1094 537.812 43.2344C534.531 45.2031 532.375 46.9375 531.344 48.4375C530.781 49.375 530.219 49.5625 529.656 49C528.625 47.7812 527.781 46.4688 527.125 45.0625C526.656 44.6875 526.703 44.3125 527.266 43.9375C528.391 43.2812 528.953 42.3906 528.953 41.2656ZM521.781 27.0625L523.188 18.2031H521.781C521.594 18.3906 521.547 18.4375 521.641 18.3438C520.984 18.7188 520.703 19.1406 520.797 19.6094V36.625C522.953 37 523.984 35.9688 523.891 33.5312C524.078 31.75 523.375 29.5938 521.781 27.0625ZM539.219 23.8281H534.016V29.3125H539.219V23.8281ZM534.016 18.7656V22.7031H539.219V17.7812H534.719C534.25 17.7812 534.016 18.1094 534.016 18.7656ZM537.109 41.5469C535.984 38.9219 535.375 35.2188 535.281 30.4375H534.016V42.6719L537.109 41.5469ZM539.219 30.4375H536.406C536.969 32.6875 537.812 34.7031 538.938 36.4844C540.062 35.0781 540.906 33.625 541.469 32.125C541.094 32.125 540.859 32.1719 540.766 32.2656C539.641 32.4531 539.125 32.125 539.219 31.2812V30.4375ZM572.828 45.2031C572.828 45.0156 572.781 44.8281 572.688 44.6406C572.688 44.5469 572.688 44.5 572.688 44.5C565.938 45.8125 560.828 47.125 557.359 48.4375C556.141 49.1875 555.438 49.1406 555.25 48.2969C554.5 46.8906 553.891 45.25 553.422 43.375C553.234 42.7188 553.516 42.2969 554.266 42.1094C555.859 41.9219 557.031 41.3594 557.781 40.4219C559.281 37.7031 560.641 33.3438 561.859 27.3438C562.047 26.5 562.562 26.2188 563.406 26.5C565.281 26.9688 567.344 27.625 569.594 28.4688C570.062 28.75 570.297 29.0312 570.297 29.3125C570.297 29.6875 570.062 29.9688 569.594 30.1562C569.031 30.4375 568.422 31 567.766 31.8438C564.859 36.625 562.328 40.2344 560.172 42.6719C562.422 42.7656 566.359 42.6719 571.984 42.3906C571.422 40.9844 570.297 39.2031 568.609 37.0469C568.516 36.8594 568.422 36.6719 568.328 36.4844C568.047 36.2031 567.953 35.9688 568.047 35.7812C568.141 35.5938 568.422 35.5469 568.891 35.6406C573.859 37.3281 577.188 39.7188 578.875 42.8125C579.906 45.5312 579.297 47.5 577.047 48.7188C574.891 49.375 573.484 48.2031 572.828 45.2031ZM583.375 29.1719C584.031 29.4531 584.359 29.7344 584.359 30.0156C584.359 30.3906 584.031 30.6719 583.375 30.8594C581.969 31.6094 580.562 32.9688 579.156 34.9375C578.5 35.5938 577.891 35.6875 577.328 35.2188C572.266 31.375 569.312 24.8594 568.469 15.6719C568.375 15.2031 568.422 14.9219 568.609 14.8281C568.703 14.7344 569.078 14.7344 569.734 14.8281C570.953 15.2031 571.75 15.4844 572.125 15.6719C572.5 15.9531 572.594 16.2344 572.406 16.5156C572.125 16.7969 571.891 17.0312 571.703 17.2188C571.328 17.5 571.234 17.8281 571.422 18.2031C573.484 23.4531 577.469 27.1094 583.375 29.1719ZM559.047 15.5312C560.547 15.8125 562.562 16.4219 565.094 17.3594C565.562 17.6406 565.797 17.9688 565.797 18.3438C565.797 18.7188 565.609 19 565.234 19.1875C564.672 19.4688 564.203 19.8906 563.828 20.4531C559.422 28.2344 554.781 33.7188 549.906 36.9062C549.344 37.2812 549.016 37.375 548.922 37.1875C548.734 37 548.828 36.6719 549.203 36.2031C552.953 31.4219 555.859 24.7656 557.922 16.2344C558.016 15.6719 558.391 15.4375 559.047 15.5312ZM610.656 18.9062H595.609C593.547 18.9062 592.141 19 591.391 19.1875C591.203 19.2812 590.969 19.1406 590.688 18.7656C590.5 18.6719 590.312 18.4844 590.125 18.2031C590.031 18.0156 589.984 17.875 589.984 17.7812C589.797 17.5938 589.75 17.5 589.844 17.5C589.844 17.4062 589.984 17.3594 590.266 17.3594C591.484 17.6406 593.359 17.7812 595.891 17.7812H609.531C610.75 16.0938 611.641 15.2031 612.203 15.1094C614.266 15.9531 616.094 17.2188 617.688 18.9062C617.781 19.5625 617.641 19.9375 617.266 20.0312C616.703 20.5 616.422 20.875 616.422 21.1562V29.0312C616.422 31.5625 616.422 34.3281 616.422 37.3281C616.516 39.9531 616.656 41.9688 616.844 43.375C617.031 45.625 616.328 47.125 614.734 47.875C613.703 48.4375 612.438 48.9062 610.938 49.2812C609.719 49.5625 609.062 49.2812 608.969 48.4375C608.688 46.6562 607.75 45.5781 606.156 45.2031C605.219 44.8281 604.844 44.5938 605.031 44.5C605.031 44.125 605.547 43.9844 606.578 44.0781C609.578 44.3594 610.938 43.5625 610.656 41.6875V18.9062ZM595.75 29.4531C595.844 29.6406 595.984 29.7344 596.172 29.7344H600.391C601.328 28.2344 602.031 27.4375 602.5 27.3438C604.281 28 605.922 29.0312 607.422 30.4375C607.422 30.9062 607.281 31.2812 607 31.5625C606.438 32.0312 606.203 32.4062 606.297 32.6875C606.203 36.7188 606.25 39.2969 606.438 40.4219C606.531 41.4531 606.203 42.0625 605.453 42.25C604.422 42.625 603.344 42.8125 602.219 42.8125C601.375 43 601 42.7188 601.094 41.9688V39.5781H595.469V40.8438C595.469 42.3438 595.047 43.1875 594.203 43.375C593.828 43.4688 593.312 43.5625 592.656 43.6562C591.906 43.8438 591.391 43.9375 591.109 43.9375C589.984 44.125 589.562 43.6094 589.844 42.3906C589.938 39.8594 590.031 36.9062 590.125 33.5312C590.125 30.7188 590.078 29.0312 589.984 28.4688C589.891 28.0938 589.891 27.8125 589.984 27.625C590.172 27.5312 590.5 27.5312 590.969 27.625C591.906 27.9062 593.5 28.5156 595.75 29.4531ZM601.094 30.8594H595.609C595.422 31.1406 595.375 31.4219 595.469 31.7031V38.5938H601.094V30.8594ZM590.828 23.9688H602.922C603.859 22.0938 604.656 21.0156 605.312 20.7344C606.625 21.2031 608.125 22.2812 609.812 23.9688C610 24.25 610.094 24.5312 610.094 24.8125C610 25.0938 609.812 25.1875 609.531 25.0938C608.688 25.0938 606.859 25.0938 604.047 25.0938C603.203 25.0938 602.5 25.0938 601.938 25.0938H590.266C588.859 25.0938 587.969 25.1406 587.594 25.2344C587.219 25.4219 586.984 25.375 586.891 25.0938C586.797 25 586.656 24.8594 586.469 24.6719C586.281 24.4844 586.188 24.2969 586.188 24.1094C586 23.9219 585.906 23.7812 585.906 23.6875C585.906 23.6875 586.047 23.6875 586.328 23.6875C586.797 23.7812 587.5 23.875 588.438 23.9688C589.469 23.9688 590.266 23.9688 590.828 23.9688Z" fill="#083975"/>
<path d="M117.312 65.5V61.25H118C118.625 63.7083 119.792 64.9375 121.5 64.9375C122.833 64.9375 123.521 64.3333 123.562 63.125C123.562 62.4583 122.688 61.8125 120.938 61.1875C118.562 60.3958 117.375 59.3125 117.375 57.9375C117.458 55.6875 118.708 54.4792 121.125 54.3125C121.875 54.3125 122.604 54.5208 123.312 54.9375C123.562 55.0625 123.75 55.125 123.875 55.125C124.042 55.1667 124.25 54.9583 124.5 54.5H125.125V58.3125H124.5C123.875 56.2292 122.833 55.1458 121.375 55.0625C120.167 55.1458 119.542 55.6667 119.5 56.625C119.5 57.375 120.333 58.0208 122 58.5625C124.5 59.3542 125.75 60.5208 125.75 62.0625C125.583 64.2292 124.292 65.3958 121.875 65.5625C120.958 65.5625 120.062 65.4167 119.188 65.125C118.896 64.9583 118.708 64.875 118.625 64.875C118.417 64.875 118.188 65.0833 117.938 65.5H117.312ZM131 59.375H134.562V56.1875C134.604 55.4375 134.146 55.0833 133.188 55.125V54.5H138.812V55.125C137.688 55.0833 137.167 55.4375 137.25 56.1875V63.8125C137.167 64.6042 137.688 64.9583 138.812 64.875V65.5H133.188V64.875C134.146 64.9583 134.604 64.6042 134.562 63.8125V60.0625H131V63.8125C130.917 64.6042 131.375 64.9583 132.375 64.875V65.5H126.812V64.875C127.854 64.9583 128.354 64.6042 128.312 63.8125V56.1875C128.354 55.4375 127.854 55.0833 126.812 55.125V54.5H132.375V55.125C131.375 55.0833 130.917 55.4375 131 56.1875V59.375ZM149.188 54.5L149.312 58.4375H148.625C148.042 56.3542 146.792 55.2917 144.875 55.25C143.917 55.2083 143.479 55.5417 143.562 56.25V59.375C144.938 59.5 145.771 58.875 146.062 57.5H146.688V61.9375H146.062C145.771 60.6042 144.938 59.9792 143.562 60.0625V63.75C143.479 64.5 143.917 64.8333 144.875 64.75C146.917 64.7083 148.25 63.5625 148.875 61.3125H149.562L149.438 65.5H139.312V64.875C140.396 64.9583 140.917 64.6042 140.875 63.8125V56.1875C140.917 55.4375 140.396 55.0833 139.312 55.125V54.5H149.188ZM150.75 55.125V54.5H154.625L160 62H160.062V56.375C160.146 55.6667 159.583 55.25 158.375 55.125V54.5H162.375V55.125C161.333 55.25 160.854 55.6667 160.938 56.375V65.5H159.438L153.312 57H153.25V63.8125C153.125 64.6042 153.75 64.9583 155.125 64.875V65.5H150.812V64.875C151.896 64.9583 152.417 64.6042 152.375 63.8125V56.1875C152.417 55.4375 151.875 55.0833 150.75 55.125ZM171.625 61.25L171.562 65.5H163V64.6875L168.75 55.25H167.688C165.396 55.3333 164.188 56.3542 164.062 58.3125H163.375L163.5 54.5H171.562V55.625L166 64.75C169 64.9167 170.646 63.75 170.938 61.25H171.625ZM176.812 59.375H180.375V56.1875C180.417 55.4375 179.958 55.0833 179 55.125V54.5H184.625V55.125C183.5 55.0833 182.979 55.4375 183.062 56.1875V63.8125C182.979 64.6042 183.5 64.9583 184.625 64.875V65.5H179V64.875C179.958 64.9583 180.417 64.6042 180.375 63.8125V60.0625H176.812V63.8125C176.729 64.6042 177.188 64.9583 178.188 64.875V65.5H172.625V64.875C173.667 64.9583 174.167 64.6042 174.125 63.8125V56.1875C174.167 55.4375 173.667 55.0833 172.625 55.125V54.5H178.188V55.125C177.188 55.0833 176.729 55.4375 176.812 56.1875V59.375ZM195 54.5L195.125 58.4375H194.438C193.854 56.3542 192.604 55.2917 190.688 55.25C189.729 55.2083 189.292 55.5417 189.375 56.25V59.375C190.75 59.5 191.583 58.875 191.875 57.5H192.5V61.9375H191.875C191.583 60.6042 190.75 59.9792 189.375 60.0625V63.75C189.292 64.5 189.729 64.8333 190.688 64.75C192.729 64.7083 194.062 63.5625 194.688 61.3125H195.375L195.25 65.5H185.125V64.875C186.208 64.9583 186.729 64.6042 186.688 63.8125V56.1875C186.729 55.4375 186.208 55.0833 185.125 55.125V54.5H195ZM196.562 55.125V54.5H200.438L205.812 62H205.875V56.375C205.958 55.6667 205.396 55.25 204.188 55.125V54.5H208.188V55.125C207.146 55.25 206.667 55.6667 206.75 56.375V65.5H205.25L199.125 57H199.062V63.8125C198.938 64.6042 199.562 64.9583 200.938 64.875V65.5H196.625V64.875C197.708 64.9583 198.229 64.6042 198.188 63.8125V56.1875C198.229 55.4375 197.688 55.0833 196.562 55.125ZM209.25 65.5V61.25H209.938C210.562 63.7083 211.729 64.9375 213.438 64.9375C214.771 64.9375 215.458 64.3333 215.5 63.125C215.5 62.4583 214.625 61.8125 212.875 61.1875C210.5 60.3958 209.312 59.3125 209.312 57.9375C209.396 55.6875 210.646 54.4792 213.062 54.3125C213.812 54.3125 214.542 54.5208 215.25 54.9375C215.5 55.0625 215.688 55.125 215.812 55.125C215.979 55.1667 216.188 54.9583 216.438 54.5H217.062V58.3125H216.438C215.812 56.2292 214.771 55.1458 213.312 55.0625C212.104 55.1458 211.479 55.6667 211.438 56.625C211.438 57.375 212.271 58.0208 213.938 58.5625C216.438 59.3542 217.688 60.5208 217.688 62.0625C217.521 64.2292 216.229 65.3958 213.812 65.5625C212.896 65.5625 212 65.4167 211.125 65.125C210.833 64.9583 210.646 64.875 210.562 64.875C210.354 64.875 210.125 65.0833 209.875 65.5H209.25ZM222.938 59.375H226.5V56.1875C226.542 55.4375 226.083 55.0833 225.125 55.125V54.5H230.75V55.125C229.625 55.0833 229.104 55.4375 229.188 56.1875V63.8125C229.104 64.6042 229.625 64.9583 230.75 64.875V65.5H225.125V64.875C226.083 64.9583 226.542 64.6042 226.5 63.8125V60.0625H222.938V63.8125C222.854 64.6042 223.312 64.9583 224.312 64.875V65.5H218.75V64.875C219.792 64.9583 220.292 64.6042 220.25 63.8125V56.1875C220.292 55.4375 219.792 55.0833 218.75 55.125V54.5H224.312V55.125C223.312 55.0833 222.854 55.4375 222.938 56.1875V59.375ZM237.25 65.5H231.438V64.875C232.521 64.9583 233.042 64.6042 233 63.8125V56.1875C233.042 55.4375 232.521 55.0833 231.438 55.125V54.5H237.25V55.125C236.125 55.0833 235.604 55.4375 235.688 56.1875V63.8125C235.604 64.6042 236.125 64.9583 237.25 64.875V65.5ZM243.125 65.5V61.25H243.812C244.438 63.7083 245.604 64.9375 247.312 64.9375C248.646 64.9375 249.333 64.3333 249.375 63.125C249.375 62.4583 248.5 61.8125 246.75 61.1875C244.375 60.3958 243.188 59.3125 243.188 57.9375C243.271 55.6875 244.521 54.4792 246.938 54.3125C247.688 54.3125 248.417 54.5208 249.125 54.9375C249.375 55.0625 249.562 55.125 249.688 55.125C249.854 55.1667 250.062 54.9583 250.312 54.5H250.938V58.3125H250.312C249.688 56.2292 248.646 55.1458 247.188 55.0625C245.979 55.1458 245.354 55.6667 245.312 56.625C245.312 57.375 246.146 58.0208 247.812 58.5625C250.312 59.3542 251.562 60.5208 251.562 62.0625C251.396 64.2292 250.104 65.3958 247.688 65.5625C246.771 65.5625 245.875 65.4167 245 65.125C244.708 64.9583 244.521 64.875 244.438 64.875C244.229 64.875 244 65.0833 243.75 65.5H243.125ZM256.75 65.5H252.375V64.875C253.25 64.7917 253.917 64.1042 254.375 62.8125L257.938 54.3125H258.75L262.875 63.8125C263.083 64.5208 263.583 64.875 264.375 64.875V65.5H258.625V64.875H259.25C259.917 64.9167 260.229 64.7292 260.188 64.3125C260.188 64.2292 260.146 64.0833 260.062 63.875C260.062 63.7917 260.062 63.7292 260.062 63.6875L259.25 61.875H255.75L255.25 63.125C255.083 63.3333 255 63.6667 255 64.125C255 64.625 255.312 64.875 255.938 64.875H256.75V65.5ZM258.875 61L257.438 57.625L256.062 61H258.875ZM264.188 55.125V54.5H269.5V55.125C268.625 55.125 268.208 55.2917 268.25 55.625C268.25 55.75 268.312 55.9792 268.438 56.3125C268.479 56.3958 268.521 56.4583 268.562 56.5L270.25 59.6875L271.75 56.6875C271.917 56.3125 272 56.0208 272 55.8125C271.958 55.3958 271.5 55.1667 270.625 55.125V54.5H274.688V55.125C273.688 55.25 273.104 55.625 272.938 56.25L270.625 60.9375V63.8125C270.5 64.6042 271.083 64.9583 272.375 64.875V65.5H266.25V64.875C267.542 64.9583 268.146 64.6042 268.062 63.8125V60.875L266 56.875C265.458 55.625 264.854 55.0417 264.188 55.125ZM284.438 54.5L284.562 58.4375H283.875C283.292 56.3542 282.042 55.2917 280.125 55.25C279.167 55.2083 278.729 55.5417 278.812 56.25V59.375C280.188 59.5 281.021 58.875 281.312 57.5H281.938V61.9375H281.312C281.021 60.6042 280.188 59.9792 278.812 60.0625V63.75C278.729 64.5 279.167 64.8333 280.125 64.75C282.167 64.7083 283.5 63.5625 284.125 61.3125H284.812L284.688 65.5H274.562V64.875C275.646 64.9583 276.167 64.6042 276.125 63.8125V56.1875C276.167 55.4375 275.646 55.0833 274.562 55.125V54.5H284.438ZM286.062 54.5H291C295 54.6667 297.104 56.5 297.312 60C297.062 63.4583 295.125 65.2917 291.5 65.5H286.062V64.875C287.146 64.9583 287.667 64.6042 287.625 63.8125V56.1875C287.667 55.4375 287.146 55.0833 286.062 55.125V54.5ZM290.188 56.375V63.625C290.104 64.4167 290.583 64.7917 291.625 64.75C293.417 64.75 294.333 63.1667 294.375 60C294.333 56.875 293.417 55.2917 291.625 55.25C290.583 55.25 290.104 55.625 290.188 56.375ZM308.75 65.5H302.938V64.875C304.021 64.9583 304.542 64.6042 304.5 63.8125V56.1875C304.542 55.4375 304.021 55.0833 302.938 55.125V54.5H308.75V55.125C307.625 55.0833 307.104 55.4375 307.188 56.1875V63.8125C307.104 64.6042 307.625 64.9583 308.75 64.875V65.5ZM309.5 55.125V54.5H313.375L318.75 62H318.812V56.375C318.896 55.6667 318.333 55.25 317.125 55.125V54.5H321.125V55.125C320.083 55.25 319.604 55.6667 319.688 56.375V65.5H318.188L312.062 57H312V63.8125C311.875 64.6042 312.5 64.9583 313.875 64.875V65.5H309.562V64.875C310.646 64.9583 311.167 64.6042 311.125 63.8125V56.1875C311.167 55.4375 310.625 55.0833 309.5 55.125ZM327.562 65.5H321.562V64.875C322.646 64.9583 323.167 64.6042 323.125 63.8125V56.1875C323.167 55.4375 322.646 55.0833 321.562 55.125V54.5H331.438L331.562 58.4375H330.875C330.292 56.3542 329.042 55.2917 327.125 55.25C326.167 55.2083 325.729 55.5417 325.812 56.25V59.375C327.188 59.5 328.021 58.875 328.312 57.5H328.938V61.9375H328.312C328.021 60.6042 327.188 59.9792 325.812 60.0625V63.8125C325.688 64.6042 326.271 64.9583 327.562 64.875V65.5ZM332.625 60C332.958 56.5833 334.833 54.6875 338.25 54.3125C341.583 54.6875 343.438 56.5833 343.812 60C343.438 63.4167 341.583 65.2708 338.25 65.5625C334.833 65.2708 332.958 63.4167 332.625 60ZM335.625 60C335.583 63.3333 336.458 64.9792 338.25 64.9375C339.958 64.9792 340.812 63.3333 340.812 60C340.812 56.7083 339.958 55.0625 338.25 55.0625C336.458 55.0625 335.583 56.7083 335.625 60ZM354.812 63.0625H355.438C355.438 64.7292 354.667 65.5625 353.125 65.5625C351.542 65.6042 350.75 64.7292 350.75 62.9375C350.667 61.8125 350.521 61.125 350.312 60.875C350.104 60.5417 349.604 60.3333 348.812 60.25V63.5625C348.688 64.5208 349.208 64.9583 350.375 64.875V65.5H344.688V64.875C345.771 64.9583 346.292 64.6042 346.25 63.8125V56.1875C346.292 55.4375 345.771 55.0833 344.688 55.125V54.5H350.312C352.979 54.5417 354.333 55.5208 354.375 57.4375C354.333 59.1875 353.042 60.0625 350.5 60.0625V60.125C351.958 60.2917 352.896 61.0833 353.312 62.5C353.688 63.9167 354 64.5 354.25 64.25C354.542 64.2917 354.729 63.8958 354.812 63.0625ZM348.812 56.1875V59.625C350.771 59.7083 351.708 58.9792 351.625 57.4375C351.542 56.0625 350.958 55.3333 349.875 55.25C349.125 55.25 348.771 55.5625 348.812 56.1875ZM360.062 65.5H355.938V64.875C356.938 64.875 357.458 64.375 357.5 63.375V56.0625C357.542 55.3958 357.062 55.0833 356.062 55.125V54.5H360.688L362.938 61.9375H363L365.25 54.5H369.938V55.125C368.812 55.0833 368.292 55.4375 368.375 56.1875V63.8125C368.292 64.6042 368.812 64.9583 369.938 64.875V65.5H364.375V64.875C365.375 64.9583 365.854 64.6042 365.812 63.8125V55.6875L362.75 65.5H361.375L358.438 55.6875V63.375C358.438 64.375 358.979 64.875 360.062 64.875V65.5ZM374.562 65.5H370.188V64.875C371.062 64.7917 371.729 64.1042 372.188 62.8125L375.75 54.3125H376.562L380.688 63.8125C380.896 64.5208 381.396 64.875 382.188 64.875V65.5H376.438V64.875H377.062C377.729 64.9167 378.042 64.7292 378 64.3125C378 64.2292 377.958 64.0833 377.875 63.875C377.875 63.7917 377.875 63.7292 377.875 63.6875L377.062 61.875H373.562L373.062 63.125C372.896 63.3333 372.812 63.6667 372.812 64.125C372.812 64.625 373.125 64.875 373.75 64.875H374.562V65.5ZM376.688 61L375.25 57.625L373.875 61H376.688ZM382.312 54.5H392.625L392.688 58.375H391.938C391.438 56.2917 390.396 55.25 388.812 55.25V63.8125C388.688 64.6042 389.271 64.9583 390.562 64.875V65.5H384.312V64.875C385.604 64.9583 386.208 64.6042 386.125 63.8125V55.25C384.5 55.25 383.458 56.2917 383 58.375H382.25L382.312 54.5ZM399.25 65.5H393.438V64.875C394.521 64.9583 395.042 64.6042 395 63.8125V56.1875C395.042 55.4375 394.521 55.0833 393.438 55.125V54.5H399.25V55.125C398.125 55.0833 397.604 55.4375 397.688 56.1875V63.8125C397.604 64.6042 398.125 64.9583 399.25 64.875V65.5ZM400.375 60C400.708 56.5833 402.583 54.6875 406 54.3125C409.333 54.6875 411.188 56.5833 411.562 60C411.188 63.4167 409.333 65.2708 406 65.5625C402.583 65.2708 400.708 63.4167 400.375 60ZM403.375 60C403.333 63.3333 404.208 64.9792 406 64.9375C407.708 64.9792 408.562 63.3333 408.562 60C408.562 56.7083 407.708 55.0625 406 55.0625C404.208 55.0625 403.333 56.7083 403.375 60ZM412.438 55.125V54.5H416.312L421.688 62H421.75V56.375C421.833 55.6667 421.271 55.25 420.062 55.125V54.5H424.062V55.125C423.021 55.25 422.542 55.6667 422.625 56.375V65.5H421.125L415 57H414.938V63.8125C414.812 64.6042 415.438 64.9583 416.812 64.875V65.5H412.5V64.875C413.583 64.9583 414.104 64.6042 414.062 63.8125V56.1875C414.104 55.4375 413.562 55.0833 412.438 55.125ZM429.188 54.5H439.5L439.562 58.375H438.812C438.312 56.2917 437.271 55.25 435.688 55.25V63.8125C435.562 64.6042 436.146 64.9583 437.438 64.875V65.5H431.188V64.875C432.479 64.9583 433.083 64.6042 433 63.8125V55.25C431.375 55.25 430.333 56.2917 429.875 58.375H429.125L429.188 54.5ZM450 54.5L450.125 58.4375H449.438C448.854 56.3542 447.604 55.2917 445.688 55.25C444.729 55.2083 444.292 55.5417 444.375 56.25V59.375C445.75 59.5 446.583 58.875 446.875 57.5H447.5V61.9375H446.875C446.583 60.6042 445.75 59.9792 444.375 60.0625V63.75C444.292 64.5 444.729 64.8333 445.688 64.75C447.729 64.7083 449.062 63.5625 449.688 61.3125H450.375L450.25 65.5H440.125V64.875C441.208 64.9583 441.729 64.6042 441.688 63.8125V56.1875C441.729 55.4375 441.208 55.0833 440.125 55.125V54.5H450ZM462 54.5625V58.5H461.375C460.5 56.125 459.292 54.9792 457.75 55.0625C455.875 55.1042 454.938 56.75 454.938 60C454.896 63.2917 455.979 64.9375 458.188 64.9375C460.312 64.9375 461.458 63.6875 461.625 61.1875H462.375C462.292 64.0625 460.771 65.5208 457.812 65.5625C454.146 65.4375 452.208 63.5833 452 60C452.333 56.5833 454.208 54.6875 457.625 54.3125C458.542 54.3125 459.583 54.625 460.75 55.25L461.375 54.5625H462ZM467.562 59.375H471.125V56.1875C471.167 55.4375 470.708 55.0833 469.75 55.125V54.5H475.375V55.125C474.25 55.0833 473.729 55.4375 473.812 56.1875V63.8125C473.729 64.6042 474.25 64.9583 475.375 64.875V65.5H469.75V64.875C470.708 64.9583 471.167 64.6042 471.125 63.8125V60.0625H467.562V63.8125C467.479 64.6042 467.938 64.9583 468.938 64.875V65.5H463.375V64.875C464.417 64.9583 464.917 64.6042 464.875 63.8125V56.1875C464.917 55.4375 464.417 55.0833 463.375 55.125V54.5H468.938V55.125C467.938 55.0833 467.479 55.4375 467.562 56.1875V59.375ZM475.812 55.125V54.5H479.688L485.062 62H485.125V56.375C485.208 55.6667 484.646 55.25 483.438 55.125V54.5H487.438V55.125C486.396 55.25 485.917 55.6667 486 56.375V65.5H484.5L478.375 57H478.312V63.8125C478.188 64.6042 478.812 64.9583 480.188 64.875V65.5H475.875V64.875C476.958 64.9583 477.479 64.6042 477.438 63.8125V56.1875C477.479 55.4375 476.938 55.0833 475.812 55.125ZM488.312 60C488.646 56.5833 490.521 54.6875 493.938 54.3125C497.271 54.6875 499.125 56.5833 499.5 60C499.125 63.4167 497.271 65.2708 493.938 65.5625C490.521 65.2708 488.646 63.4167 488.312 60ZM491.312 60C491.271 63.3333 492.146 64.9792 493.938 64.9375C495.646 64.9792 496.5 63.3333 496.5 60C496.5 56.7083 495.646 55.0625 493.938 55.0625C492.146 55.0625 491.271 56.7083 491.312 60ZM509.625 65.5H500.438V64.875C501.521 64.9583 502.042 64.6042 502 63.8125V56.1875C502.042 55.4375 501.521 55.0833 500.438 55.125V54.5H506.25V55.125C505.125 55.0833 504.604 55.4375 504.688 56.1875V63.75C504.604 64.5 504.958 64.8333 505.75 64.75C507.333 64.6667 508.438 63.5 509.062 61.25H509.75L509.625 65.5ZM510.812 60C511.146 56.5833 513.021 54.6875 516.438 54.3125C519.771 54.6875 521.625 56.5833 522 60C521.625 63.4167 519.771 65.2708 516.438 65.5625C513.021 65.2708 511.146 63.4167 510.812 60ZM513.812 60C513.771 63.3333 514.646 64.9792 516.438 64.9375C518.146 64.9792 519 63.3333 519 60C519 56.7083 518.146 55.0625 516.438 55.0625C514.646 55.0625 513.771 56.7083 513.812 60ZM528.5 60.9375V60.1875H534.688V60.9375C533.396 60.8542 532.854 61.25 533.062 62.125V65.5H532.438L531.75 64.75C530.792 65.2917 529.729 65.5625 528.562 65.5625C525.354 65.2292 523.604 63.4792 523.312 60.3125C523.604 56.6875 525.479 54.6875 528.938 54.3125C529.604 54.3125 530.354 54.5208 531.188 54.9375C531.479 55.0625 531.667 55.125 531.75 55.125C531.792 55.1667 531.979 55 532.312 54.625H532.938V58.4375H532.312C531.604 56.1458 530.521 55.0208 529.062 55.0625C527.146 55.0625 526.208 56.7083 526.25 60C526.292 63.1667 527.104 64.8125 528.688 64.9375C529.938 64.9792 530.542 64.2292 530.5 62.6875C530.583 61.3958 529.917 60.8125 528.5 60.9375ZM535.062 55.125V54.5H540.375V55.125C539.5 55.125 539.083 55.2917 539.125 55.625C539.125 55.75 539.188 55.9792 539.312 56.3125C539.354 56.3958 539.396 56.4583 539.438 56.5L541.125 59.6875L542.625 56.6875C542.792 56.3125 542.875 56.0208 542.875 55.8125C542.833 55.3958 542.375 55.1667 541.5 55.125V54.5H545.562V55.125C544.562 55.25 543.979 55.625 543.812 56.25L541.5 60.9375V63.8125C541.375 64.6042 541.958 64.9583 543.25 64.875V65.5H537.125V64.875C538.417 64.9583 539.021 64.6042 538.938 63.8125V60.875L536.875 56.875C536.333 55.625 535.729 55.0417 535.062 55.125ZM560.375 54.5625V58.5H559.75C558.875 56.125 557.667 54.9792 556.125 55.0625C554.25 55.1042 553.312 56.75 553.312 60C553.271 63.2917 554.354 64.9375 556.562 64.9375C558.688 64.9375 559.833 63.6875 560 61.1875H560.75C560.667 64.0625 559.146 65.5208 556.188 65.5625C552.521 65.4375 550.583 63.5833 550.375 60C550.708 56.5833 552.583 54.6875 556 54.3125C556.917 54.3125 557.958 54.625 559.125 55.25L559.75 54.5625H560.375ZM562.125 60C562.458 56.5833 564.333 54.6875 567.75 54.3125C571.083 54.6875 572.938 56.5833 573.312 60C572.938 63.4167 571.083 65.2708 567.75 65.5625C564.333 65.2708 562.458 63.4167 562.125 60ZM565.125 60C565.083 63.3333 565.958 64.9792 567.75 64.9375C569.458 64.9792 570.312 63.3333 570.312 60C570.312 56.7083 569.458 55.0625 567.75 55.0625C565.958 55.0625 565.083 56.7083 565.125 60ZM574.875 64.3125C574.917 63.5208 575.375 63.0833 576.25 63C577.042 63.0833 577.479 63.5208 577.562 64.3125C577.479 65.1042 577.042 65.5 576.25 65.5C575.375 65.5 574.917 65.1042 574.875 64.3125ZM580.312 68.5L579.688 68C579.729 67.875 579.792 67.7708 579.875 67.6875C580.667 66.8125 581.104 66.0833 581.188 65.5C581.146 65.5 581.104 65.5 581.062 65.5C581.021 65.5 581 65.5 581 65.5C580.958 65.5 580.917 65.5 580.875 65.5C580.042 65.5 579.604 65.1042 579.562 64.3125C579.604 63.5208 580.042 63.0833 580.875 63C581.75 63.0417 582.208 63.625 582.25 64.75C582.25 65.875 581.604 67.125 580.312 68.5ZM592.562 65.5H583.375V64.875C584.458 64.9583 584.979 64.6042 584.938 63.8125V56.1875C584.979 55.4375 584.458 55.0833 583.375 55.125V54.5H589.188V55.125C588.062 55.0833 587.542 55.4375 587.625 56.1875V63.75C587.542 64.5 587.896 64.8333 588.688 64.75C590.271 64.6667 591.375 63.5 592 61.25H592.688L592.562 65.5ZM593.438 54.5H603.75L603.812 58.375H603.062C602.562 56.2917 601.521 55.25 599.938 55.25V63.8125C599.812 64.6042 600.396 64.9583 601.688 64.875V65.5H595.438V64.875C596.729 64.9583 597.333 64.6042 597.25 63.8125V55.25C595.625 55.25 594.583 56.2917 594.125 58.375H593.375L593.438 54.5ZM604.375 54.5H609.312C613.312 54.6667 615.417 56.5 615.625 60C615.375 63.4583 613.438 65.2917 609.812 65.5H604.375V64.875C605.458 64.9583 605.979 64.6042 605.938 63.8125V56.1875C605.979 55.4375 605.458 55.0833 604.375 55.125V54.5ZM608.5 56.375V63.625C608.417 64.4167 608.896 64.7917 609.938 64.75C611.729 64.75 612.646 63.1667 612.688 60C612.646 56.875 611.729 55.2917 609.938 55.25C608.896 55.25 608.417 55.625 608.5 56.375ZM617.125 64.3125C617.167 63.5208 617.625 63.0833 618.5 63C619.292 63.0833 619.729 63.5208 619.812 64.3125C619.729 65.1042 619.292 65.5 618.5 65.5C617.625 65.5 617.167 65.1042 617.125 64.3125Z" fill="#083975"/>
</svg>
