<svg width="470" height="431" viewBox="0 0 470 431" fill="none" xmlns="http://www.w3.org/2000/svg">
<path d="M319.016 277.375C266.084 295.457 265.78 330.491 253.992 336.142C242.204 339.532 239.922 336.142 239.922 331.998C239.922 327.854 238.401 327.477 234.218 319.943C230.036 312.409 232.317 304.875 235.739 302.238C239.162 299.601 240.683 298.094 239.922 289.806C239.162 281.518 250.57 273.608 255.513 271.724C260.456 269.84 262.738 270.217 267.301 257.032C271.864 243.847 336.508 226.895 372.633 228.402C408.757 229.909 425.489 240.834 422.447 244.601C419.404 248.368 385.181 254.772 319.016 277.375Z" fill="#EAEDF4"/>
<rect x="249.102" y="69.1227" width="64.6875" height="2.19091" fill="#C3BACC"/>
<rect x="244.126" y="50.5" width="74.6394" height="14.7887" fill="#5860C6"/>
<rect x="257.948" y="53.7863" width="46.9952" height="8.76365" fill="white"/>
<path d="M263.143 57.6755H263.716C263.72 57.559 263.723 57.4412 263.725 57.322H263.889C263.887 57.4405 263.883 57.5583 263.878 57.6755H264.6C264.587 58.2042 264.576 58.5746 264.566 58.7869C264.549 59.0434 264.437 59.1729 264.229 59.1755C264.113 59.1755 263.989 59.1729 263.857 59.1677C263.852 59.1156 263.843 59.0531 263.83 58.9802C263.969 58.9958 264.094 59.0037 264.205 59.0037C264.333 59.0011 264.4 58.9158 264.408 58.7478C264.421 58.4835 264.431 58.1794 264.438 57.8357H263.87C263.85 58.2413 263.796 58.5284 263.709 58.697C263.627 58.878 263.448 59.0551 263.172 59.2283C263.141 59.1814 263.107 59.1365 263.072 59.0935C263.333 58.9242 263.498 58.7608 263.568 58.6033C263.643 58.4659 263.69 58.21 263.708 57.8357H263.143V57.6755ZM263.303 58.0076L263.459 58.0662C263.376 58.2628 263.283 58.4594 263.182 58.656C263.139 58.6326 263.089 58.6078 263.031 58.5818C263.137 58.4047 263.227 58.2133 263.303 58.0076ZM264.627 58.0681L264.77 58.0212C264.836 58.1775 264.904 58.352 264.975 58.5447L264.814 58.6013C264.76 58.4268 264.697 58.2491 264.627 58.0681ZM265.061 58.0681H265.84V57.322H266.004V57.613H266.824V57.7576H266.004V58.0681H266.947V58.2166H265.061V58.0681ZM265.838 58.2869H266.002V58.5115L266.082 58.408C266.392 58.5499 266.644 58.6755 266.838 58.7849L266.736 58.9294C266.559 58.8214 266.314 58.6918 266.002 58.5408V59.2458H265.838V58.2869Z" fill="#5860C6"/>
<path d="M272.979 58.363C273.061 58.3448 273.15 58.3236 273.247 58.2996V57.8376H272.999V57.7068H273.247V57.324H273.397V57.7068H273.622V57.8376H273.397V58.2625C273.467 58.2442 273.54 58.225 273.616 58.2048C273.613 58.2699 273.611 58.322 273.61 58.3611C273.538 58.38 273.467 58.3985 273.397 58.4167V58.9841C273.397 59.1274 273.331 59.2009 273.198 59.2048C273.147 59.2061 273.088 59.2068 273.02 59.2068C273.015 59.1521 273.007 59.0987 272.995 59.0466C273.061 59.0531 273.116 59.0564 273.159 59.0564C273.217 59.0564 273.247 59.0245 273.247 58.9607V58.4558C273.16 58.4792 273.074 58.5024 272.989 58.5251L272.979 58.363ZM273.565 58.988H274.171V58.6658H273.686V58.5251H274.171V58.2654H274.323V58.5251H274.792V58.6658H274.323V58.988H274.905V59.1287H273.565V58.988ZM273.663 58.0642H274.171V57.7517H273.733V57.6111H274.171V57.324H274.323V57.6111H274.764V57.7517H274.323V58.0642H274.874V58.2048H273.663V58.0642ZM275.288 57.406H276.614V58.0505H276.46V57.9705H275.442V58.0603H275.288V57.406ZM275.325 58.6482V58.5056L275.41 58.3044H274.985V58.1619H276.921V58.3044H275.571L275.487 58.5076H276.653C276.637 58.6586 276.622 58.7823 276.608 58.8787C276.577 59.0909 276.454 59.197 276.241 59.197C276.091 59.197 275.931 59.1944 275.76 59.1892C275.753 59.1449 275.742 59.0883 275.727 59.0193C275.913 59.0349 276.076 59.0427 276.214 59.0427C276.354 59.0427 276.434 58.9796 276.452 58.8533C276.461 58.8012 276.47 58.7328 276.479 58.6482H275.325ZM276.46 57.5466H275.442V57.8298H276.46V57.5466Z" fill="#5860C6"/>
<path d="M284.357 57.324L284.492 57.3474C284.47 57.4711 284.444 57.587 284.415 57.6951H284.861V57.822H284.763C284.744 58.2113 284.68 58.5186 284.572 58.7439C284.658 58.8819 284.759 58.9913 284.876 59.072C284.844 59.1176 284.814 59.1677 284.787 59.2224C284.664 59.1078 284.567 58.9932 284.496 58.8787C284.407 59.0167 284.297 59.1423 284.165 59.2556C284.143 59.2205 284.111 59.1794 284.068 59.1326C284.215 59.0115 284.331 58.8793 284.417 58.7361C284.342 58.5746 284.289 58.3767 284.259 58.1423C284.238 58.1905 284.216 58.2361 284.193 58.2791C284.169 58.24 284.141 58.1983 284.109 58.1541C284.235 57.8923 284.318 57.6156 284.357 57.324ZM283.527 57.5271H283.703C283.729 57.4607 283.751 57.3897 283.769 57.3142L283.908 57.3455C283.887 57.4041 283.862 57.4646 283.833 57.5271H284.097V58.24H283.972V58.199H283.652V58.24H283.527V57.5271ZM283.476 58.3767H283.775C283.757 58.3403 283.736 58.2999 283.714 58.2556L283.824 58.2087C283.861 58.2764 283.891 58.3324 283.912 58.3767H284.183V58.4958H283.746C283.744 58.5466 283.742 58.5935 283.738 58.6365H284.111C284.103 58.7875 284.094 58.9054 284.083 58.99C284.067 59.1241 283.996 59.1912 283.872 59.1912C283.818 59.1912 283.761 59.1905 283.703 59.1892C283.695 59.1488 283.685 59.1046 283.673 59.0564C283.745 59.0629 283.802 59.0662 283.843 59.0662C283.916 59.0662 283.956 59.0245 283.962 58.9412C283.97 58.8695 283.975 58.8064 283.978 58.7517H283.724C283.694 58.9353 283.603 59.0961 283.451 59.2341C283.428 59.2146 283.391 59.1827 283.339 59.1384C283.485 59.0212 283.573 58.878 283.603 58.7087C283.612 58.6554 283.618 58.5844 283.621 58.4958H283.476V58.3767ZM283.148 58.4705C283.225 58.4626 283.319 58.4522 283.431 58.4392C283.425 58.4965 283.419 58.5401 283.415 58.5701C283.221 58.5896 283.08 58.6072 282.992 58.6228L282.964 58.4998C283.028 58.4333 283.11 58.2999 283.21 58.0994C283.136 58.1059 283.054 58.1137 282.964 58.1228L282.929 57.9998C283.048 57.8162 283.154 57.5922 283.247 57.3279L283.388 57.3728C283.28 57.615 283.178 57.8201 283.083 57.988C283.134 57.988 283.195 57.9867 283.265 57.9841C283.298 57.9151 283.332 57.8396 283.369 57.7576L283.497 57.8103C283.363 58.0811 283.247 58.3012 283.148 58.4705ZM284.63 57.822H284.378C284.369 57.8559 284.359 57.8884 284.347 57.9197C284.374 58.197 284.423 58.4203 284.492 58.5896C284.571 58.3956 284.617 58.1397 284.63 57.822ZM282.935 58.8611C283.099 58.8376 283.281 58.8097 283.48 58.7771C283.473 58.837 283.47 58.88 283.468 58.906C283.262 58.9477 283.096 58.9822 282.968 59.0095L282.935 58.8611ZM283.652 58.0837H283.972V57.9177H283.652V58.0837ZM283.972 57.6423H283.652V57.8064H283.972V57.6423ZM285.068 57.4919H285.628C285.631 57.4333 285.632 57.3787 285.632 57.3279H285.773C285.773 57.3787 285.772 57.4333 285.769 57.4919H286.109V57.3279H286.249V57.4919H286.72V57.9373H286.58V57.8884H286.249V58.0642H286.808C286.805 58.158 286.798 58.238 286.787 58.3044C286.772 58.3956 286.714 58.4412 286.611 58.4412C286.595 58.4412 286.576 58.4412 286.552 58.4412V58.9177H286.412V58.5193H285.431V58.9412H285.29V58.5193C285.211 58.5544 285.121 58.587 285.019 58.6169C285.002 58.5792 284.974 58.5343 284.935 58.4822C285.232 58.4184 285.428 58.3168 285.523 58.1775H285.093L285.156 57.7751H285.621C285.624 57.7244 285.626 57.6677 285.626 57.6052H285.068V57.4919ZM286.386 58.3044C286.459 58.3123 286.52 58.3162 286.568 58.3162C286.62 58.3162 286.65 58.2966 286.658 58.2576C286.663 58.2289 286.666 58.2022 286.667 58.1775H286.249V58.3689H286.109V58.1775H285.689C285.654 58.2569 285.593 58.3292 285.505 58.3943H286.414C286.407 58.3695 286.398 58.3396 286.386 58.3044ZM285.851 58.6287H285.99C285.99 58.712 285.981 58.7856 285.962 58.8494C286.259 58.9366 286.529 59.0232 286.771 59.1091L286.699 59.2498C286.436 59.1521 286.174 59.0603 285.914 58.9744C285.833 59.1059 285.566 59.1983 285.113 59.2517C285.088 59.1892 285.066 59.1423 285.046 59.1111C285.347 59.0824 285.573 59.0323 285.724 58.9607C285.811 58.9177 285.854 58.807 285.851 58.6287ZM285.726 58.0642H286.109V57.8884H285.753C285.747 57.9574 285.738 58.016 285.726 58.0642ZM285.251 58.0642H285.578C285.592 58.0186 285.603 57.96 285.611 57.8884H285.275L285.251 58.0642ZM285.761 57.7751H286.109V57.6052H285.767C285.767 57.6664 285.765 57.7231 285.761 57.7751ZM286.58 57.6052H286.249V57.7751H286.58V57.6052Z" fill="#5860C6"/>
<path d="M292.881 58.4314C293.001 58.393 293.119 58.3546 293.233 58.3162V57.8591H292.912V57.7107H293.233V57.3357H293.389V57.7107H293.68V57.8591H293.389V58.2625C293.497 58.2253 293.602 58.1879 293.705 58.1501C293.709 58.2166 293.714 58.2686 293.721 58.3064C293.609 58.3455 293.498 58.3848 293.389 58.4246V58.9998C293.389 59.1417 293.321 59.2126 293.186 59.2126C293.127 59.2126 293.052 59.212 292.961 59.2107C292.955 59.156 292.947 59.1013 292.938 59.0466C293.003 59.0557 293.072 59.0603 293.147 59.0603C293.204 59.0603 293.233 59.0291 293.233 58.9666V58.4802C293.129 58.518 293.027 58.5557 292.926 58.5935L292.881 58.4314ZM293.701 57.4822H294.828V57.6306H294.492V58.9529C294.492 59.1182 294.411 59.2016 294.248 59.2029C294.164 59.2042 294.05 59.2035 293.908 59.2009C293.902 59.141 293.891 59.0818 293.877 59.0232C294.024 59.0336 294.134 59.0388 294.207 59.0388C294.288 59.0388 294.328 58.9932 294.328 58.9021V57.6306H293.701V57.4822ZM295.881 57.4685H296.715V58.6482C296.715 58.8201 296.632 58.9067 296.467 58.908C296.384 58.9093 296.284 58.9086 296.168 58.906C296.162 58.8487 296.153 58.7888 296.143 58.7263C296.26 58.7367 296.352 58.7419 296.418 58.7419C296.509 58.7432 296.555 58.6957 296.555 58.5994V57.6208H296.041V59.238H295.881V57.4685ZM295.805 57.4548C295.633 57.5017 295.42 57.5512 295.166 57.6033V58.0525H295.758V58.199H295.166V58.8044C295.369 58.7393 295.57 58.671 295.77 58.5994C295.77 58.6554 295.775 58.7107 295.785 58.7654C295.567 58.837 295.362 58.9106 295.17 58.9861C295.125 59.0082 295.085 59.0343 295.053 59.0642L294.947 58.9275C294.989 58.8806 295.009 58.8214 295.006 58.7498V57.488C295.287 57.4333 295.529 57.3748 295.731 57.3123L295.805 57.4548Z" fill="#5860C6"/>
<rect x="249.102" y="65.2887" width="64.6875" height="3.8341" fill="#3B393A"/>
<rect x="249.102" y="71.3137" width="64.6875" height="55.8682" fill="#F7F7F7"/>
<rect x="244.126" y="65.2887" width="4.97596" height="157.746" fill="white"/>
<rect x="313.79" y="65.2887" width="4.97596" height="157.746" fill="white"/>
<path d="M244.126 83.9114H246.891V187.432H244.126V83.9114Z" fill="#5860C6"/>
<path d="M246.338 72.4091L244.126 65.2887H246.338V72.4091Z" fill="black" fill-opacity="0.85"/>
<path d="M316.554 72.4091L318.766 65.2887H316.554V72.4091Z" fill="black" fill-opacity="0.85"/>
<rect x="256.29" y="78.9819" width="32.0673" height="26.8387" fill="#F4E0D4"/>
<rect x="258.501" y="82.2682" width="6.63461" height="3.8341" fill="#6C63FF"/>
<rect x="258.501" y="90.4842" width="6.63461" height="3.8341" fill="#6C63FF"/>
<rect x="258.501" y="98.7001" width="6.63461" height="3.8341" fill="#6C63FF"/>
<rect x="269.006" y="90.4842" width="6.63461" height="3.8341" fill="#6C63FF"/>
<rect x="269.006" y="98.7001" width="6.63461" height="3.8341" fill="#D9C7DD"/>
<rect x="279.511" y="82.2682" width="6.63461" height="3.8341" fill="#D9C7DD"/>
<rect x="279.511" y="90.4842" width="6.63461" height="3.8341" fill="#D9C7DD"/>
<rect x="279.511" y="98.7001" width="6.63461" height="3.8341" fill="#D9C7DD"/>
<rect x="296.65" y="97.6046" width="12.1635" height="6.02501" fill="#CECECE"/>
<rect x="293.333" y="115.132" width="15.4808" height="9.31137" fill="#FF9C52"/>
<rect x="256.79" y="111.798" width="31.0673" height="12.1455" fill="#E2E2E2" stroke="#C3C3C3"/>
<rect x="293.333" y="82.2683" width="15.4808" height="6.02501" fill="#FF9C52"/>
<rect x="261.819" y="118.418" width="12.7163" height="3.8341" fill="#332627"/>
<rect x="276.746" y="115.132" width="9.95192" height="1.09546" fill="#929292"/>
<rect x="249.102" y="127.182" width="64.6875" height="95.8524" fill="#F7F7F7"/>
<rect x="249.102" y="163.88" width="64.6875" height="3.8341" fill="#5860C6"/>
<rect x="249.102" y="127.182" width="64.6875" height="33.4114" fill="#5860C6"/>
<rect x="255.737" y="141.423" width="32.6202" height="10.9546" fill="white"/>
<path d="M460.301 200.266C461.043 200.249 461.817 198.862 461.921 197.97C461.708 196.742 461.107 195.402 461.957 196.301C462.337 196.703 462.17 198.159 462.181 198.673C462.199 199.484 460.313 200.78 460.503 200.981C460.693 201.182 462.536 200.626 462.726 200.827C462.916 201.028 462.973 203.594 462.57 202.166C462.168 200.737 460.894 201.896 460.145 201.605C459.396 201.314 459.374 200.288 460.301 200.266Z" fill="#FED348"/>
<path d="M456.287 201.12C458.679 198.885 458.658 194.317 458.349 192.312C458.274 191.522 458.841 192.425 459.408 193.329C459.976 194.233 460.818 200.613 460.967 202.195C461.116 203.776 462.721 208.011 458.608 207.84C454.495 207.669 448.653 215.994 446.499 217.433C444.346 218.872 445.686 216.473 446.534 213.961C447.381 211.448 453.298 203.913 456.287 201.12Z" fill="#FC6681"/>
<path d="M443.09 198.088C441.935 195.039 443.983 190.946 445.152 189.281C445.57 188.603 444.659 189.168 443.748 189.732C442.838 190.296 439.246 195.658 438.41 197.013C437.574 198.368 434.252 201.472 438.021 203.111C441.791 204.75 443.338 214.773 444.633 217.004C445.928 219.235 445.79 216.497 446.145 213.871C446.5 211.246 444.534 201.9 443.09 198.088Z" fill="#FC6681"/>
<path d="M433.529 210.111C432.238 212.243 425.28 219.704 421.963 223.168C420.618 224.582 421.963 227.965 424.652 228.764C427.342 229.564 435.68 232.761 457.468 231.162C479.255 229.564 466.075 220.77 464.192 220.504C462.309 220.237 458.005 218.905 455.854 217.839C453.702 216.773 442.674 210.644 441.06 210.111C439.446 209.578 435.142 207.447 433.529 210.111Z" fill="#A8A8A8"/>
<path d="M431.925 229.851C424.178 229.637 421.793 225.587 421.435 224.521C421.076 224.521 421.691 226.067 422.121 226.919C422.659 227.985 422.659 228.252 425.349 229.584C428.038 230.916 443.491 231.982 455.326 231.449C466.732 230.936 467.699 230.117 469.313 227.985C470.658 226.209 470.12 225.853 466.892 228.518C465.566 229.613 462.68 230.065 459.629 230.383C451.34 231.249 439.003 230.045 431.925 229.851Z" fill="#868686"/>
<path d="M433.454 264.385C431.594 264.385 424.79 264.937 420.566 264.096C419.806 265.226 419.045 267.486 416.764 268.616C414.482 269.747 403.414 267.775 405.695 270.789C407.977 273.803 431.553 276.816 434.595 276.44C436.917 276.152 434.595 264.385 433.454 264.385Z" fill="#535461"/>
<path d="M388.552 242.159C386.692 242.159 379.879 242.247 375.664 241.87C374.935 242.247 374.143 245.26 371.862 246.39C369.58 247.521 358.512 245.549 360.793 248.563C363.075 251.577 386.651 254.59 389.693 254.214C392.016 253.926 389.693 242.159 388.552 242.159Z" fill="#535461"/>
<path d="M409.18 106.253C408.876 101.733 411.842 99.347 413.363 98.7192H414.884L427.052 106.63L428.932 117.932L428.193 120.945C428.193 120.945 419.828 119.815 416.405 120.192V117.555C416.405 117.555 409.561 111.904 409.18 106.253Z" fill="#F7C4A7"/>
<path d="M419.08 89.4854C415.126 87.9786 412.109 89.8622 411.095 90.9923C408.813 97.3964 417.524 102.11 423.228 104.37C428.932 106.63 425.925 117.923 429.347 118.869C432.77 119.815 438.093 112.088 440.375 104.554C442.656 97.0197 437.333 93.2526 432.77 92.4992C428.207 91.7457 424.024 91.369 419.08 89.4854Z" fill="#632652"/>
<path d="M364.18 108.024C365.451 109.797 371.659 116.223 375.399 119.062C376.368 117.59 378.39 114.331 378.723 113.07C379.138 111.493 370.828 102.033 367.504 101.087C364.18 100.141 362.518 105.706 364.18 108.024Z" fill="#F7C4A7"/>
<path d="M409.635 225.758C409.027 222.744 409.128 209.684 409.255 203.532C408.874 197.504 429.028 198.258 427.507 200.895C425.986 203.532 425.226 223.874 427.507 230.278C429.332 235.401 433.591 263.429 433.591 264.559C433.591 265.689 420.186 265.226 420.566 264.096C420.947 262.966 415.339 240.449 413.818 237.812C412.297 235.175 410.395 229.525 409.635 225.758Z" fill="#4E507A"/>
<path d="M434.758 183.11C423.502 177.082 410.693 179.719 405.876 181.226C406.89 182.231 408.31 184.608 405.876 185.211C402.834 185.964 380.156 192.071 377.737 194.252C370.874 200.438 373.851 240.651 375.696 241.87C376.837 242.623 386.343 242.247 388.625 242.247C389.765 242.247 386.269 207.531 388.384 205.93C391.667 203.445 413.481 208.19 426.03 202.163C438.578 196.136 437.039 186.877 434.758 183.11Z" fill="#575988"/>
<path d="M374.679 118.493L377.721 111.712C378.228 110.833 380.535 108.849 382.664 110.959C385.326 113.596 398.628 121.646 400.793 122.452C403.331 123.397 409.282 125.274 410.803 124.52C412.324 123.767 414.606 119.623 417.268 119.623C419.929 119.623 425.633 118.87 427.154 119.623C428.675 120.377 432.858 122.26 432.858 124.144C432.858 126.027 431.717 139.589 431.717 147.877C431.717 156.164 433.999 170.856 435.14 174.246C436.281 177.637 439.323 185.171 437.041 184.418C434.76 183.664 427.154 181.027 422.211 180.65C417.268 180.274 408.902 180.65 405.48 181.404C402.057 182.157 402.818 151.267 403.198 145.993C403.578 140.719 405.346 136.181 400.793 134.13C396.61 132.247 379.879 123.582 376.076 121.699C374.555 120.945 374.298 119.372 374.679 118.493Z" fill="#FF9864"/>
<path d="M401.553 133.753C407.384 134.884 419.806 136.842 422.848 135.637C426.65 134.13 428.552 132.623 428.552 128.103" stroke="#EE8E5D"/>
<path d="M412.961 162.007C417.778 162.007 427.563 161.856 428.172 161.253" stroke="#EE8E5D"/>
<path d="M253.305 191.39C253.516 188.979 251.985 185.865 251.193 184.61C249.081 186.87 248.817 191.39 248.817 192.897C248.817 194.404 250.401 200.055 251.457 198.171C252.513 196.288 253.041 194.404 253.305 191.39Z" fill="#FB8398"/>
<path d="M254.454 207.951C256.154 207.814 258.025 205.104 258.748 203.767C256.81 201.209 253.647 201.652 252.608 201.923C251.57 202.194 247.96 205.434 249.448 206.578C250.936 207.721 252.33 208.123 254.454 207.951Z" fill="#FB8398"/>
<path d="M244.95 204.285C243.675 202.675 241.01 202.718 239.837 202.942C239.951 206.705 242.415 209.57 243.286 210.421C244.158 211.272 248.319 212.599 247.827 210.292C247.334 207.984 246.543 206.298 244.95 204.285Z" fill="#FB8398"/>
<path d="M257.815 235.898C259.335 234.804 260.294 231.255 260.583 229.617C258.091 228.374 255.314 230.58 254.438 231.42C253.561 232.26 251.156 237.285 252.84 237.487C254.524 237.688 255.914 237.264 257.815 235.898Z" fill="#FB8398"/>
<path d="M243.029 223.189C241.344 222.843 239.133 224.969 238.239 226.076C239.783 229.131 242.945 229.592 244.001 229.62C245.056 229.648 249.044 227.493 247.744 225.952C246.445 224.41 245.135 223.622 243.029 223.189Z" fill="#FB8398"/>
<path d="M251.477 197.418C250.509 199.929 248.924 206.152 248.046 210.226C246.99 215.123 246.462 221.904 248.309 226.801C249.548 230.085 252.269 231.699 252.269 239.233C252.269 242.247 252.269 248.274 252.269 250.534" stroke="#FB8398"/>
<path d="M247.254 223.411C247.957 221.527 250.051 217.76 252.797 217.76C256.228 217.76 257.812 216.63 258.076 215.877" stroke="#FB8398"/>
<ellipse rx="1.31974" ry="1.88356" transform="matrix(-1 0 0 1 258.867 215.123)" fill="#FB8398"/>
<path d="M238.984 191.39C238.68 188.979 240.885 185.865 242.026 184.61C245.068 186.87 245.448 191.39 245.448 192.897C245.448 194.404 243.167 200.055 241.646 198.171C240.125 196.288 239.364 194.404 238.984 191.39Z" fill="#FC6681"/>
<path d="M237.328 207.951C234.879 207.814 232.184 205.104 231.142 203.767C233.934 201.209 238.491 201.652 239.987 201.923C241.483 202.194 246.684 205.434 244.54 206.578C242.396 207.721 240.388 208.123 237.328 207.951Z" fill="#FC6681"/>
<path d="M251.02 204.285C252.856 202.675 256.696 202.718 258.386 202.942C258.222 206.705 254.672 209.57 253.417 210.421C252.161 211.272 246.166 212.599 246.876 210.292C247.585 207.984 248.725 206.298 251.02 204.285Z" fill="#FC6681"/>
<path d="M232.486 235.898C230.296 234.804 228.915 231.255 228.498 229.617C232.088 228.374 236.089 230.58 237.352 231.42C238.615 232.26 242.079 237.285 239.653 237.487C237.227 237.688 235.224 237.264 232.486 235.898Z" fill="#FC6681"/>
<path d="M253.788 223.189C256.216 222.843 259.4 224.969 260.688 226.076C258.464 229.131 253.908 229.592 252.388 229.62C250.867 229.648 245.121 227.493 246.994 225.952C248.867 224.41 250.754 223.622 253.788 223.189Z" fill="#FC6681"/>
<path d="M241.617 197.418C243.011 199.929 245.295 206.152 246.56 210.226C248.081 215.123 248.842 221.904 246.18 226.801C244.395 230.085 240.476 231.699 240.476 239.233C240.476 242.247 240.476 248.274 240.476 250.534" stroke="#FC6681"/>
<path d="M247.701 223.411C246.687 221.527 243.67 217.76 239.716 217.76C234.772 217.76 232.491 216.63 232.111 215.877" stroke="#FC6681"/>
<ellipse cx="230.97" cy="215.123" rx="1.90129" ry="1.88356" fill="#FC6681"/>
<g opacity="0.9">
<path d="M250.076 191.39C250.38 188.979 248.175 185.865 247.034 184.61C243.992 186.87 243.612 191.39 243.612 192.897C243.612 194.404 245.893 200.055 247.414 198.171C248.935 196.288 249.696 194.404 250.076 191.39Z" fill="#FFD037"/>
<path d="M251.732 207.951C254.181 207.814 256.876 205.104 257.918 203.767C255.126 201.209 250.569 201.652 249.073 201.923C247.577 202.194 242.376 205.434 244.52 206.578C246.664 207.721 248.672 208.123 251.732 207.951Z" fill="#FFD037"/>
<path d="M238.04 204.285C236.204 202.675 232.364 202.718 230.674 202.942C230.838 206.705 234.388 209.57 235.643 210.421C236.898 211.272 242.894 212.599 242.184 210.292C241.475 207.984 240.335 206.298 238.04 204.285Z" fill="#FFD037"/>
<path d="M256.574 235.898C258.764 234.804 260.145 231.255 260.562 229.617C256.972 228.374 252.971 230.58 251.708 231.42C250.445 232.26 246.981 237.285 249.407 237.487C251.833 237.688 253.836 237.264 256.574 235.898Z" fill="#FFD037"/>
<path d="M235.272 223.189C232.844 222.843 229.66 224.969 228.372 226.076C230.596 229.131 235.152 229.592 236.672 229.62C238.193 229.648 243.938 227.493 242.066 225.952C240.193 224.41 238.306 223.622 235.272 223.189Z" fill="#FFD037"/>
<path d="M247.443 197.418C246.049 199.929 243.765 206.152 242.5 210.226C240.979 215.123 240.218 221.904 242.88 226.801C244.665 230.085 248.584 231.699 248.584 239.233C248.584 242.247 248.584 248.274 248.584 250.534" stroke="#FFD037"/>
<path d="M241.359 223.411C242.373 221.527 245.389 217.76 249.344 217.76C254.288 217.76 256.569 216.63 256.949 215.877" stroke="#FFD037"/>
<ellipse rx="1.90129" ry="1.88356" transform="matrix(-1 0 0 1 258.09 215.123)" fill="#FFD037"/>
</g>
<g opacity="0.9">
<path d="M252.673 191.39C252.369 188.979 254.574 185.865 255.715 184.61C258.757 186.87 259.138 191.39 259.138 192.897C259.138 194.404 256.856 200.055 255.335 198.171C253.814 196.288 253.053 194.404 252.673 191.39Z" fill="#FFD037"/>
<path d="M251.017 207.951C248.568 207.814 245.873 205.104 244.831 203.767C247.623 201.209 252.18 201.652 253.676 201.923C255.173 202.194 260.373 205.434 258.229 206.578C256.085 207.721 254.078 208.123 251.017 207.951Z" fill="#FFD037"/>
<path d="M264.709 204.285C266.546 202.675 270.385 202.718 272.076 202.942C271.912 206.705 268.361 209.57 267.106 210.421C265.851 211.272 259.855 212.599 260.565 210.292C261.275 207.984 262.414 206.298 264.709 204.285Z" fill="#FFD037"/>
<path d="M246.175 235.898C243.985 234.804 242.604 231.255 242.187 229.617C245.777 228.374 249.778 230.58 251.041 231.42C252.304 232.26 255.769 237.285 253.342 237.487C250.916 237.688 248.913 237.264 246.175 235.898Z" fill="#FFD037"/>
<path d="M267.477 223.189C269.905 222.843 273.089 224.969 274.377 226.076C272.153 229.131 267.598 229.592 266.077 229.62C264.556 229.648 258.811 227.493 260.683 225.952C262.556 224.41 264.443 223.622 267.477 223.189Z" fill="#FFD037"/>
<path d="M255.306 197.418C256.7 199.929 258.984 206.152 260.25 210.226C261.771 215.123 262.531 221.904 259.869 226.801C258.085 230.085 254.166 231.699 254.165 239.233C254.165 242.247 254.165 248.274 254.165 250.534" stroke="#FFD037"/>
<path d="M261.39 223.411C260.376 221.527 257.36 217.76 253.405 217.76C248.462 217.76 246.18 216.63 245.8 215.877" stroke="#FFD037"/>
<ellipse cx="244.659" cy="215.123" rx="1.90129" ry="1.88356" fill="#FFD037"/>
</g>
<path d="M241.602 244.478C239.777 247.492 229.941 258.04 225.251 262.937C223.35 264.935 225.251 269.718 229.054 270.848C232.856 271.978 244.644 276.498 275.445 274.238C306.246 271.978 287.614 259.546 284.952 259.17C282.29 258.793 276.206 256.909 273.164 255.403C270.122 253.896 254.531 245.231 252.25 244.478C249.968 243.724 243.884 240.711 241.602 244.478Z" fill="#A8A8A8"/>
<path d="M239.335 272.384C228.384 272.082 225.012 266.356 224.505 264.849C223.998 264.849 224.867 267.034 225.475 268.24C226.236 269.747 226.236 270.123 230.038 272.007C233.841 273.89 255.687 275.397 272.418 274.644C288.543 273.918 289.91 272.76 292.191 269.747C294.093 267.235 293.332 266.733 288.769 270.5C286.895 272.048 282.815 272.687 278.502 273.137C266.783 274.36 249.342 272.659 239.335 272.384Z" fill="#868686"/>
<path d="M392.979 254.321C397.541 255.034 398.4 262.146 403.09 265.236C405.356 265.979 403.09 269.514 399.288 270.227C395.486 270.94 383.699 273.793 352.904 272.366C322.108 270.94 340.737 263.097 343.399 262.859C346.06 262.622 352.143 261.433 355.185 260.483C358.226 259.532 368.152 252.284 370.547 252.42C374.729 252.657 385.884 253.212 392.979 254.321Z" fill="#A8A8A8"/>
<path d="M389.005 270.877C399.899 270.695 403.455 265.603 403.835 265.979C404.215 266.356 403.486 268.094 402.695 268.616C401.554 269.37 400.773 270.117 396.991 271.253C393.208 272.39 372.667 273.849 356.024 273.394C339.984 272.956 338.625 272.258 336.355 270.44C334.464 268.925 335.221 268.622 339.76 270.895C341.624 271.828 345.682 272.214 349.972 272.485C361.629 273.223 379.052 271.043 389.005 270.877Z" fill="#868686"/>
<rect x="283.673" y="168.788" width="88.9806" height="3.0137" fill="#C3BACC"/>
<rect x="276.828" y="143.171" width="102.67" height="20.3425" fill="#5860C6"/>
<rect x="295.841" y="147.692" width="64.644" height="12.0548" fill="white"/>
<path d="M304.285 153.396H305.432C305.441 153.163 305.447 152.928 305.449 152.689H305.777C305.773 152.926 305.766 153.162 305.756 153.396H307.199C307.173 154.454 307.151 155.195 307.133 155.619C307.099 156.132 306.874 156.391 306.457 156.396C306.225 156.396 305.978 156.391 305.715 156.381C305.704 156.277 305.686 156.152 305.66 156.006C305.939 156.037 306.189 156.053 306.41 156.053C306.665 156.048 306.801 155.877 306.816 155.541C306.842 155.012 306.862 154.404 306.875 153.717H305.74C305.7 154.528 305.592 155.102 305.418 155.439C305.254 155.801 304.896 156.156 304.344 156.502C304.281 156.408 304.215 156.318 304.145 156.232C304.665 155.894 304.996 155.567 305.137 155.252C305.286 154.977 305.38 154.465 305.416 153.717H304.285V153.396ZM304.605 154.061L304.918 154.178C304.751 154.571 304.566 154.964 304.363 155.357C304.277 155.311 304.177 155.261 304.062 155.209C304.273 154.855 304.454 154.472 304.605 154.061ZM307.254 154.182L307.539 154.088C307.672 154.4 307.809 154.749 307.949 155.135L307.629 155.248C307.52 154.899 307.395 154.544 307.254 154.182ZM308.121 154.182H309.68V152.689H310.008V153.271H311.648V153.561H310.008V154.182H311.895V154.479H308.121V154.182ZM309.676 154.619H310.004V155.068L310.164 154.861C310.784 155.145 311.288 155.396 311.676 155.615L311.473 155.904C311.118 155.688 310.629 155.429 310.004 155.127V156.537H309.676V154.619Z" fill="#5860C6"/>
<path d="M317.67 154.771C317.832 154.735 318.011 154.693 318.205 154.645V153.721H317.709V153.459H318.205V152.693H318.505V153.459H318.955V153.721H318.505V154.57C318.645 154.534 318.791 154.495 318.943 154.455C318.938 154.585 318.934 154.689 318.931 154.768C318.788 154.805 318.646 154.842 318.505 154.879V156.014C318.505 156.3 318.373 156.447 318.107 156.455C318.005 156.458 317.887 156.459 317.752 156.459C317.741 156.35 317.724 156.243 317.701 156.139C317.834 156.152 317.943 156.158 318.029 156.158C318.146 156.158 318.205 156.094 318.205 155.967V154.957C318.03 155.004 317.858 155.05 317.689 155.096L317.67 154.771ZM318.841 156.021H320.052V155.377H319.084V155.096H320.052V154.576H320.357V155.096H321.295V155.377H320.357V156.021H321.521V156.303H318.841V156.021ZM319.037 154.174H320.052V153.549H319.177V153.268H320.052V152.693H320.357V153.268H321.24V153.549H320.357V154.174H321.459V154.455H319.037V154.174ZM322.287 152.857H324.939V154.146H324.63V153.986H322.595V154.166H322.287V152.857ZM322.361 155.342V155.057L322.531 154.654H321.681V154.369H325.552V154.654H322.853L322.685 155.061H325.017C324.986 155.363 324.956 155.61 324.927 155.803C324.865 156.227 324.62 156.439 324.193 156.439C323.894 156.439 323.573 156.434 323.232 156.424C323.216 156.335 323.194 156.222 323.166 156.084C323.538 156.115 323.862 156.131 324.138 156.131C324.42 156.131 324.578 156.005 324.615 155.752C324.633 155.648 324.651 155.511 324.67 155.342H322.361ZM324.63 153.139H322.595V153.705H324.63V153.139Z" fill="#5860C6"/>
<path d="M334.21 152.693L334.48 152.74C334.436 152.988 334.385 153.219 334.328 153.436H335.218V153.689H335.023C334.984 154.468 334.856 155.083 334.64 155.533C334.812 155.809 335.015 156.028 335.25 156.189C335.184 156.281 335.125 156.381 335.07 156.49C334.825 156.261 334.631 156.032 334.488 155.803C334.311 156.079 334.091 156.33 333.828 156.557C333.783 156.486 333.718 156.404 333.632 156.311C333.927 156.068 334.16 155.804 334.332 155.518C334.181 155.195 334.075 154.799 334.015 154.33C333.973 154.426 333.929 154.518 333.882 154.604C333.835 154.525 333.779 154.442 333.714 154.354C333.967 153.83 334.132 153.277 334.21 152.693ZM332.55 153.1H332.902C332.954 152.967 332.998 152.825 333.035 152.674L333.312 152.736C333.27 152.854 333.221 152.975 333.164 153.1H333.691V154.525H333.441V154.443H332.8V154.525H332.55V153.1ZM332.449 154.799H333.046C333.01 154.726 332.97 154.645 332.925 154.557L333.144 154.463C333.22 154.598 333.278 154.71 333.32 154.799H333.863V155.037H332.988C332.985 155.139 332.98 155.232 332.972 155.318H333.718C333.703 155.62 333.684 155.856 333.664 156.025C333.63 156.294 333.489 156.428 333.242 156.428C333.132 156.428 333.019 156.426 332.902 156.424C332.886 156.343 332.867 156.255 332.843 156.158C332.986 156.171 333.1 156.178 333.183 156.178C333.329 156.178 333.408 156.094 333.421 155.928C333.437 155.785 333.447 155.658 333.453 155.549H332.945C332.885 155.916 332.703 156.238 332.398 156.514C332.354 156.475 332.279 156.411 332.175 156.322C332.467 156.088 332.643 155.801 332.703 155.463C332.721 155.356 332.733 155.214 332.738 155.037H332.449V154.799ZM331.792 154.986C331.946 154.971 332.135 154.95 332.359 154.924C332.346 155.038 332.335 155.126 332.328 155.186C331.94 155.225 331.657 155.26 331.48 155.291L331.425 155.045C331.553 154.912 331.717 154.645 331.917 154.244C331.769 154.257 331.605 154.273 331.425 154.291L331.355 154.045C331.592 153.678 331.804 153.23 331.992 152.701L332.273 152.791C332.057 153.275 331.854 153.686 331.664 154.021C331.765 154.021 331.886 154.019 332.027 154.014C332.092 153.876 332.161 153.725 332.234 153.561L332.492 153.666C332.223 154.208 331.99 154.648 331.792 154.986ZM334.757 153.689H334.253C334.235 153.757 334.214 153.822 334.191 153.885C334.246 154.439 334.342 154.886 334.48 155.225C334.639 154.837 334.731 154.325 334.757 153.689ZM331.367 155.768C331.695 155.721 332.058 155.665 332.457 155.6C332.444 155.719 332.436 155.805 332.433 155.857C332.022 155.941 331.688 156.01 331.433 156.064L331.367 155.768ZM332.8 154.213H333.441V153.881H332.8V154.213ZM333.441 153.33H332.8V153.658H333.441V153.33ZM335.632 153.029H336.753C336.759 152.912 336.761 152.803 336.761 152.701H337.042C337.042 152.803 337.04 152.912 337.035 153.029H337.714V152.701H337.996V153.029H338.937V153.92H338.656V153.822H337.996V154.174H339.113C339.108 154.361 339.093 154.521 339.07 154.654C339.041 154.837 338.924 154.928 338.718 154.928C338.687 154.928 338.648 154.928 338.601 154.928V155.881H338.32V155.084H336.359V155.928H336.078V155.084C335.919 155.154 335.738 155.219 335.535 155.279C335.501 155.204 335.445 155.114 335.367 155.01C335.96 154.882 336.352 154.679 336.542 154.4H335.683L335.808 153.596H336.738C336.746 153.494 336.75 153.381 336.75 153.256H335.632V153.029ZM338.269 154.654C338.415 154.67 338.536 154.678 338.632 154.678C338.736 154.678 338.796 154.639 338.812 154.561C338.822 154.503 338.829 154.45 338.832 154.4H337.996V154.783H337.714V154.4H336.875C336.804 154.559 336.682 154.704 336.507 154.834H338.324C338.311 154.785 338.292 154.725 338.269 154.654ZM337.199 155.303H337.476C337.476 155.469 337.458 155.617 337.421 155.744C338.015 155.919 338.554 156.092 339.039 156.264L338.894 156.545C338.368 156.35 337.845 156.166 337.324 155.994C337.162 156.257 336.628 156.442 335.722 156.549C335.673 156.424 335.628 156.33 335.589 156.268C336.191 156.21 336.643 156.11 336.945 155.967C337.119 155.881 337.204 155.66 337.199 155.303ZM336.949 154.174H337.714V153.822H337.003C336.99 153.96 336.972 154.077 336.949 154.174ZM336 154.174H336.652C336.681 154.083 336.703 153.965 336.718 153.822H336.046L336 154.174ZM337.019 153.596H337.714V153.256H337.031C337.031 153.378 337.027 153.492 337.019 153.596ZM338.656 153.256H337.996V153.596H338.656V153.256Z" fill="#5860C6"/>
<path d="M345.044 154.908C345.285 154.831 345.52 154.755 345.747 154.678V153.764H345.107V153.467H345.747V152.717H346.06V153.467H346.642V153.764H346.06V154.57C346.276 154.496 346.487 154.421 346.693 154.346C346.701 154.479 346.711 154.583 346.724 154.658C346.5 154.736 346.279 154.815 346.06 154.895V156.045C346.06 156.329 345.925 156.471 345.654 156.471C345.536 156.471 345.387 156.469 345.204 156.467C345.191 156.357 345.176 156.248 345.158 156.139C345.288 156.157 345.427 156.166 345.576 156.166C345.69 156.166 345.747 156.104 345.747 155.979V155.006C345.54 155.081 345.336 155.157 345.134 155.232L345.044 154.908ZM346.685 153.01H348.939V153.307H348.267V155.951C348.267 156.282 348.104 156.449 347.779 156.451C347.609 156.454 347.383 156.452 347.099 156.447C347.086 156.327 347.065 156.209 347.036 156.092C347.331 156.113 347.551 156.123 347.697 156.123C347.858 156.123 347.939 156.032 347.939 155.85V153.307H346.685V153.01ZM351.044 152.982H352.712V155.342C352.712 155.686 352.547 155.859 352.216 155.861C352.05 155.864 351.85 155.863 351.619 155.857C351.606 155.743 351.589 155.623 351.568 155.498C351.802 155.519 351.986 155.529 352.119 155.529C352.301 155.532 352.392 155.437 352.392 155.244V153.287H351.365V156.521H351.044V152.982ZM350.892 152.955C350.548 153.049 350.122 153.148 349.615 153.252V154.15H350.798V154.443H349.615V155.654C350.021 155.524 350.423 155.387 350.822 155.244C350.822 155.356 350.832 155.467 350.853 155.576C350.415 155.719 350.005 155.867 349.622 156.018C349.531 156.062 349.453 156.114 349.388 156.174L349.177 155.9C349.26 155.807 349.3 155.688 349.294 155.545V153.021C349.857 152.912 350.34 152.795 350.744 152.67L350.892 152.955Z" fill="#5860C6"/>
<rect x="283.673" y="163.514" width="88.9806" height="5.27397" fill="#3B393A"/>
<rect x="283.673" y="171.801" width="88.9806" height="76.8493" fill="#F7F7F7"/>
<rect x="276.828" y="163.514" width="6.84466" height="216.986" fill="white"/>
<rect x="372.654" y="163.514" width="6.84466" height="216.986" fill="white"/>
<path d="M276.828 189.13H280.631V331.527H276.828V189.13Z" fill="#5860C6"/>
<path d="M279.871 173.308L276.828 163.514H279.871V173.308Z" fill="black" fill-opacity="0.85"/>
<path d="M376.456 173.308L379.498 163.514H376.456V173.308Z" fill="black" fill-opacity="0.85"/>
<rect x="293.56" y="182.349" width="44.11" height="36.9178" fill="#F4E0D4"/>
<rect x="296.602" y="186.87" width="9.12621" height="5.27397" fill="#6C63FF"/>
<rect x="296.602" y="198.171" width="9.12621" height="5.27397" fill="#6C63FF"/>
<rect x="296.602" y="209.473" width="9.12621" height="5.27397" fill="#6C63FF"/>
<rect x="311.052" y="198.171" width="9.12621" height="5.27397" fill="#6C63FF"/>
<rect x="311.052" y="209.473" width="9.12621" height="5.27397" fill="#D9C7DD"/>
<rect x="325.502" y="186.87" width="9.12621" height="5.27397" fill="#D9C7DD"/>
<rect x="325.502" y="198.171" width="9.12621" height="5.27397" fill="#D9C7DD"/>
<rect x="325.502" y="209.473" width="9.12621" height="5.27397" fill="#D9C7DD"/>
<rect x="349.078" y="207.966" width="16.7314" height="8.28767" fill="#CECECE"/>
<rect x="344.515" y="232.075" width="21.2945" height="12.8082" fill="#FF9C52"/>
<rect x="294.06" y="227.301" width="43.11" height="17.0822" fill="#E2E2E2" stroke="#C3C3C3"/>
<rect x="344.515" y="186.87" width="21.2945" height="8.28767" fill="#FF9C52"/>
<rect x="301.165" y="236.596" width="17.4919" height="5.27397" fill="#332627"/>
<rect x="321.699" y="232.075" width="13.6893" height="1.50685" fill="#929292"/>
<rect x="283.673" y="248.651" width="88.9806" height="131.849" fill="#F7F7F7"/>
<rect x="283.673" y="299.13" width="88.9806" height="5.27397" fill="#5860C6"/>
<rect x="283.673" y="248.651" width="88.9806" height="45.9589" fill="#5860C6"/>
<rect x="292.799" y="268.24" width="44.8706" height="15.0685" fill="white"/>
<rect x="316.375" y="82.8973" width="47.4563" height="35.5616" fill="white"/>
<rect x="317.592" y="125.089" width="45.0227" height="18.0822" fill="url(#paint0_linear_746_734)"/>
<rect x="323.676" y="126.295" width="33.4628" height="6.63014" rx="3.31507" fill="#EEEEEE"/>
<path d="M319.417 140.158C319.417 137.162 321.846 134.733 324.842 134.733H355.973C358.969 134.733 361.398 137.162 361.398 140.158V140.158H319.417V140.158Z" fill="white"/>
<rect x="348.013" y="135.938" width="7.90938" height="1.20548" fill="#BCBCBC"/>
<rect x="340.712" y="137.747" width="3.04207" height="1.20548" fill="#8E8D8E"/>
<rect x="326.719" y="135.938" width="9.12621" height="1.80822" fill="#201B16"/>
<path d="M323.068 139.555V143.171H324.285V140.459H343.146V143.171H344.362V139.555H323.068Z" fill="#5860C6"/>
<path d="M316.375 118.459H363.832L362.615 125.089H317.592L316.375 118.459Z" fill="#D9D9D9"/>
<ellipse cx="340.103" cy="84.7055" rx="1.21683" ry="1.20548" fill="#525252"/>
<rect x="322.46" y="87.1164" width="35.288" height="29.5342" fill="#ECD2CC"/>
<rect x="324.893" y="90.7329" width="7.30097" height="4.21918" fill="#F78B59"/>
<rect x="324.893" y="99.774" width="7.30097" height="4.21918" fill="#F78B59"/>
<rect x="324.893" y="108.815" width="7.30097" height="4.21918" fill="#F78B59"/>
<rect x="336.453" y="99.774" width="7.30097" height="4.21918" fill="#F78B59"/>
<rect x="336.453" y="108.815" width="7.30097" height="4.21918" fill="#D9C7DD"/>
<rect x="348.013" y="90.7329" width="7.30097" height="4.21918" fill="#D9C7DD"/>
<rect x="348.013" y="99.774" width="7.30097" height="4.21918" fill="#D9C7DD"/>
<rect x="348.013" y="108.815" width="7.30097" height="4.21918" fill="#D9C7DD"/>
<path d="M245.063 330.932C248.486 327.918 255.406 321.212 255.711 318.5C256.091 315.11 247.345 309.082 245.063 307.199C242.782 305.315 263.316 294.014 265.217 285.35C267.118 276.685 262.936 266.514 273.203 257.473C283.47 248.432 279.87 234.712 262.379 228.685C244.887 222.658 269.4 199.301 273.203 182.726C277.005 166.151 254.013 148.445 286.512 123.74C295.512 116.898 302.483 109.802 316.172 114.699" stroke="#535461"/>
<path d="M146.4 218.89C122.271 218.89 124.345 200.055 122.271 195.583C122.259 194.452 120.75 194.829 119.61 191.439C118.697 188.726 121.004 185.035 122.271 183.528C126.961 179.635 136.949 171.699 139.383 171.096L146.4 170.671V218.89Z" fill="#F7C4A7"/>
<path d="M146.019 218.89C170.148 218.89 168.074 200.055 170.148 195.583C170.16 194.452 171.669 194.829 172.81 191.439C173.722 188.726 171.415 185.035 170.148 183.528C165.458 179.635 155.47 171.699 153.036 171.096L146.019 170.671V218.89Z" fill="#F7C4A7"/>
<path d="M78.9637 315.157C46.4135 322.993 43.3495 309.176 46.3916 301.014C50.9549 291.973 63.3729 291.801 71.3584 292.931C80.7889 294.266 78.3333 301.39 79.0939 304.404C80.1251 308.49 86.3189 302.897 88.6003 301.39C90.4255 300.185 88.8502 298.457 91.5121 298.205C100.892 300.591 111.514 307.322 78.9637 315.157Z" fill="#F7C4A7"/>
<path d="M133.847 177.133C132.63 187.078 125.228 192.076 121.679 193.332C119.397 194.085 121.299 192.955 119.397 191.071C117.496 189.188 119.778 186.551 119.778 180.9C119.778 175.249 124.721 173.366 133.467 169.222C142.213 165.078 155.142 172.989 162.747 174.496C170.352 176.003 173.774 183.914 169.972 190.695C166.93 196.119 167.69 192.704 168.451 190.318C169.084 188.937 168.831 185.195 162.747 181.277C156.663 177.359 157.17 178.389 158.184 179.393C160.592 181.528 163.511 181.789 154.385 180.466C147.54 179.712 149.442 181.596 152.86 182.784C156.789 184.039 162.291 186.099 152.86 184.29C143.43 182.482 137.776 177.007 136.129 174.496C135.875 171.231 135.064 167.188 133.847 177.133Z" fill="#632652"/>
<path d="M139.193 149.199C125.884 149.199 119.42 163.89 119.42 168.411C119.42 172.932 119.927 174.187 119.04 177.452C119.04 177.452 114.477 186.116 119.42 191.014C121.19 185.056 129.522 173.141 148.687 173.141V147.692L139.193 149.199Z" fill="#FF9864"/>
<path d="M153.237 149.199C166.546 149.199 173.011 163.89 173.011 168.411C173.011 172.932 172.504 174.187 173.391 177.452C173.391 177.452 177.954 186.116 173.011 191.014C171.24 185.056 162.909 173.141 143.744 173.141L144.118 147.692L153.237 149.199Z" fill="#FF9864"/>
<path d="M119.401 177.075C119.401 177.075 123.997 165.021 146.208 165.021C168.42 165.021 173.398 177.075 173.398 177.075" stroke="#F08F5E"/>
<path d="M146.4 144.678C119.629 144.678 113.444 165.021 113.697 175.192H117.88C117.88 175.192 117.12 163.514 125.485 155.603C133.851 147.692 146.4 148.822 146.4 148.822V144.678Z" fill="#FFD037"/>
<path d="M146.019 144.678C172.79 144.678 178.975 165.021 178.722 175.192H174.539C174.539 175.192 175.299 163.514 166.934 155.603C158.568 147.692 146.019 148.822 146.019 148.822V144.678Z" fill="#FFD037"/>
<rect x="114.838" y="175.192" width="2.28155" height="12.0548" fill="#72649E"/>
<rect x="175.68" y="175.192" width="2.28155" height="12.0548" fill="#72649E"/>
<rect x="117.88" y="183.479" width="3.80259" height="19.589" rx="1.90129" fill="#72649E"/>
<rect x="170.356" y="182.726" width="3.80259" height="19.589" rx="1.90129" fill="#72649E"/>
<path d="M111.036 192.897C111.036 187.774 115.599 185.237 117.88 184.61V201.562C115.599 200.808 111.036 198.021 111.036 192.897Z" fill="#FFD037"/>
<path d="M181.003 192.521C181.003 187.397 176.44 184.861 174.159 184.233V201.185C176.44 200.432 181.003 197.644 181.003 192.521Z" fill="#FFD037"/>
<path d="M125.866 218.738C125.257 215.724 127.894 213.114 128.147 212.11C130.429 216.63 138.414 215.877 148.301 215.877C158.188 215.877 162.326 211.203 163.087 211.203C163.847 211.203 164.652 210.827 163.511 217.984C162.371 225.142 167.694 235.466 160.089 241.87C152.484 248.274 134.231 239.233 129.668 236.219C125.105 233.205 126.626 222.505 125.866 218.738Z" fill="#F7C4A7"/>
<path d="M128.147 211.733C128.147 211.733 130.809 215.5 135.372 216.63C139.935 217.76 145.639 217.76 145.639 217.76" stroke="#DEB096"/>
<path d="M163.511 212.863C163.511 212.863 160.089 215.5 155.526 216.63C150.963 217.76 145.259 217.76 145.259 217.76" stroke="#DEB096"/>
<path d="M63.8835 295.697C55.0615 294.19 48.7999 298.126 46.3916 301.014C48.0394 297.623 50.8026 291.779 51.7152 289.669C52.856 287.032 62.3625 263.3 67.3058 248.984C72.2492 234.669 82.1359 225.252 85.5583 221.861C88.2961 219.149 115.218 213.993 128.147 212.11C127.387 219.016 127.995 234.82 138.034 239.943C150.583 246.347 156.286 239.567 158.188 236.93C159.709 234.82 162.497 219.267 163.892 212.11C166.173 210.979 169.595 210.936 185.566 211.69C201.392 212.436 208.63 225.76 211.35 230.767L211.424 230.902C214.086 235.799 214.086 256.519 213.706 272.341C213.401 284.998 205.213 305.994 201.157 314.909C201.157 314.909 196.594 308.505 192.411 305.868C188.228 303.231 179.482 302.478 179.482 302.478L87.8398 289.669L79.0939 304.361C77.6996 302.101 72.7055 297.204 63.8835 295.697Z" fill="#FF9864"/>
<path d="M180.043 249.027C181.564 246.616 181.183 238.228 180.803 234.336C187.648 240.363 184.606 248.651 183.085 254.301C181.564 259.952 178.141 252.041 180.043 249.027Z" fill="#E5895A"/>
<path d="M103.912 254.301C102.391 251.89 102.771 243.502 103.152 239.61C96.3069 245.637 99.349 253.925 100.87 259.575C102.391 265.226 105.813 257.315 103.912 254.301Z" fill="#E5895A"/>
<path d="M174.919 244.884H99.2476C92.4029 245.26 82.5162 252.795 82.5162 259.199V304.027C79.0939 304.027 77.0658 308.297 76.8123 310.432H195.833C195.833 305.911 191.777 304.906 189.749 304.027V261.459C189.749 249.103 179.862 245.26 174.919 244.884Z" fill="#535461"/>
<ellipse cx="136.513" cy="274.644" rx="4.18285" ry="4.14384" fill="#D9D9D9"/>
<rect y="310.432" width="295.841" height="9.0411" fill="#D9D9D9"/>
<rect x="17.4919" y="319.473" width="260.097" height="5.27397" fill="#C0C0CC"/>
<rect x="17.4919" y="324.747" width="260.097" height="55.7534" fill="#D6D6E3"/>
<path d="M195.453 308.925C201.12 309.998 212.831 312.861 230.209 312.861C247.587 312.861 227.565 336.839 226.809 344.712C226.054 352.586 235.876 364.753 236.632 380.5" stroke="#666772"/>
<defs>
<linearGradient id="paint0_linear_746_734" x1="340.104" y1="125.089" x2="340.104" y2="143.171" gradientUnits="userSpaceOnUse">
<stop stop-color="#C1C2C2"/>
<stop offset="1" stop-color="#EAEAEA"/>
</linearGradient>
</defs>
</svg>
