<svg width="470" height="431" viewBox="0 0 470 431" fill="none" xmlns="http://www.w3.org/2000/svg">
<rect x="50.0251" y="102.054" width="159.042" height="88.7821" fill="#F6F7F9" stroke="#ECECEC"/>
<ellipse cx="86.7952" cy="142.065" rx="17.5388" ry="17.5185" fill="#DAD9FA"/>
<rect x="114.038" y="124.547" width="57.0012" height="4.37961" fill="#DAD9FA"/>
<rect x="114.038" y="134.401" width="57.0012" height="4.37961" fill="#DAD9FA"/>
<rect x="114.038" y="144.255" width="57.0012" height="4.37961" fill="#DAD9FA"/>
<rect x="114.038" y="154.109" width="57.0012" height="4.37961" fill="#DAD9FA"/>
<rect x="152.998" y="24.5447" width="85.1484" height="47.3285" fill="#F6F7F9" stroke="#ECECEC"/>
<ellipse cx="172.56" cy="45.8514" rx="9.44092" ry="9.42996" fill="#DAD9FA"/>
<rect x="193.802" y="36.4215" width="30.683" height="2.35749" fill="#DAD9FA"/>
<rect x="193.438" y="41.3934" width="12.4063" height="2.47839" fill="#DAD9FA"/>
<rect x="193.438" y="47.5893" width="19.8501" height="2.47839" fill="#DAD9FA"/>
<rect x="193.438" y="52.5461" width="27.2939" height="2.47839" fill="#DAD9FA"/>
<rect x="200.882" y="61.2205" width="23.572" height="4.95677" fill="#6C63FF"/>
<rect x="268.377" y="1" width="72.1974" height="40.0631" fill="#F6F7F9" stroke="#ECECEC"/>
<ellipse cx="284.923" cy="19.0285" rx="8.02163" ry="8.01232" fill="#DAD9FA"/>
<rect x="302.971" y="11.0162" width="26.0703" height="2.00308" fill="#DAD9FA"/>
<rect x="302.663" y="15.2406" width="10.5412" height="2.1058" fill="#DAD9FA"/>
<rect x="302.663" y="20.5051" width="16.866" height="2.1058" fill="#DAD9FA"/>
<rect x="302.663" y="24.7167" width="23.1907" height="2.1058" fill="#DAD9FA"/>
<rect x="310.058" y="33.9582" width="18.6095" height="2.47839" fill="#DAD9FA"/>
<rect x="282.023" y="106.331" width="73.438" height="40.7591" fill="#F6F7F9" stroke="#ECECEC"/>
<ellipse cx="298.858" cy="124.674" rx="8.15759" ry="8.14812" fill="#DAD9FA"/>
<rect x="317.213" y="116.526" width="26.5122" height="2.03703" fill="#DAD9FA"/>
<rect x="316.899" y="120.822" width="10.7199" height="2.14149" fill="#DAD9FA"/>
<rect x="316.899" y="126.176" width="17.1519" height="2.14149" fill="#DAD9FA"/>
<rect x="316.899" y="130.459" width="23.5838" height="2.14149" fill="#DAD9FA"/>
<rect x="126.444" y="131.854" width="124.063" height="84.2651" rx="4" fill="#474059"/>
<rect x="128.926" y="134.333" width="119.101" height="79.3084" rx="4" fill="white"/>
<rect x="182.273" y="214.88" width="11.1657" height="17.3487" fill="#474059"/>
<rect x="162.423" y="232.229" width="52.1066" height="2.47839" fill="#474059"/>
<rect x="188.476" y="140.529" width="48.3847" height="1.23919" fill="#D9D9D9"/>
<rect x="189.717" y="145.486" width="47.1441" height="1.23919" fill="#D9D9D9"/>
<rect x="189.717" y="150.442" width="47.1441" height="1.23919" fill="#D9D9D9"/>
<rect x="190.957" y="155.399" width="45.9035" height="1.23919" fill="#D9D9D9"/>
<rect x="190.957" y="160.356" width="45.9035" height="1.23919" fill="#D9D9D9"/>
<rect x="190.957" y="165.313" width="45.9035" height="1.23919" fill="#D9D9D9"/>
<rect x="190.957" y="170.269" width="45.9035" height="1.23919" fill="#D9D9D9"/>
<rect x="194.679" y="175.226" width="42.1816" height="1.23919" fill="#D9D9D9"/>
<rect x="194.679" y="180.183" width="42.1816" height="1.23919" fill="#D9D9D9"/>
<rect x="198.401" y="185.14" width="38.4597" height="1.23919" fill="#D9D9D9"/>
<rect x="198.401" y="190.097" width="38.4597" height="1.23919" fill="#D9D9D9"/>
<rect x="204.604" y="195.053" width="32.2565" height="1.23919" fill="#D9D9D9"/>
<rect x="204.604" y="200.01" width="32.2565" height="1.23919" fill="#D9D9D9"/>
<rect x="204.604" y="204.967" width="32.2565" height="1.23919" fill="#D9D9D9"/>
<rect x="134.388" y="141.029" width="44.9035" height="67.1556" stroke="#F1F2F6"/>
<rect x="146.294" y="145.486" width="21.0908" height="19.8271" fill="#F6F6F6"/>
<rect x="148.776" y="150.442" width="16.1282" height="12.3919" fill="#E9BBAE"/>
<rect x="150.016" y="151.682" width="3.7219" height="2.47839" fill="#F78B59"/>
<rect x="150.016" y="155.399" width="3.7219" height="2.47839" fill="#F78B59"/>
<rect x="150.016" y="159.117" width="3.7219" height="2.47839" fill="#F78B59"/>
<rect x="154.979" y="155.399" width="3.7219" height="2.47839" fill="#D7BCCE"/>
<rect x="154.979" y="159.117" width="3.7219" height="2.47839" fill="#F78B59"/>
<rect x="159.941" y="151.682" width="3.7219" height="2.47839" fill="#D7BCCE"/>
<rect x="159.941" y="155.399" width="3.7219" height="2.47839" fill="#D7BCCE"/>
<rect x="159.941" y="159.117" width="3.7219" height="2.47839" fill="#F78B59"/>
<ellipse cx="157.46" cy="147.964" rx="1.24063" ry="1.23919" fill="#C8C8C8"/>
<rect x="147.535" y="165.313" width="18.6095" height="8.67435" fill="#D1D1D1"/>
<rect x="147.535" y="173.987" width="18.6095" height="22.3055" fill="#EAEAEA"/>
<mask id="path-59-inside-1_746_769" fill="white">
<path d="M148.776 167.791H164.904V171.509H148.776V167.791Z"/>
</mask>
<path d="M148.776 167.791H164.904V171.509H148.776V167.791Z" fill="#EEEEEE"/>
<path d="M164.904 171.509V172.009H165.404V171.509H164.904ZM148.776 171.509H148.276V172.009H148.776V171.509ZM164.404 167.791V171.509H165.404V167.791H164.404ZM164.904 171.009H148.776V172.009H164.904V171.009ZM149.276 171.509V167.791H148.276V171.509H149.276Z" fill="#CCCCCC" mask="url(#path-59-inside-1_746_769)"/>
<rect x="148.776" y="171.509" width="16.1282" height="2.47839" fill="#F0F0F0"/>
<rect x="150.016" y="171.509" width="3.7219" height="1.23919" fill="#575350"/>
<rect x="154.979" y="171.509" width="3.7219" height="1.23919" fill="#D8D7D8"/>
<rect x="159.941" y="171.509" width="3.7219" height="1.23919" fill="#CDCDCD"/>
<rect x="150.266" y="175.476" width="8.18444" height="8.17435" fill="#EAEAEA" stroke="#D3D3DF" stroke-width="0.5"/>
<rect x="151.257" y="180.183" width="4.96254" height="1.23919" fill="#598A91"/>
<rect x="152.498" y="176.465" width="3.7219" height="1.23919" fill="#5B5957"/>
<rect x="161.182" y="176.465" width="3.7219" height="1.23919" fill="#8B8A89"/>
<rect x="161.182" y="178.944" width="3.7219" height="1.23919" fill="#BCBCBC"/>
<rect x="147.535" y="196.293" width="18.6095" height="3.71758" fill="#D9D9D9"/>
<rect x="146.294" y="200.01" width="21.0908" height="2.47839" fill="#3A767D"/>
<rect x="68.1348" y="234.707" width="385.837" height="18.5879" fill="#C0BCCF"/>
<mask id="path-73-inside-2_746_769" fill="white">
<path d="M432.881 253.295H451.491V404.477H432.881V253.295Z"/>
</mask>
<path d="M432.881 253.295H451.491V404.477H432.881V253.295Z" fill="#C0BCCF"/>
<path d="M432.881 254.295H451.491V252.295H432.881V254.295Z" fill="#ACA9BA" mask="url(#path-73-inside-2_746_769)"/>
<rect x="70.616" y="253.295" width="89.3256" height="151.182" fill="#D9D9D9"/>
<mask id="path-76-inside-3_746_769" fill="white">
<path d="M70.616 253.295H159.942V281.797H70.616V253.295Z"/>
</mask>
<path d="M70.616 253.295H159.942V281.797H70.616V253.295Z" fill="#C0BCCF"/>
<path d="M70.616 253.795H159.942V252.795H70.616V253.795ZM159.942 281.297H70.616V282.297H159.942V281.297Z" fill="#ACA9BA" mask="url(#path-76-inside-3_746_769)"/>
<mask id="path-78-inside-4_746_769" fill="white">
<path d="M70.616 281.797H159.942V311.537H70.616V281.797Z"/>
</mask>
<path d="M70.616 281.797H159.942V311.537H70.616V281.797Z" fill="#C0BCCF"/>
<path d="M70.616 282.297H159.942V281.297H70.616V282.297ZM159.942 311.037H70.616V312.037H159.942V311.037Z" fill="#ACA9BA" mask="url(#path-78-inside-4_746_769)"/>
<mask id="path-80-inside-5_746_769" fill="white">
<path d="M70.616 311.537H159.942V342.517H70.616V311.537Z"/>
</mask>
<path d="M70.616 311.537H159.942V342.517H70.616V311.537Z" fill="#C0BCCF"/>
<path d="M70.616 312.037H159.942V311.037H70.616V312.037ZM159.942 342.017H70.616V343.017H159.942V342.017Z" fill="#ACA9BA" mask="url(#path-80-inside-5_746_769)"/>
<mask id="path-82-inside-6_746_769" fill="white">
<path d="M70.616 342.517H159.942V373.497H70.616V342.517Z"/>
</mask>
<path d="M70.616 342.517H159.942V373.497H70.616V342.517Z" fill="#C0BCCF"/>
<path d="M70.616 343.017H159.942V342.017H70.616V343.017ZM159.942 372.997H70.616V373.997H159.942V372.997Z" fill="#ACA9BA" mask="url(#path-82-inside-6_746_769)"/>
<mask id="path-84-inside-7_746_769" fill="white">
<path d="M70.616 373.497H159.942V404.477H70.616V373.497Z"/>
</mask>
<path d="M70.616 373.497H159.942V404.477H70.616V373.497Z" fill="#C0BCCF"/>
<path d="M70.616 373.997H159.942V372.997H70.616V373.997ZM159.942 403.977H70.616V404.977H159.942V403.977Z" fill="#ACA9BA" mask="url(#path-84-inside-7_746_769)"/>
<ellipse cx="114.659" cy="266.307" rx="4.34222" ry="4.33718" fill="#6C63FF"/>
<ellipse cx="114.659" cy="294.808" rx="4.34222" ry="4.33718" fill="#6C63FF"/>
<ellipse cx="114.659" cy="324.549" rx="4.34222" ry="4.33718" fill="#6C63FF"/>
<ellipse cx="114.659" cy="355.529" rx="4.34222" ry="4.33718" fill="#6C63FF"/>
<ellipse cx="114.659" cy="388.987" rx="4.34222" ry="4.33718" fill="#6C63FF"/>
<ellipse cx="397.523" cy="224.174" rx="11.786" ry="10.5331" fill="#6C63FF"/>
<path d="M405.692 203.766C401.226 203.27 398.042 207.69 397.008 209.962C396.801 210.788 396.76 212.44 398.248 212.44C404.452 212.44 411.275 204.386 405.692 203.766Z" fill="#7B73FF"/>
<path d="M397.523 211.782C398.971 209.924 402.486 206.082 404.967 205.586" stroke="#7067FF"/>
<path d="M394.421 215.5C395.869 216.12 399.26 216.989 401.245 215.5" stroke="#6059E3"/>
<path d="M398.143 216.12C398.557 214.054 395.786 207.817 393.801 206.826" stroke="#564FCC"/>
<path d="M258.031 156.648C244.186 146.559 249.79 130.959 254.323 124.419C260.092 125.12 272.248 126.942 274.72 128.623C277.192 130.305 279.459 149.408 280.283 158.75C278.635 162.253 271.877 166.737 258.031 156.648Z" fill="#FFCED8"/>
<path d="M234.379 390.911L235.124 381.519L248.026 380.932L249.267 392.085L234.379 390.911Z" fill="#D6E6F9"/>
<path d="M308.817 390.911L308.135 381.519L296.308 380.932L295.17 392.085L308.817 390.911Z" fill="#D6E6F9"/>
<path d="M220.112 299.146C228.264 281.057 234.074 284.298 240.946 280.558C263.976 282.843 310.197 280.664 316.883 283.656C325.241 287.396 326.123 302.807 325.566 312.157C325.009 321.507 323.965 329.179 320.064 345.386C316.944 358.352 311.335 376.138 308.921 383.411H295.549C296.886 379.421 297.963 363.048 298.335 355.36C298.52 349.75 297.889 336.659 293.877 329.179C283.291 311.102 251.532 327.309 247.075 332.919C243.509 337.407 246.703 368.035 248.746 382.787H234.817C232.96 376.554 228.688 362.092 226.459 354.113C223.673 344.139 216.348 307.498 220.112 299.146Z" fill="#554B64"/>
<path d="M255.746 165.019C257.731 162.541 257.4 157.79 256.987 155.725C256.894 155.207 256.987 155.105 258.847 156.964C265.051 163.16 278.698 161.921 280.559 163.16C282.419 164.399 283.04 169.356 275.596 169.356C268.152 169.356 253.265 168.117 255.746 165.019Z" fill="#FFCED8" stroke="#EFC0CA"/>
<path d="M189.097 148.584C187.236 141.768 182.893 140.529 180.465 140.529C175.503 142.388 174.262 144.866 173.642 147.964C173.022 151.062 178.551 165.313 179.172 164.073C179.792 162.834 181.706 157.878 188.53 157.258C195.353 156.638 191.989 159.178 189.097 148.584Z" fill="#FFCED8"/>
<path d="M245.782 173.468C253.947 173.468 255.61 166.46 255.421 162.956C255.988 161.101 283.204 164.811 283.204 166.048C283.204 167.285 280.936 174.087 282.637 175.323C284.338 176.56 300.782 187.69 305.885 190.782C310.988 193.873 311.555 197.584 313.823 200.057C316.091 202.53 320.06 234.684 320.06 240.249C320.06 245.814 323.705 265.464 323.705 270.411C323.705 275.358 323.705 288.343 306.695 292.053C300.211 293.467 234.442 293.427 227.637 290.335C220.833 287.243 223.668 278.586 224.802 274.258C225.936 269.93 227.637 263.128 227.637 258.181C227.637 253.234 224.235 241.486 223.101 238.394C221.967 235.302 220.266 225.409 219.699 216.752C219.132 208.095 210.06 205.004 204.957 204.385C199.854 203.767 191.349 199.439 189.081 193.873C186.813 188.308 184.545 182.743 181.343 176.56C178.142 170.376 178.308 164.193 178.875 161.101C179.442 158.01 184.545 156.155 188.514 155.536C192.483 154.918 194.184 156.155 197.019 164.193C199.854 172.231 207.792 178.415 214.029 176.56C220.266 174.705 235.576 173.468 245.782 173.468Z" fill="#FB9C55"/>
<path d="M266.956 108.456C261.497 107.465 253.516 111.76 250.207 114.032C247.726 115.576 250.207 122.087 257.031 126.424C263.854 130.761 260.753 143.773 261.994 155.545C265.095 166.078 277.501 166.078 286.186 165.459C294.87 164.839 293.009 158.024 297.972 145.012C306.656 134.479 303.555 122.707 302.314 118.989C301.073 115.271 295.491 108.456 283.705 109.695C271.919 110.934 273.78 109.695 266.956 108.456Z" fill="#AE767A"/>
<path d="M281.468 175.846C278.317 175.846 263.65 174.607 256.711 173.987C257.905 174.973 263.336 175.465 268.527 175.846C273.118 176.183 277.564 176.465 278.092 176.465C279.218 176.465 285.407 175.846 281.468 175.846Z" fill="#E18C4C"/>
<path d="M243.551 389.607C240.078 389.607 236.447 388.161 234.379 387.128C233.759 387.128 231.765 392.085 229.284 392.705C226.803 393.324 224.942 391.465 219.979 393.324C215.017 395.183 217.498 405.097 218.739 407.575C219.979 410.053 225.562 411.912 237.968 418.728C250.375 425.543 252.236 418.108 254.097 415.63C255.585 413.647 253.063 406.955 251.615 403.857C250.788 402.412 249.506 398.405 250.995 393.944C252.484 389.483 249.474 386.715 248.647 385.889C247.82 387.128 247.025 389.607 243.551 389.607Z" fill="#BC8387"/>
<path d="M301.208 389.607C304.681 389.607 306.75 388.161 308.817 387.128C309.438 387.128 312.994 392.085 315.475 392.705C317.956 393.324 319.817 391.465 324.78 393.324C329.742 395.183 327.261 405.097 326.02 407.575C324.78 410.053 319.197 411.912 306.791 418.728C294.384 425.543 292.523 418.108 290.662 415.63C289.174 413.647 291.696 406.955 293.144 403.857C293.971 402.412 295.253 398.405 293.764 393.944C292.275 389.483 294.964 386.715 295.791 385.889C296.618 387.128 297.734 389.607 301.208 389.607Z" fill="#BC8387"/>
<ellipse cx="207.085" cy="424.304" rx="6.20317" ry="6.19597" fill="#5A5773"/>
<ellipse cx="269.117" cy="424.304" rx="6.20317" ry="6.19597" fill="#5A5773"/>
<ellipse cx="332.389" cy="424.304" rx="6.20317" ry="6.19597" fill="#5A5773"/>
<path d="M202.594 416.902C211.129 410.15 245.356 400.023 261.673 395.803H269.117V418.108H264.097V409.668C230.835 409.668 213.263 418.108 211.38 418.108H206.359C202.594 418.108 201.339 417.505 202.594 416.902Z" fill="#C0BCCF"/>
<path d="M334.409 416.902C326.032 410.15 291.908 400.023 275.893 395.803H269.117V418.108H274.045V409.668C306.691 409.668 323.938 418.108 325.785 418.108H330.713C334.409 418.108 335.641 417.505 334.409 416.902Z" fill="#C0BCCF"/>
<path d="M230.937 203.728C223.823 218.598 224.47 281.797 224.47 284.275C235.334 297.163 259.175 297.08 269.737 295.428V176.465C248.397 176.465 238.05 188.857 230.937 203.728Z" fill="#CB919B"/>
<path d="M308.539 203.728C315.652 218.598 315.005 281.797 315.005 284.275C304.141 297.163 280.3 297.08 269.738 295.428V176.465C291.078 176.465 301.425 188.857 308.539 203.728Z" fill="#CB919B"/>
<path d="M269.117 177.829C242.323 176.759 233.139 198.771 229.417 208.065C233.139 188.238 248.026 177.705 265.395 175.846C276.561 176.465 277.863 174.199 292.689 182.661C318.743 197.532 314.4 246.604 315.021 255.898C315.641 265.192 316.261 275.725 316.261 279.443C316.261 283.161 319.983 289.976 297.031 294.313C256.711 299.27 251.748 296.172 238.101 292.455C227.184 289.48 224.454 286.259 224.454 283.78C224.661 281.095 225.199 276.593 225.695 280.063C226.315 284.4 226.315 289.357 250.508 293.074C274.7 296.792 287.727 292.455 292.069 291.835C296.411 291.215 311.919 285.019 313.78 278.823C316.332 270.326 309.394 212.435 308.817 210.668C306.957 204.967 300.133 179.068 269.117 177.829Z" fill="#D09CA5"/>
<rect x="259.192" y="279.318" width="18.6095" height="30.9798" rx="6" fill="#D9D9D9"/>
<rect x="217.01" y="309.059" width="105.454" height="21.0663" rx="6" fill="#CB919B"/>
<path d="M214.529 257.633C214.529 253.171 208.326 252.056 205.225 252.056C197.781 252.056 195.92 255.774 195.92 257.633V263.829H201.503V320.212H217.631V317.733H209.567V263.829H214.529V257.633Z" fill="#CB919B"/>
<path d="M325.566 257.633C325.566 253.171 331.769 252.056 334.871 252.056C342.315 252.056 344.176 255.774 344.176 257.633V263.829H338.593V320.212H322.464V317.733H330.529V263.829H325.566V257.633Z" fill="#CB919B"/>
<rect x="260.433" y="330.125" width="16.1282" height="65.6772" fill="#D9D9D9"/>
<path d="M187.835 365.377H178.53C177.289 365.377 176.049 361.659 172.947 360.42C169.845 359.181 169.225 355.463 170.466 354.224C171.706 352.985 174.935 351.212 176.669 352.985C178.551 354.909 177.91 359.801 179.15 360.42C180.391 361.04 179.771 357.942 179.771 356.083C179.771 354.224 181.631 351.126 182.872 350.507C184.113 349.887 185.353 349.267 187.214 351.746C189.075 354.224 185.353 356.083 184.733 357.322C184.113 358.561 185.974 359.181 187.214 357.942C188.455 356.703 190.936 354.224 192.177 354.224C193.417 354.224 195.899 356.083 194.658 358.561C193.666 360.544 189.696 363.931 187.835 365.377Z" fill="#6C63FF"/>
<ellipse cx="182.893" cy="366.682" rx="16.7486" ry="1.85879" fill="#E7E6F6"/>
<path d="M37.7179 366.616H28.4132C27.1726 366.616 25.9319 362.899 22.8303 361.659C19.7288 360.42 19.1084 356.703 20.3491 355.463C21.5897 354.224 24.8182 352.452 26.5522 354.224C28.4344 356.148 27.7929 361.04 29.0335 361.659C30.2741 362.279 29.6538 359.181 29.6538 357.322C29.6538 355.464 31.5148 352.365 32.7554 351.746C33.996 351.126 35.2367 350.507 37.0976 352.985C38.9586 355.463 35.2367 357.322 34.6164 358.561C33.996 359.801 35.857 360.42 37.0976 359.181C38.3383 357.942 40.8195 355.463 42.0602 355.463C43.3008 355.463 45.7821 357.322 44.5414 359.801C43.5489 361.783 39.5789 365.17 37.7179 366.616Z" fill="#6C63FF"/>
<ellipse cx="32.7766" cy="367.921" rx="16.7486" ry="1.85879" fill="#E7E6F6"/>
<path d="M68.5428 278.699C67.3021 287.58 68.1706 309.555 81.5694 326.408C98.318 347.474 103.901 359.866 104.521 371.019M122.51 314.635C118.788 316.701 111.717 323.682 113.205 335.082C115.066 349.333 110.724 361.725 106.382 371.019" stroke="#676775"/>
<path d="M54.6341 265.687C56.9689 271.264 64.4118 276.014 68.754 279.938C69.9946 278.079 71.8809 267.468 70.7621 261.97C69.3753 255.154 65.6529 253.295 60.6903 253.295C55.7278 253.295 52.2062 259.889 54.6341 265.687Z" fill="#6C63FF"/>
<path d="M49.9459 304.251C55.8019 305.775 64.0952 302.739 69.8516 301.667C69.123 299.555 61.8151 291.626 56.7582 289.183C50.4898 286.155 46.7538 287.986 43.7466 291.929C40.7395 295.873 43.8565 302.666 49.9459 304.251Z" fill="#6C63FF"/>
<path d="M77.1346 290.576C73.4876 295.399 73.128 304.214 71.9212 309.938C74.1537 310.072 84.2814 306.355 88.4733 302.62C93.6695 297.991 93.4022 293.842 90.9027 289.56C88.4032 285.278 80.927 285.56 77.1346 290.576Z" fill="#6C63FF"/>
<path d="M63.577 320.934C69.6172 320.564 77.1702 325.138 82.6123 327.297C81.4903 329.229 72.7908 335.605 67.3577 337.029C60.623 338.795 57.3098 336.28 55.1189 331.832C52.928 327.385 57.2961 321.318 63.577 320.934Z" fill="#6C63FF"/>
<path d="M106.675 326.936C103.946 332.331 96.1814 336.536 91.5686 340.139C90.4646 338.196 89.3451 327.477 90.8558 322.073C92.7285 315.374 96.5748 313.787 101.525 314.142C106.474 314.498 109.513 321.326 106.675 326.936Z" fill="#6C63FF"/>
<path d="M80.954 353.649C86.8082 352.118 95.1049 355.144 100.863 356.21C100.136 358.323 92.8375 366.26 87.7834 368.709C81.5184 371.744 77.7803 369.917 74.7687 365.977C71.7571 362.037 74.8664 355.24 80.954 353.649Z" fill="#6C63FF"/>
<path d="M130.163 313.514C127.93 315.21 123.839 315.39 121.184 315.957C121.119 314.923 122.829 310.228 124.556 308.282C126.697 305.869 128.623 305.986 130.614 307.137C132.605 308.288 132.485 311.75 130.163 313.514Z" fill="#B6B1FF"/>
<path d="M123.593 326.32C120.943 325.401 118.529 322.097 116.587 320.203C117.412 319.576 122.274 318.4 124.853 318.76C128.05 319.205 129.018 320.872 129.16 323.166C129.303 325.459 126.349 327.276 123.593 326.32Z" fill="#B6B1FF"/>
<path d="M113.52 317.566C114.685 320.115 113.959 324.14 113.929 326.852C112.905 326.688 108.696 323.988 107.176 321.876C105.291 319.259 105.83 317.408 107.392 315.722C108.955 314.035 112.31 314.915 113.52 317.566Z" fill="#B6B1FF"/>
<path d="M122.317 343.93C119.532 344.265 115.912 342.353 113.335 341.501C113.802 340.577 117.655 337.39 120.13 336.584C123.199 335.584 124.801 336.658 125.936 338.657C127.07 340.656 125.214 343.582 122.317 343.93Z" fill="#B6B1FF"/>
<path d="M108.007 346.293C110.202 348.038 111.382 351.954 112.586 354.385C111.599 354.703 106.622 354.202 104.308 353.008C101.44 351.529 101.081 349.636 101.708 347.425C102.335 345.214 105.724 344.478 108.007 346.293Z" fill="#B6B1FF"/>
<path d="M116.985 366.914C114.39 365.851 112.16 362.421 110.324 360.423C111.183 359.843 116.101 358.934 118.657 359.433C121.825 360.053 122.7 361.77 122.717 364.068C122.733 366.366 119.685 368.019 116.985 366.914Z" fill="#B6B1FF"/>
<path d="M132.027 371.638H80.541L89.2255 424.304H123.343L132.027 371.638Z" fill="#474059"/>
</svg>
