<svg width="20" height="26" viewBox="0 0 20 26" fill="none" xmlns="http://www.w3.org/2000/svg">
<path d="M17.2321 8.99348H17.0847V7.12255C17.0847 3.21673 13.9065 0.0387573 10.0005 0.0387573C6.0935 0.0387573 2.9153 3.21669 2.9153 7.12255V8.99348H2.76787C1.242 8.99348 0 10.2354 0 11.7611V22.9854C0 24.5111 1.24197 25.753 2.76787 25.753H17.2321C18.758 25.753 20 24.5111 20 22.9854V11.7611C20 10.2354 18.758 8.99348 17.2321 8.99348ZM4.77868 7.12255C4.77868 4.24389 7.12162 1.90208 10.0005 1.90208C12.8793 1.90208 15.2214 4.24389 15.2214 7.12255V8.99348H4.77868V7.12255ZM18.1365 22.9854C18.1365 23.4839 17.7308 23.8897 17.2321 23.8897H2.76787C2.26924 23.8897 1.86345 23.4839 1.86345 22.9854V11.7611C1.86345 11.2626 2.26924 10.8567 2.76787 10.8567H17.2321C17.7308 10.8567 18.1365 11.2625 18.1365 11.7611V22.9854Z" fill="black" fill-opacity="0.45"/>
<path d="M10.4658 15.1299V13.6855C10.4658 13.428 10.2574 13.2195 9.99992 13.2195C9.74242 13.2195 9.53407 13.4279 9.53407 13.6855V15.1299C8.47195 15.3464 7.67065 16.2869 7.67065 17.412C7.67065 18.537 8.47195 19.4776 9.53407 19.694V21.1385C9.53407 21.396 9.74242 21.6044 9.99992 21.6044C10.2574 21.6044 10.4658 21.396 10.4658 21.1385V19.694C11.5279 19.4776 12.3292 18.537 12.3292 17.412C12.3292 16.2869 11.5279 15.3464 10.4658 15.1299ZM9.99992 18.8094C9.22926 18.8094 8.60235 18.1826 8.60235 17.412C8.60235 16.6414 9.22926 16.0145 9.99992 16.0145C10.7706 16.0145 11.3975 16.6414 11.3975 17.412C11.3975 18.1826 10.7706 18.8094 9.99992 18.8094Z" fill="black" fill-opacity="0.45"/>
</svg>
