<svg width="33" height="29" viewBox="0 0 33 29" fill="none" xmlns="http://www.w3.org/2000/svg">
<path d="M22.6841 10.886H21.457V9.41099C21.457 7.09661 20.5096 4.91814 18.7908 3.27928C17.084 1.65242 14.8656 0.753052 12.4753 0.753052C10.0849 0.753052 7.82652 1.64843 6.11972 3.27928C4.40092 4.92213 3.45358 7.09661 3.45358 9.41099V10.886H2.27041C1.01529 10.886 0 11.9012 0 13.1564V26.6909C0 27.946 1.01529 28.9613 2.27041 28.9613H22.6841C23.9392 28.9613 24.9545 27.946 24.9545 26.6909V13.1564C24.9545 11.9012 23.9352 10.886 22.6841 10.886ZM5.60008 9.41099C5.60008 7.69219 6.31158 6.06533 7.60268 4.8342C8.90577 3.59107 10.6366 2.90355 12.4753 2.90355C14.314 2.90355 16.0008 3.59107 17.3079 4.8342C18.599 6.06533 19.3105 7.69219 19.3105 9.41099V10.886H5.60008V9.41099ZM22.808 26.6909C22.808 26.7588 22.7521 26.8148 22.6841 26.8148H2.27041C2.20246 26.8148 2.1465 26.7588 2.1465 26.6909V13.1564C2.1465 13.0884 2.20246 13.0325 2.27041 13.0325H22.6841C22.7521 13.0325 22.808 13.0884 22.808 13.1564V26.6909Z" fill="#109AF9"/>
<path d="M12.4834 16.4261C10.4888 16.4261 8.98584 17.961 8.98584 19.9436C8.98584 21.9262 10.4888 23.4612 12.4834 23.4612C14.478 23.4612 16.0209 21.9262 16.0209 19.9436C16.0209 17.961 14.478 16.4261 12.4834 16.4261ZM12.4834 21.3986C11.684 21.3986 11.0724 20.7471 11.0724 19.9436C11.0724 19.1402 11.684 18.5286 12.4834 18.5286C13.2828 18.5286 13.8944 19.1402 13.8944 19.9436C13.8944 20.7471 13.2828 21.3986 12.4834 21.3986Z" fill="#109AF9"/>
<path d="M28.9424 13.3563H28.9304V12.8806C28.9304 11.4016 28.5307 9.95464 27.7712 8.69951C27.0317 7.47237 25.9845 6.48107 24.7453 5.82553C24.2217 5.54972 23.5701 5.74958 23.2943 6.27321C23.0185 6.79685 23.2184 7.44839 23.742 7.7242C24.6374 8.19587 25.3929 8.91536 25.9325 9.80674C26.4881 10.7261 26.7839 11.7894 26.7839 12.8806V13.3563H26.4162C25.8246 13.3563 25.3409 13.8359 25.3409 14.4315C25.3409 15.0271 25.8206 15.5067 26.4162 15.5067H28.9464C29.446 15.5067 29.8697 15.8305 29.8697 16.2103V25.168C29.8697 25.5477 29.446 25.8715 28.9464 25.8715H26.3522C25.7606 25.8715 25.2769 26.3512 25.2769 26.9467C25.2769 27.5423 25.7566 28.022 26.3522 28.022H28.9464C30.6412 28.022 32.0162 26.7429 32.0162 25.172V16.2063C32.0122 14.6354 30.6372 13.3563 28.9424 13.3563Z" fill="#109AF9"/>
</svg>
