<svg width="320" height="104" viewBox="0 0 320 104" fill="none" xmlns="http://www.w3.org/2000/svg">
<path d="M157.111 65.3611C154.944 67.5278 151.694 67.5278 149.528 65.7222L134 50.9167L130.389 54.8889L145.917 69.6945C150.25 73.6667 156.75 73.6667 161.083 69.3334L192.861 35.75L188.889 32.1389L157.111 65.3611Z" fill="#109AF9"/>
<path d="M160 0C131.472 0 108 23.1111 108 52C108 80.8889 131.111 104 160 104C188.889 104 212 80.8889 212 52C212 23.1111 188.528 0 160 0ZM160 98.5833C134.361 98.5833 113.417 77.6389 113.417 52C113.417 26.3611 134.361 5.41667 160 5.41667C185.639 5.41667 206.583 26.3611 206.583 52C206.583 77.6389 185.639 98.5833 160 98.5833Z" fill="#109AF9"/>
</svg>
