<svg width="320" height="63" viewBox="0 0 320 63" fill="none" xmlns="http://www.w3.org/2000/svg">
<rect x="18" y="0.339966" width="36" height="36" rx="18" fill="#109AF9"/>
<path d="M26.5 12.34C26.775 12.34 27 12.115 27 11.84V9.33997H29.5C29.775 9.33997 30 9.11497 30 8.83997C30 8.56497 29.775 8.33997 29.5 8.33997H26.5C26.225 8.33997 26 8.56497 26 8.83997V11.84C26 12.115 26.225 12.34 26.5 12.34V12.34ZM45.5 8.33997H42.5C42.225 8.33997 42 8.56497 42 8.83997C42 9.11497 42.225 9.33997 42.5 9.33997H45V11.84C45 12.115 45.225 12.34 45.5 12.34C45.775 12.34 46 12.115 46 11.84V8.83997C46 8.56497 45.775 8.33997 45.5 8.33997ZM29.5 27.34H27V24.84C27 24.565 26.775 24.34 26.5 24.34C26.225 24.34 26 24.565 26 24.84V27.84C26 28.115 26.225 28.34 26.5 28.34H29.5C29.775 28.34 30 28.115 30 27.84C30 27.565 29.775 27.34 29.5 27.34ZM45.5 24.34C45.225 24.34 45 24.565 45 24.84V27.34H42.5C42.225 27.34 42 27.565 42 27.84C42 28.115 42.225 28.34 42.5 28.34H45.5C45.775 28.34 46 28.115 46 27.84V24.84C46 24.565 45.775 24.34 45.5 24.34V24.34Z" fill="white"/>
<path d="M43.3501 26.34C43.6251 26.34 43.8501 26.115 43.8501 25.84C43.8501 25.565 43.6251 25.34 43.3501 25.34C41.7001 25.34 39.3751 25.215 38.4751 24.24C38.2001 23.94 38.0501 23.54 38.0501 23.065C40.5251 21.39 41.2501 17.615 41.2501 15.49C41.2501 12.565 39.0001 10.34 36.0001 10.34C33.0001 10.34 30.7501 12.565 30.7501 15.49C30.7501 17.615 31.4751 21.39 33.9501 23.065C33.9501 23.54 33.8001 23.94 33.5001 24.24C32.6001 25.215 30.3001 25.34 28.6501 25.34C28.3751 25.34 28.1501 25.565 28.1501 25.84C28.1501 26.115 28.3751 26.34 28.6501 26.34C30.6501 26.34 33.0751 26.19 34.2501 24.915C34.6001 24.54 34.8251 24.065 34.9251 23.54C35.2501 23.665 35.5751 23.765 35.9251 23.815H36.0751C36.4251 23.765 36.7751 23.665 37.0751 23.54C37.1501 24.065 37.3751 24.515 37.7251 24.89C38.9001 26.19 41.3501 26.34 43.3501 26.34V26.34ZM36.0001 22.84C32.6501 22.24 31.7501 17.79 31.7501 15.49C31.7501 13.115 33.5751 11.34 36.0001 11.34C38.4251 11.34 40.2501 13.115 40.2501 15.49C40.2501 17.79 39.3501 22.24 36.0001 22.84Z" fill="white"/>
<path d="M37.7001 19.665C37.4751 19.515 37.1501 19.565 37.0001 19.815C36.7751 20.14 36.4001 20.34 36.0001 20.34C35.6001 20.34 35.2251 20.14 34.9751 19.79C34.8251 19.565 34.5001 19.515 34.2751 19.665C34.0501 19.815 34.0001 20.14 34.1751 20.365C34.6001 20.965 35.3001 21.315 36.0001 21.315C36.7251 21.315 37.4501 20.94 37.8501 20.34C38.0001 20.14 37.9251 19.815 37.7001 19.665V19.665Z" fill="white"/>
<path d="M6.40625 48.0509L6.04688 52.3478H7.625L8.03125 47.0822H4.48438V46.0197H9.21875L8.73438 52.3478H9.71875C9.64583 54.5457 9.57812 56.353 9.51562 57.7697C9.48438 59.353 8.79688 60.1447 7.45312 60.1447C6.89062 60.1447 6.22917 60.129 5.46875 60.0978C5.41667 59.7124 5.34896 59.3009 5.26562 58.8634C6.01562 58.9572 6.68229 59.004 7.26562 59.004C7.99479 59.004 8.38021 58.5613 8.42188 57.6759C8.48438 56.5301 8.53646 55.1082 8.57812 53.4103H4.82812L5.32812 48.0509H6.40625ZM9.84375 58.5978H15.4844C16.2344 56.7436 16.901 54.8061 17.4844 52.7853L18.6719 53.1603C18.0573 55.0249 17.4062 56.8374 16.7188 58.5978H19.4688V59.6759H9.84375V58.5978ZM15.5156 45.1447L15.2188 45.6447C16.4792 47.8842 18.0417 49.5144 19.9062 50.5353C19.5729 50.9519 19.2969 51.3165 19.0781 51.629C17.2448 50.2749 15.75 48.6447 14.5938 46.7384C13.5312 48.6238 12.0469 50.3165 10.1406 51.8165C9.95312 51.5457 9.69271 51.2176 9.35938 50.8322C11.4323 49.3947 13.0208 47.4988 14.125 45.1447H15.5156ZM11.4375 50.8947H17.875V51.9728H11.4375V50.8947ZM13.3281 52.8947L14.4375 52.5978C14.875 54.1603 15.2344 55.5249 15.5156 56.6915L14.375 57.0197C14.0729 55.5822 13.724 54.2072 13.3281 52.8947ZM10.6406 53.5978L11.7344 53.254C12.2448 54.7332 12.6719 56.0509 13.0156 57.2072L11.8594 57.5978C11.5156 56.2644 11.1094 54.9311 10.6406 53.5978ZM4.09375 55.754C5.30208 55.5144 6.63021 55.2228 8.07812 54.879C8.06771 55.2957 8.07292 55.6655 8.09375 55.9884C6.90625 56.2384 5.65104 56.5457 4.32812 56.9103L4.09375 55.754ZM24.2031 58.4259H26.375V49.7853H27.5781V58.4259H30.0625V47.004H25.0625V45.8478H35.5V47.004H31.3125V51.7072H34.9375V52.8634H31.3125V58.4259H35.75V59.5822H24.2031V58.4259ZM25.125 54.504C25.1667 54.8686 25.2656 55.3217 25.4219 55.8634C24.1615 57.1134 23.2083 58.1082 22.5625 58.8478L21.6719 57.8322C21.9844 57.3947 22.1406 56.8738 22.1406 56.2697V51.379H20.25V50.254H23.3438V56.3478C23.8229 55.8894 24.4167 55.2749 25.125 54.504ZM21.7656 45.2853C22.9844 46.5249 23.8385 47.4207 24.3281 47.9728L23.2344 48.8947C22.5781 48.0405 21.7708 47.1134 20.8125 46.1134L21.7656 45.2853ZM36.375 54.1759H38.5312V46.7072H42.1016C42.3464 46.0926 42.5469 45.5197 42.7031 44.9884L44.0156 45.3165C43.8177 45.7644 43.6068 46.228 43.3828 46.7072H49.0469V53.3478C49.7292 52.8374 50.3854 52.3009 51.0156 51.7384L51.7969 52.5978C50.9167 53.353 50 54.0665 49.0469 54.7384V57.8634C49.0469 59.4363 48.3594 60.228 46.9844 60.2384C46.1302 60.2592 45.2656 60.2488 44.3906 60.2072C44.3281 59.8426 44.2448 59.4103 44.1406 58.9103C44.901 58.9832 45.7188 59.0197 46.5938 59.0197C47.4062 59.0197 47.8125 58.5926 47.8125 57.7384V55.5665C44.6354 57.6082 41.0469 59.2228 37.0469 60.4103C36.849 60.004 36.6146 59.6082 36.3438 59.2228C40.026 58.2749 43.3229 56.9415 46.2344 55.2228H36.375V54.1759ZM39.7656 54.1759H47.8125V52.6915H39.7656V54.1759ZM47.8125 47.754H39.7656V49.2228H47.8125V47.754ZM39.7656 51.6915H47.8125V50.2228H39.7656V51.6915ZM57.6719 51.7072H65.4844C65.474 51.853 65.3958 53.7592 65.25 57.4259C65.2083 59.2176 64.3906 60.1238 62.7969 60.1447C61.9427 60.1447 61.1979 60.129 60.5625 60.0978C60.5104 59.6186 60.4323 59.1863 60.3281 58.8009C61.0469 58.8947 61.7708 58.9519 62.5 58.9728C63.5104 59.0457 64.0208 58.4832 64.0312 57.2853C64.1146 55.8894 64.1771 54.3947 64.2188 52.8009H60.7031C60.6719 54.4572 60.4219 55.8269 59.9531 56.9103C59.3906 58.1499 58.4219 59.3113 57.0469 60.3947C56.776 60.0613 56.474 59.7228 56.1406 59.379C57.4635 58.3478 58.3438 57.3582 58.7812 56.4103C59.2083 55.5717 59.4453 54.3686 59.4922 52.8009H57.6719V51.7072ZM52.1875 52.4572C53.6771 50.4884 54.8854 48.0457 55.8125 45.129L57.0312 45.5509C56.526 46.9363 55.974 48.2332 55.375 49.4415V60.3634H54.1875V51.6134C53.7083 52.4051 53.2083 53.1499 52.6875 53.8478C52.5312 53.3999 52.3646 52.9363 52.1875 52.4572ZM62.0156 45.5509L63.0469 45.1134C64.0781 47.7592 65.6667 49.6915 67.8125 50.9103C67.4167 51.3686 67.1198 51.7488 66.9219 52.0509C64.599 50.4572 62.9635 48.2905 62.0156 45.5509ZM55.9688 51.4884C57.5938 50.0613 58.9062 48.1499 59.9062 45.754L61.0156 46.1759C60.0469 48.603 58.6771 50.6603 56.9062 52.3478C56.5312 51.9624 56.2188 51.6759 55.9688 51.4884Z" fill="#109AF9"/>
<rect x="142" y="0.339966" width="36" height="36" rx="18" fill="#109AF9"/>
<path d="M168.75 27.09H151.25V25.84H168.75V27.09ZM167.313 13.6837L165.672 15.3243L164.781 16.215L157.5 23.4962L153.75 24.59L154.844 20.84L164.656 11.0275C164.734 10.9493 164.844 10.9025 164.937 10.9025C165.016 10.9025 165.094 10.9337 165.141 10.9806L167.344 13.1837C167.484 13.3243 167.453 13.5275 167.313 13.6837ZM163.906 15.3243L163.016 14.4337L155.953 21.4962L155.594 22.7462L156.844 22.3868L163.906 15.3243ZM165.812 13.4181L164.922 12.5275L163.906 13.5431L164.797 14.4337L165.812 13.4181Z" fill="white"/>
<path d="M133.578 53.0509V51.9728H142.094V53.0509C141.271 54.8582 140.255 56.2749 139.047 57.3009C140.375 58.1759 141.974 58.7853 143.844 59.129C143.479 59.5978 143.161 60.0197 142.891 60.3947C141.031 59.8582 139.411 59.0795 138.031 58.0587C136.615 59.017 134.823 59.8374 132.656 60.5197C132.385 60.1342 132.115 59.7592 131.844 59.3947C133.911 58.8374 135.641 58.1264 137.031 57.2618C135.823 56.0952 134.945 54.6915 134.398 53.0509H133.578ZM140.141 46.9572H136.234V47.4103C136.234 49.3269 135.359 50.754 133.609 51.6915C133.328 51.3478 133.026 51.0249 132.703 50.7228C134.245 49.9311 135.016 48.8374 135.016 47.4415V45.8009H141.359V48.9884C141.359 49.4572 141.599 49.6915 142.078 49.6915H143.797C143.745 50.1186 143.703 50.504 143.672 50.8478H141.609C140.63 50.8478 140.141 50.3061 140.141 49.2228V46.9572ZM133.625 55.7697C133.646 56.2592 133.682 56.7228 133.734 57.1603C132.307 58.0874 131.245 58.8322 130.547 59.3947L129.797 58.3634C130.151 58.0197 130.328 57.5509 130.328 56.9572V51.3947H128.344V50.2697H131.516V57.2072C132.193 56.7592 132.896 56.2801 133.625 55.7697ZM130.469 45.5197C131.271 46.3113 132.036 47.1134 132.766 47.9259L131.672 48.8322C130.911 47.853 130.198 47.0197 129.531 46.3322L130.469 45.5197ZM135.578 53.0509C136.104 54.379 136.93 55.5483 138.055 56.5587C139.159 55.7045 140.042 54.5353 140.703 53.0509H135.578ZM144.234 59.0509H146.562V51.8165H151.344V50.8009H144.609V49.9259H151.344V49.0978H152.469V49.9259H159.375V50.8009H152.469V51.8165H157.578V59.0509H159.734V59.9572H144.234V59.0509ZM145.594 45.754H158.391V49.2384H157.328V48.879H146.672V49.2384H145.594V45.754ZM147.656 59.0509H156.484V58.0509H147.656V59.0509ZM147.656 57.2384H156.484V56.254H147.656V57.2384ZM147.656 55.4415H156.484V54.4572H147.656V55.4415ZM156.484 52.6603H147.656V53.6447H156.484V52.6603ZM157.328 46.5978H154.453V48.0353H157.328V46.5978ZM150.562 48.0353H153.422V46.5978H150.562V48.0353ZM146.672 48.0353H149.531V46.5978H146.672V48.0353ZM160.156 54.2853C161.63 53.8686 163.078 53.3634 164.5 52.7697V49.1915H165.609V52.2931C167.859 51.267 170.031 50.0249 172.125 48.5665L172.859 49.504C170.677 50.9676 168.383 52.2488 165.977 53.3478C166.195 53.5561 166.516 53.6603 166.938 53.6603H169.938C170.562 53.6603 170.938 53.4832 171.062 53.129C171.198 52.7853 171.302 52.228 171.375 51.4572C171.719 51.603 172.115 51.754 172.562 51.9103C172.406 52.7124 172.292 53.228 172.219 53.4572C172 54.3113 171.339 54.7384 170.234 54.7384H166.672C165.771 54.7384 165.151 54.4441 164.812 53.8556C163.49 54.4129 162.135 54.9155 160.75 55.3634C160.578 54.9832 160.38 54.6238 160.156 54.2853ZM172.656 60.3634V59.754H162.125V55.6447H163.312V58.629H167.359V55.0353H168.609V58.629H172.656V55.6447H173.844V60.3634H172.656ZM160.828 46.6603H167.523C167.331 46.2853 167.115 45.8947 166.875 45.4884L168.031 44.9415C168.354 45.4728 168.651 46.0457 168.922 46.6603H175.188V49.4415H173.922V47.7853H162.094V49.4415H160.828V46.6603ZM162.656 49.504L163.75 49.9259C163.26 51.0613 162.729 52.103 162.156 53.0509C161.823 52.8842 161.443 52.7176 161.016 52.5509C161.589 51.728 162.135 50.7124 162.656 49.504ZM172.688 50.7072L173.594 50.0353C174.406 50.9207 175.104 51.754 175.688 52.5353L174.656 53.3009C174.104 52.4884 173.448 51.6238 172.688 50.7072ZM166.469 48.7228L167.281 48.0197C167.979 48.5717 168.599 49.1134 169.141 49.6447L168.234 50.4884C167.641 49.8426 167.052 49.254 166.469 48.7228ZM176.188 53.7072C177.458 51.9467 178.378 49.9363 178.945 47.6759H176.641V46.5197H182.484V47.6759H180.148C179.82 48.9832 179.404 50.2019 178.898 51.3322H181.922V59.8009H180.812V58.7228H178.859V60.004H177.75V53.4962C177.474 53.9389 177.182 54.3634 176.875 54.7697C176.719 54.478 176.49 54.1238 176.188 53.7072ZM185.062 47.6759L184.656 52.254H188.336L188.859 47.1134H183.094V45.9884H190.172L189.516 52.254H191.172C191.089 54.3686 191.005 56.2019 190.922 57.754C190.828 59.3061 190.089 60.0822 188.703 60.0822C188.005 60.0822 187.224 60.0665 186.359 60.0353C186.297 59.6499 186.224 59.2176 186.141 58.7384C186.984 58.8322 187.745 58.879 188.422 58.879C189.224 58.879 189.656 58.4363 189.719 57.5509C189.802 56.3947 189.865 55.004 189.906 53.379H183.391L183.875 47.6759H185.062ZM180.812 52.3947H178.859V57.6915H180.812V52.3947ZM182.547 55.4884H189.141V56.6134H182.547V55.4884Z" fill="#109AF9"/>
<rect x="266" y="0.339966" width="36" height="36" rx="18" fill="#109AF9"/>
<path d="M284.189 9.94156C281.211 9.93375 278.59 11.4748 277.092 13.8029C277.025 13.9064 277.1 14.0431 277.223 14.0431H278.596C278.689 14.0431 278.777 14.0021 278.836 13.9298C278.973 13.7638 279.119 13.6037 279.273 13.4513C279.91 12.8166 280.65 12.3166 281.475 11.9689C282.326 11.6095 283.232 11.4259 284.168 11.4259C285.104 11.4259 286.01 11.6076 286.861 11.9689C287.686 12.3166 288.426 12.8166 289.062 13.4513C289.699 14.0861 290.197 14.8263 290.547 15.6486C290.908 16.5002 291.09 17.4044 291.09 18.34C291.09 19.2755 290.906 20.1798 290.547 21.0314C290.199 21.8537 289.699 22.5939 289.062 23.2287C288.426 23.8634 287.686 24.3634 286.861 24.7111C286.01 25.0705 285.104 25.2541 284.168 25.2541C283.232 25.2541 282.326 25.0705 281.475 24.7111C280.65 24.3634 279.91 23.8634 279.273 23.2287C279.119 23.0744 278.975 22.9142 278.836 22.7502C278.777 22.6779 278.687 22.6369 278.596 22.6369H277.223C277.1 22.6369 277.023 22.7736 277.092 22.8771C278.588 25.1994 281.197 26.7384 284.168 26.7384C288.781 26.7384 292.527 23.0255 292.574 18.4259C292.621 13.7521 288.869 9.95328 284.189 9.94156ZM281.715 20.5275V19.0431H275.583C275.497 19.0431 275.426 18.9728 275.426 18.8869V17.7931C275.426 17.7072 275.497 17.6369 275.583 17.6369H281.715V16.1525C281.715 16.0216 281.868 15.9474 281.969 16.0294L284.741 18.2169C284.821 18.2794 284.821 18.4005 284.741 18.463L281.969 20.6505C281.868 20.7306 281.715 20.6584 281.715 20.5275Z" fill="white"/>
<path d="M252.688 53.4415H267.375V54.5509H262.328V57.8634C262.328 58.5509 262.667 58.8947 263.344 58.8947H265C265.708 58.8947 266.104 58.6551 266.188 58.1759C266.271 57.6967 266.328 57.0144 266.359 56.129C266.734 56.2749 267.193 56.4311 267.734 56.5978C267.661 57.4519 267.568 58.1499 267.453 58.6915C267.307 59.5874 266.677 60.0353 265.562 60.0353H263.016C261.714 60.0353 261.062 59.3686 261.062 58.0353V54.5509H258.258C258.232 57.4884 256.51 59.4467 253.094 60.4259C252.885 60.0822 252.625 59.6967 252.312 59.2697C255.396 58.5197 256.964 56.9467 257.016 54.5509H252.688V53.4415ZM252.812 47.004H259.5C259.297 46.5822 259.036 46.0874 258.719 45.5197L259.938 44.9572C260.349 45.7488 260.682 46.4311 260.938 47.004H267.188V49.879H265.906V48.1134H254.094V49.879H252.812V47.004ZM254.625 50.2072H265.625V51.3009H254.625V50.2072ZM274.875 59.2072C276.078 58.3999 277.151 57.4598 278.094 56.3868C277.49 54.8504 277.133 52.3686 277.023 48.9415H271.125V51.3165H275.625C275.562 53.3061 275.479 54.978 275.375 56.3322C275.25 57.7697 274.552 58.4884 273.281 58.4884C272.854 58.4884 272.286 58.4676 271.578 58.4259C271.516 58.0405 271.432 57.6082 271.328 57.129C272.057 57.2332 272.667 57.2853 273.156 57.2853C273.76 57.2853 274.099 56.8686 274.172 56.0353C274.255 55.0769 274.318 53.8894 274.359 52.4728H271.117C271.034 56.0926 270.302 58.7697 268.922 60.504C268.661 60.1499 268.391 59.7905 268.109 59.4259C269.286 57.8634 269.875 55.3947 269.875 52.0197V47.7853H276.977C276.94 46.9624 276.906 46.0717 276.875 45.1134H278.172C278.167 45.8478 278.18 46.7384 278.211 47.7853H283.594V48.9415H278.25C278.354 51.7436 278.612 53.8374 279.023 55.2228C280.034 53.853 280.865 52.3009 281.516 50.5665L282.75 51.0822C281.854 53.2019 280.779 55.0457 279.523 56.6134C280.289 58.1707 281.036 58.9493 281.766 58.9493C282.031 58.9493 282.234 58.7072 282.375 58.2228C282.521 57.4624 282.635 56.6811 282.719 55.879C283.167 56.0561 283.562 56.2019 283.906 56.3165C283.75 57.4311 283.578 58.3426 283.391 59.0509C283.193 59.8113 282.755 60.2228 282.078 60.2853C281.443 60.3269 280.833 60.1134 280.25 59.6447C279.62 59.1603 279.083 58.4936 278.641 57.6447C277.76 58.5926 276.802 59.4259 275.766 60.1447C275.495 59.8322 275.198 59.5197 274.875 59.2072ZM279.359 45.879L280.016 45.0665C280.891 45.5665 281.708 46.0874 282.469 46.629L281.719 47.5665C280.969 46.9728 280.182 46.4103 279.359 45.879ZM286.797 52.254H297.094V57.0665H295.906V56.504H287.984V57.0665H286.797V52.254ZM284.375 58.8947H289.609C289.234 58.5301 288.688 58.0249 287.969 57.379L288.719 56.629C289.354 57.1499 289.995 57.7072 290.641 58.3009L290 58.8947H293.75L293.219 58.3634C293.885 57.7592 294.479 57.1655 295 56.5822L295.953 57.3634C295.464 57.853 294.917 58.3634 294.312 58.8947H299.656V59.9572H284.375V58.8947ZM293.203 45.2228C293.443 45.8686 293.708 46.4624 294 47.004C295.146 46.379 296.146 45.7749 297 45.1915L297.766 46.1759C296.786 46.7592 295.729 47.353 294.594 47.9572C294.875 48.3738 295.182 48.754 295.516 49.0978C296.609 48.4936 297.625 47.879 298.562 47.254L299.344 48.254C298.479 48.7853 297.505 49.3426 296.422 49.9259C297.422 50.7072 298.589 51.228 299.922 51.4884C299.62 51.9051 299.333 52.3269 299.062 52.754C295.75 51.6082 293.432 49.2436 292.109 45.6603L293.203 45.2228ZM295.906 53.2853H287.984V55.4728H295.906V53.2853ZM285.062 47.1134V46.0509H291.25V47.129C289.844 49.5249 287.667 51.5405 284.719 53.1759C284.521 52.8217 284.302 52.4572 284.062 52.0822C285.156 51.5197 286.042 50.978 286.719 50.4572C286.062 49.7801 285.391 49.1134 284.703 48.4572L285.438 47.7228C286.219 48.4311 286.938 49.103 287.594 49.7384C288.458 48.978 289.198 48.103 289.812 47.1134H285.062ZM289.25 49.8634H294.547V50.8947H289.25V49.8634ZM313.625 52.9103L314.531 53.9415C313.646 54.5249 312.547 55.2124 311.234 56.004C312.453 56.9519 313.974 57.6342 315.797 58.0509C315.474 58.4988 315.188 58.9259 314.938 59.3322C312.104 58.4676 310.021 56.9988 308.688 54.9259V58.3165C308.688 59.5769 308.042 60.2072 306.75 60.2072C306.135 60.2072 305.406 60.1967 304.562 60.1759C304.5 59.7905 304.427 59.3426 304.344 58.8322C305.094 58.9155 305.766 58.9624 306.359 58.9728C307.099 58.9728 307.469 58.6394 307.469 57.9728V52.379H300.438V51.3322H312.094V49.6603H302.406V48.6603H312.094V47.004H302.109V45.9572H313.266V51.3322H315.688V52.379H308.688V52.7384C309.115 53.6759 309.667 54.4988 310.344 55.2072C311.552 54.4259 312.646 53.6603 313.625 52.9103ZM300.219 57.7384C302.26 57.103 304.474 56.3478 306.859 55.4728C306.943 55.9311 307.021 56.3269 307.094 56.6603C305.021 57.379 302.891 58.1342 300.703 58.9259L300.219 57.7384ZM302.391 52.8009C303.391 53.4051 304.406 54.0613 305.438 54.7697L304.672 55.8009C303.724 55.0822 302.724 54.3842 301.672 53.7072L302.391 52.8009Z" fill="#109AF9"/>
</svg>
