<svg width="198" height="96" viewBox="0 0 198 96" fill="none" xmlns="http://www.w3.org/2000/svg">
<path d="M197.681 48C197.681 60.7304 192.221 72.9394 182.502 81.9411C172.783 90.9429 159.601 96 145.856 96C132.111 96 118.929 90.9429 109.21 81.9411C99.4911 72.9394 94.031 60.7304 94.031 48L104.396 48C104.396 58.1843 108.764 67.9515 116.539 75.1529C124.315 82.3543 134.86 86.4 145.856 86.4C156.852 86.4 167.398 82.3543 175.173 75.1529C182.948 67.9515 187.316 58.1843 187.316 48H197.681Z" fill="#F05C27"/>
<path d="M49.6707 47.5805C50.6941 47.5805 51.5265 48.3382 51.55 49.2812L51.5505 49.3223V72.6363C51.5505 73.5982 50.7089 74.3781 49.6707 74.3781C48.6474 74.3781 47.815 73.6203 47.7914 72.6774L47.7909 72.6363V49.3223C47.7909 48.3604 48.6325 47.5805 49.6707 47.5805ZM56.467 47.5805C57.4903 47.5805 58.3227 48.3382 58.3463 49.2812L58.3468 49.3223V72.6363C58.3468 73.5982 57.5052 74.3781 56.467 74.3781C55.4436 74.3781 54.6112 73.6203 54.5877 72.6774L54.5872 72.6363V49.3223C54.5872 48.3604 55.4288 47.5805 56.467 47.5805ZM53.0688 34.1817C59.3938 34.1817 64.5332 38.8853 64.6354 44.7234L64.637 44.9008V55.0838C64.637 56.0458 63.7953 56.8256 62.7571 56.8256C61.7338 56.8256 60.9014 56.068 60.8778 55.1249L60.8773 55.0838V44.9008C60.8773 40.9047 57.3814 37.6654 53.0688 37.6654C48.7995 37.6654 45.3303 40.8403 45.2614 44.781L45.2604 44.9008V55.0838C45.2604 56.0458 44.4187 56.8256 43.3806 56.8256C42.3572 56.8256 41.5248 56.068 41.5012 55.1249L41.5007 55.0838V44.9008C41.5007 38.9808 46.68 34.1817 53.0688 34.1817ZM53.0688 21.8548C56.3431 21.8548 58.9975 24.3143 58.9975 27.3483C58.9975 30.3823 56.3431 32.8418 53.0688 32.8418C49.7946 32.8418 47.1402 30.3823 47.1402 27.3483C47.1402 24.3143 49.7946 21.8548 53.0688 21.8548ZM53.0688 24.5345C51.3918 24.5345 50.0322 25.7943 50.0322 27.3483C50.0322 28.9023 51.3918 30.162 53.0688 30.162C54.7459 30.162 56.1055 28.9023 56.1055 27.3483C56.1055 25.7943 54.7459 24.5345 53.0688 24.5345Z" fill="#109AF9"/>
<g clip-path="url(#clip0_949_1686)">
<path d="M132.937 61.7131H127.119C126.782 61.7267 126.449 61.6253 126.157 61.4204C125.865 61.2155 125.626 60.9153 125.468 60.5537C125.311 60.2071 125.238 59.8133 125.258 59.4182C125.278 59.0232 125.389 58.6431 125.58 58.3224L137.29 38.8315C137.968 37.6282 138.875 36.6412 139.933 35.9537C140.991 35.2663 142.17 34.8987 143.37 34.882C144.778 34.9525 146.152 35.4292 147.379 36.2727C148.606 37.1162 149.65 38.3024 150.426 39.7334C153.353 44.5847 161.609 58.2796 161.609 58.2796C161.81 58.5952 161.927 58.9765 161.947 59.3743C161.967 59.7721 161.889 60.1681 161.722 60.511C161.55 60.8589 161.309 61.1479 161.02 61.3507C160.731 61.5536 160.404 61.6636 160.07 61.6703H153.765C153.525 61.6876 153.284 61.6448 153.057 61.5447C152.831 61.4446 152.623 61.2893 152.448 61.0883C152.273 60.8872 152.133 60.6447 152.038 60.3757C151.942 60.1066 151.893 59.8166 151.893 59.5236C151.893 59.2305 151.942 58.9406 152.038 58.6715C152.133 58.4025 152.273 58.16 152.448 57.9589C152.623 57.7579 152.831 57.6026 153.057 57.5025C153.284 57.4024 153.525 57.3596 153.765 57.3768H156.505C153.878 52.9978 149.336 45.4847 147.347 42.1795C146.221 40.2903 144.757 39.1746 143.371 39.1746C142.773 39.2007 142.189 39.4065 141.671 39.7736C141.154 40.1407 140.719 40.6577 140.406 41.2786L130.723 57.4205H132.975C133.214 57.4091 133.453 57.4558 133.678 57.558C133.903 57.6601 134.108 57.8157 134.283 58.0155C134.458 58.2154 134.598 58.4555 134.695 58.7219C134.793 58.9884 134.846 59.2757 134.851 59.5673C134.825 60.1581 134.611 60.7133 134.253 61.1143C133.895 61.5153 133.423 61.7302 132.937 61.7131V61.7131Z" fill="#F05C27"/>
<path d="M139 77.8129C138.694 77.8157 138.391 77.7621 138.108 77.655C137.825 77.5479 137.567 77.3895 137.351 77.1892C137.135 76.9889 136.964 76.7506 136.848 76.4883C136.732 76.226 136.675 75.945 136.678 75.6617V58.1092C136.678 57.8267 136.738 57.5469 136.854 57.2859C136.971 57.0249 137.142 56.7878 137.358 56.588C137.574 56.3883 137.83 56.2298 138.111 56.1217C138.393 56.0136 138.695 55.9579 139 55.9579C139.305 55.9579 139.607 56.0136 139.889 56.1217C140.171 56.2298 140.427 56.3883 140.643 56.588C140.858 56.7878 141.029 57.0249 141.146 57.2859C141.263 57.5469 141.323 57.8267 141.323 58.1092V75.6617C141.326 75.945 141.268 76.226 141.152 76.4883C141.037 76.7506 140.866 76.9889 140.649 77.1892C140.433 77.3895 140.176 77.5479 139.893 77.655C139.61 77.7621 139.306 77.8157 139 77.8129V77.8129Z" fill="#F05C27"/>
<path d="M147.856 77.8129C147.551 77.8157 147.247 77.7621 146.964 77.655C146.681 77.5479 146.423 77.3895 146.207 77.1892C145.991 76.9889 145.82 76.7506 145.704 76.4883C145.589 76.226 145.531 75.945 145.534 75.6617V58.1092C145.534 57.8267 145.594 57.5469 145.711 57.2859C145.827 57.0249 145.998 56.7878 146.214 56.588C146.43 56.3883 146.686 56.2298 146.968 56.1217C147.249 56.0136 147.551 55.9579 147.856 55.9579C148.161 55.9579 148.463 56.0136 148.745 56.1217C149.027 56.2298 149.283 56.3883 149.499 56.588C149.714 56.7878 149.886 57.0249 150.002 57.2859C150.119 57.5469 150.179 57.8267 150.179 58.1092V75.6617C150.182 75.945 150.124 76.226 150.009 76.4883C149.893 76.7506 149.722 76.9889 149.506 77.1892C149.289 77.3895 149.032 77.5479 148.749 77.655C148.466 77.7621 148.162 77.8157 147.856 77.8129V77.8129Z" fill="#F05C27"/>
<path d="M149.396 27.2795C149.396 30.3256 146.73 32.795 143.441 32.795C140.153 32.795 137.486 30.3256 137.486 27.2795C137.486 24.2334 140.153 21.764 143.441 21.764C146.73 21.764 149.396 24.2334 149.396 27.2795ZM140.277 27.2795C140.277 28.8979 141.694 30.21 143.441 30.21C145.189 30.21 146.605 28.8979 146.605 27.2795C146.605 25.6611 145.189 24.349 143.441 24.349C141.694 24.349 140.277 25.6611 140.277 27.2795Z" fill="#F05C27"/>
</g>
<path d="M0.681252 48C0.681252 35.2696 6.14138 23.0606 15.8605 14.0589C25.5796 5.05713 38.7615 9.61118e-07 52.5064 0C66.2513 -9.61118e-07 79.4332 5.05713 89.1523 14.0589C98.8714 23.0606 104.332 35.2696 104.332 48L93.9665 48C93.9665 37.8157 89.5984 28.0485 81.8231 20.8471C74.0478 13.6457 63.5023 9.6 52.5064 9.6C41.5105 9.6 30.9649 13.6457 23.1897 20.8471C15.4144 28.0485 11.0463 37.8157 11.0463 48H0.681252Z" fill="#109AF9"/>
<defs>
<clipPath id="clip0_949_1686">
<rect width="64.3791" height="59.6273" fill="white" transform="translate(111.413 18.1863)"/>
</clipPath>
</defs>
</svg>
